<?xml version="1.0" encoding="UTF-8"?>
<!DOCTYPE svg PUBLIC "-//W3C//DTD SVG 1.1//EN" "http://www.w3.org/Graphics/SVG/1.1/DTD/svg11.dtd">
<!-- Creator: CorelDRAW X7 -->
<svg xmlns="http://www.w3.org/2000/svg" xml:space="preserve" width="3508px" height="2480px" version="1.1" style="shape-rendering:geometricPrecision; text-rendering:geometricPrecision; image-rendering:optimizeQuality; fill-rule:evenodd; clip-rule:evenodd"
viewBox="0 0 3508 2480"
 xmlns:xlink="http://www.w3.org/1999/xlink">
 <defs>
  <style type="text/css">
   <![CDATA[
    .fil12 {fill:black}
    .fil8 {fill:#040100}
    .fil11 {fill:#1A1B1F}
    .fil4 {fill:#1D0104}
    .fil36 {fill:#220A07}
    .fil32 {fill:#29100D}
    .fil19 {fill:#2B1C11}
    .fil20 {fill:#333131}
    .fil38 {fill:#3B2A15}
    .fil34 {fill:#423735}
    .fil3 {fill:#46695E}
    .fil1 {fill:#719690}
    .fil14 {fill:#832D0F}
    .fil25 {fill:#875050}
    .fil5 {fill:#92A0A8}
    .fil2 {fill:#92AFAE}
    .fil15 {fill:#945147}
    .fil23 {fill:#995B59}
    .fil24 {fill:#A05A52}
    .fil16 {fill:#AA4924}
    .fil37 {fill:#ABA49F}
    .fil30 {fill:#B3513B}
    .fil0 {fill:#B3C9CD}
    .fil39 {fill:#B9A88D}
    .fil27 {fill:#BD543A}
    .fil26 {fill:#C48050}
    .fil9 {fill:#C99732}
    .fil33 {fill:#CFC9B9}
    .fil35 {fill:#D6D4D4}
    .fil40 {fill:#D95F27}
    .fil41 {fill:#D9D5C3}
    .fil29 {fill:#DF9C36}
    .fil31 {fill:#E06243}
    .fil17 {fill:#E0D9C6}
    .fil18 {fill:#E5C554}
    .fil21 {fill:#E76D62}
    .fil10 {fill:#EFC048}
    .fil22 {fill:#F0B398}
    .fil7 {fill:#F2BC41}
    .fil13 {fill:#F2F0F0}
    .fil28 {fill:#F8F8F6}
    .fil6 {fill:white}
   ]]>
  </style>
 </defs>
 <g id="Layer_x0020_1">
  <metadata id="CorelCorpID_0Corel-Layer"/>
  <polygon class="fil0" points="6087,4020 -2247,4020 -2247,687 6087,687 "/>
  <polygon class="fil1" points="6087,4020 -2247,4020 -2247,2958 6087,2957 "/>
  <path class="fil2" d="M5250 1979c-10,0 -21,0 -31,-1 -9,-1 -19,-1 -28,-1 -2,0 -4,0 -6,0 -11,0 -23,-2 -30,-6 -13,-7 -42,-19 -50,-31 -13,-32 -46,-54 -49,-98 -2,-12 -7,-19 -9,-30 2,-46 9,-92 15,-140 8,-33 15,-69 21,-102 15,-62 19,-69 46,-125 15,-37 28,-40 42,-77 10,-20 21,-41 33,-58 9,-21 23,-42 36,-63 27,-47 57,-89 89,-124 21,-21 44,-44 66,-63 13,-10 26,-21 39,-26 4,-3 8,-4 13,-5 3,-1 6,-1 9,-1 16,0 32,4 44,16 14,13 19,33 14,61 -3,17 -4,34 -8,50 -2,13 -8,24 -15,39 -10,24 -21,47 -37,70 -10,19 -22,38 -32,56 -17,26 -31,53 -49,78 -30,40 -56,83 -83,123 -44,77 -40,89 -56,166 -6,30 -3,47 -4,77 1,9 6,65 7,71 4,20 9,27 17,46 3,5 23,10 30,13 1,0 2,0 3,0 17,0 84,-45 94,-52 23,-13 41,-35 61,-55 22,-20 32,-43 51,-70 26,-35 34,-63 62,-101 0,0 1,0 2,0 17,0 5,29 -14,63 -7,15 -32,46 -32,62 -1,2 -5,6 -8,7 -5,5 -9,10 -12,18 -3,7 -7,10 -10,15 -20,36 -33,57 -66,88 -8,7 -85,81 -90,88 -23,18 -49,22 -75,22zm216 -887c-1,0 -2,1 -3,1 -8,2 -12,4 -16,7 -19,8 -36,22 -49,42 -10,12 -17,24 -29,36 -13,16 -20,32 -26,50 -7,15 -14,32 -21,46 -10,30 -25,61 -39,91 -6,14 -10,30 -16,44 -17,49 -10,25 -26,74 -3,8 -2,30 7,30 3,0 6,-1 11,-6 21,-32 35,-53 54,-86 46,-73 53,-85 95,-164 16,-30 29,-60 45,-91 7,-21 11,-43 14,-64 2,-6 3,-10 -1,-10z"/>
  <path class="fil3" d="M2860 3336c-281,0 -509,24 -509,53 0,29 228,53 509,53 282,0 510,-24 510,-53 0,-29 -228,-53 -510,-53z"/>
  <path class="fil4" d="M2390 2050l0 0c-2,-2 -8,-1 -11,0 -3,1 -5,1 -6,2 -74,30 -144,71 -208,118 -55,40 -106,86 -146,141 -38,52 -72,117 -74,183 -1,16 4,34 13,47 18,27 51,29 81,25 -8,31 -11,77 17,97 27,20 69,8 97,-3 30,-11 54,-28 75,-53 46,-56 72,-130 93,-199 22,-75 39,-152 52,-229 7,-43 14,-85 18,-128 1,-1 0,-1 -1,-1z"/>
  <path class="fil5" d="M3497 2622c-17,-134 -95,-265 -209,-339 -101,-65 -222,-75 -339,-83 -55,-3 -111,-6 -165,-21 -14,-4 -34,-9 -45,-17 -8,-6 -16,-13 -25,-19 -76,-59 -170,-105 -268,-109 -59,-3 -118,15 -165,52 -55,43 -93,107 -121,171 -53,125 -56,265 -21,396 41,155 131,294 239,412 31,34 64,66 98,97 -1,68 -3,135 -4,203 0,9 0,19 -1,29 0,4 15,6 18,6 16,0 31,0 47,0 1,0 4,0 4,-1 7,-51 15,-102 23,-154 3,40 6,79 9,118 1,11 2,21 3,31 0,4 14,6 17,6 19,0 37,0 56,0 0,0 3,0 3,-1 2,-42 3,-83 5,-125 88,32 187,31 279,22 87,-8 174,-26 258,-49 10,-3 19,-5 29,-8 -8,46 -16,92 -24,138 -1,4 15,6 18,6 9,0 19,0 29,0 4,0 13,1 17,-1 3,-2 6,-9 8,-12 15,-25 30,-50 44,-76 53,-95 98,-194 133,-298 39,-119 66,-248 50,-374z"/>
  <path class="fil4" d="M2940 2497c-22,-32 -46,-63 -73,-91 27,13 55,25 83,27 21,2 41,-5 43,-28 1,-28 -12,-58 -25,-82 -32,-57 -85,-102 -139,-139 -53,-36 -111,-66 -170,-91 -32,-14 -64,-28 -97,-38 -4,-2 -8,-2 -10,1 -27,77 -48,156 -67,235 -16,72 -30,144 -38,217 -7,72 -10,144 0,215 8,61 27,122 67,170 38,45 98,75 157,77 119,4 114,-147 105,-229 -6,-49 -15,-97 -27,-146 23,47 52,94 95,123 21,15 47,24 72,18 29,-7 55,-30 68,-57 28,-60 -11,-132 -44,-182z"/>
  <path class="fil5" d="M2155 2300c0,0 -107,473 0,942l48 0c0,0 -22,-452 90,-585l-138 -357z"/>
  <path class="fil6" d="M2220 2268c0,15 -9,28 -20,28 -10,0 -19,-13 -19,-28 0,-15 9,-28 19,-28 11,0 20,13 20,28z"/>
  <path class="fil6" d="M2383 2290c0,20 -16,36 -36,36 -21,0 -37,-16 -37,-36 0,-21 16,-37 37,-37 20,0 36,16 36,37z"/>
  <path class="fil4" d="M2349 2303c0,-5 -3,-7 -5,-7 -1,-1 -4,-1 -8,3 -2,3 -3,6 -4,9 -2,9 -1,16 4,18 1,0 1,0 2,0 4,0 9,-5 11,-13 1,-4 1,-7 0,-10z"/>
  <path class="fil4" d="M2202 2270c-5,-1 -10,4 -12,13 -1,3 -1,7 -1,10 1,5 4,6 5,7 1,0 1,0 2,0 2,0 4,-1 6,-4 2,-2 4,-5 5,-9 2,-9 0,-16 -5,-17z"/>
  <path class="fil5" d="M3437 2489c11,53 28,106 49,157 20,47 62,144 130,124 18,-6 33,-20 45,-34 21,-25 37,-55 50,-85 2,-6 -10,-5 -12,-1 -11,26 -24,52 -41,75 -11,14 -24,29 -40,36 -26,11 -50,-7 -66,-26 -24,-27 -40,-60 -53,-93 -14,-33 -26,-66 -35,-101 -6,-18 -11,-37 -15,-55 -1,-5 -14,-2 -12,3z"/>
  <path class="fil4" d="M3754 2556c-3,1 -4,3 -5,5 -2,4 -3,8 -5,12 -4,7 -7,13 -11,20 4,-14 7,-28 9,-42 1,-4 5,-17 -2,-19 -3,-1 -5,2 -7,4 -6,6 -10,13 -13,20 -2,4 -4,8 -6,12 0,-2 1,-3 1,-5 1,-3 5,-26 -6,-18 -2,2 -4,6 -6,9 -3,7 -7,14 -10,21 -7,17 -13,36 -13,54 0,11 2,23 11,29 8,6 18,8 27,5 20,-8 28,-36 32,-54 3,-11 5,-21 7,-32 1,-5 2,-9 2,-14 0,-3 -1,-7 -5,-7z"/>
  <path class="fil4" d="M2498 1979c-8,8 -16,15 -24,23 0,-11 1,-23 2,-34 0,-2 -5,-4 -6,-2 -7,9 -13,18 -20,27 -2,-5 -4,-9 -7,-13 0,-1 -6,-4 -6,-2 0,7 0,14 0,21 -1,13 -4,27 7,37 5,4 13,5 19,3 8,-4 14,-11 19,-18 6,-8 11,-16 15,-25 2,-5 5,-10 7,-15 1,-2 -5,-3 -6,-2z"/>
  <path class="fil5" d="M3133 3214c0,4 -17,159 -17,159l39 0 81 -198 -103 39z"/>
  <path class="fil6" d="M2127 2457c26,9 91,56 138,30l-138 -30z"/>
  <path class="fil6" d="M2213 2552l-90 -26c0,0 34,39 90,26z"/>
  <path class="fil6" d="M2187 2599l-73 -9c0,0 35,26 73,9z"/>
  <path class="fil6" d="M2175 2651l-61 0c0,0 22,17 61,0z"/>
  <path class="fil6" d="M2175 2715l-69 0c8,0 38,17 69,0z"/>
  <path class="fil6" d="M2144 2780l-38 -5c0,0 8,18 38,5z"/>
  <path class="fil6" d="M2140 2831l-34 0c0,0 8,13 34,0z"/>
  <path class="fil6" d="M2140 2878l-34 0c13,0 17,9 34,0z"/>
  <path class="fil6" d="M2149 2917l-43 0c0,0 34,13 43,0z"/>
  <path class="fil6" d="M2149 2973l-35 0c0,0 13,13 35,0z"/>
  <path class="fil6" d="M2157 3020l-34 0c0,0 21,13 34,0z"/>
  <path class="fil6" d="M2157 3068l-34 0c0,0 17,13 34,0z"/>
  <path class="fil6" d="M2157 3115l-25 -4c0,0 8,17 25,4z"/>
  <path class="fil6" d="M2166 3162l-26 0c0,0 17,13 26,0z"/>
  <path class="fil6" d="M2306 2719c-2,-9 -7,-17 -17,-18 -14,-2 -25,8 -33,18 -18,26 -39,47 -64,65 -5,3 -34,20 -23,27 7,4 23,-1 30,-2 22,-5 43,-11 62,-22 22,-13 49,-39 45,-68z"/>
  <path class="fil4" d="M2518 3368c-5,2 -8,7 -11,11 -2,-9 -6,-19 -16,-11 -8,7 -13,20 -16,29l0 1c0,0 1,0 1,0 20,1 39,2 58,2 2,0 5,0 5,-2 -2,-9 -5,-40 -21,-30z"/>
  <path class="fil4" d="M2625 3363c-7,3 -11,10 -14,18 -1,-13 -5,-36 -18,-23 -11,9 -16,26 -20,39l0 0 0 0c26,2 52,3 78,4 0,0 2,0 2,-1 -2,-10 -10,-46 -28,-37z"/>
  <path class="fil4" d="M3147 3348c-5,3 -9,9 -12,14 0,-5 -1,-10 -3,-13 -3,-2 -6,-1 -8,1 -6,6 -8,17 -10,24 0,1 2,2 4,2 12,0 25,0 38,0 0,0 1,0 1,0 0,-5 4,-39 -10,-28z"/>
  <path class="fil4" d="M3250 3348c-7,4 -13,11 -19,18 -1,-5 -2,-11 -4,-17 -2,-2 -3,-6 -6,-7 -5,-2 -9,1 -12,4 -7,9 -11,22 -13,33l0 1c0,0 0,0 1,0l0 0c20,2 40,3 60,5 1,0 3,-1 3,-1 2,-8 10,-46 -10,-36z"/>
  <path class="fil6" d="M2338 2130c0,5 47,48 138,31l-138 -31z"/>
  <path class="fil3" d="M1781 3435c-217,0 -387,29 -387,65 0,36 170,64 387,64 217,0 387,-28 387,-64 0,-36 -170,-65 -387,-65z"/>
  <path class="fil7" d="M2214 3116c-9,-65 -37,-123 -67,-181 -30,-59 -59,-118 -87,-178 -11,-23 -21,-47 -35,-69 -10,-16 -24,-28 -37,-41 -14,-13 -27,-27 -42,-40 -30,-27 -64,-49 -101,-66 -35,-15 -73,-25 -112,-23 -34,1 -63,13 -94,27 -44,19 -84,44 -95,94 -8,33 -4,68 2,100 0,4 4,6 7,7 16,2 32,5 47,9 27,6 56,14 78,32 9,7 16,17 17,29 0,7 -2,13 -4,18 -6,14 -11,27 -16,40 -16,42 -26,86 -4,128 9,17 28,31 30,51 2,15 -5,29 -13,40 -17,24 -41,42 -65,58 -28,17 -48,43 -64,71 -18,33 -28,71 -26,108 2,53 26,102 57,143 -9,3 -21,2 -30,-3 -15,-7 -27,-21 -36,-35 -17,-27 -28,-60 -35,-91 -9,-35 -16,-71 -18,-107 -1,-24 0,-48 7,-71 4,-10 10,-24 21,-29 4,-1 8,-1 11,0 10,3 17,11 27,14 26,8 47,-16 42,-42 -4,-18 -27,-27 -44,-30 -29,-11 -68,-7 -89,18 -23,27 -25,68 -27,101 -4,75 2,155 35,223 19,37 46,70 81,92 42,27 93,36 142,36 56,-1 113,-13 167,-28 69,-20 137,-46 198,-84 70,-43 133,-103 160,-183 15,-44 19,-92 12,-138z"/>
  <path class="fil8" d="M1796 2558c-12,-19 -37,-37 -60,-35 -18,1 -31,15 -40,29 -6,11 -10,23 -13,36 0,2 1,4 3,5 22,17 44,34 67,51 1,1 2,1 3,1 2,0 4,0 5,-1 28,-18 56,-53 35,-86z"/>
  <path class="fil6" d="M1769 2572c-8,-12 -25,-23 -40,-21 -11,1 -19,10 -24,19 -4,8 -8,16 -9,24l0 0c16,12 32,24 48,36 0,0 0,0 1,0 0,0 1,0 1,0 18,-12 38,-36 23,-58z"/>
  <path class="fil8" d="M1614 2589c-5,-25 -19,-56 -45,-63 -23,-6 -47,8 -62,24 -15,17 -17,39 -5,59 9,13 21,25 34,33 2,2 5,2 7,1 1,0 2,0 3,-1 22,-17 45,-33 67,-50 1,-1 1,-2 1,-3z"/>
  <path class="fil6" d="M1600 2592c-5,-23 -21,-45 -47,-35 -16,7 -33,23 -27,41 4,12 14,22 24,29 1,0 2,0 4,-1 1,0 2,0 3,-1 14,-10 28,-21 42,-31 0,-1 1,-1 1,-2z"/>
  <path class="fil9" d="M1739 3021c-5,-33 -11,-66 -14,-100 -2,-16 -2,-33 -2,-49 1,-19 3,-37 4,-55 3,-48 2,-99 -12,-145 0,-2 -1,-4 -2,-6l0 0 0 -1c0,-1 -2,-1 -4,-2 -4,-1 -9,-2 -9,-1 -11,31 -22,61 -34,92 -2,7 -5,13 -7,20 -2,7 3,13 5,21 3,24 -7,46 -14,69 -16,48 -22,102 -1,150 7,16 19,31 19,49 0,27 -19,51 -35,69 -19,22 -39,43 -57,65 -2,3 -11,12 -11,16 1,3 12,6 14,7 49,18 98,-1 134,-36 42,-42 34,-109 26,-163z"/>
  <path class="fil10" d="M1776 2688c-8,-48 -41,-112 -98,-113 -35,-7 -77,-7 -108,12 -29,16 -38,46 -40,78 -2,31 0,63 14,91 29,61 109,70 168,55 56,-15 72,-72 64,-123z"/>
  <path class="fil6" d="M1643 2728c0,0 -2,49 -22,31 -19,-17 11,-53 22,-31z"/>
  <path class="fil6" d="M1643 2728c0,0 3,49 22,31 20,-17 -11,-53 -22,-31z"/>
  <path class="fil6" d="M1551 2678c0,0 33,-40 70,4 0,0 -39,31 -70,-4z"/>
  <path class="fil8" d="M1606 2679c-1,-3 -2,-6 -3,-8 -2,-3 -4,-4 -5,-3 -2,0 -3,1 -4,5 0,2 0,5 0,9 2,6 5,12 8,12l1 0c4,-1 4,-8 3,-15z"/>
  <path class="fil6" d="M1677 2678c0,0 28,-38 66,7 0,0 -35,28 -66,-7z"/>
  <path class="fil8" d="M1732 2679c0,-3 -2,-6 -3,-8 -2,-3 -4,-4 -5,-3 -1,0 -3,1 -4,5 0,2 0,5 1,9 1,6 4,12 7,12l1 0c4,-1 4,-8 3,-15z"/>
  <path class="fil6" d="M1621 2575c0,0 7,153 14,162l19 0 22 -159c0,0 -46,-10 -55,-3z"/>
  <path class="fil11" d="M1658 2706c-9,0 -19,0 -28,0l-1 0 0 0c0,5 1,9 1,14 1,4 0,12 3,16 1,3 4,2 6,2 6,0 11,0 16,0l1 0c1,-11 3,-21 4,-31 0,-1 -1,-1 -2,-1z"/>
  <path class="fil11" d="M1661 2733c0,-1 -1,-1 -2,-1 -1,0 -1,0 -1,1 0,1 0,2 1,2 1,0 2,-1 2,-2z"/>
  <path class="fil11" d="M1653 2741c-1,0 -2,0 -2,1 0,1 1,2 2,2 1,0 1,-1 1,-2 0,-1 0,-1 -1,-1z"/>
  <path class="fil11" d="M1660 2740c0,1 1,2 1,2 1,0 2,-1 2,-2 0,-1 -1,-2 -2,-2 0,0 -1,1 -1,2z"/>
  <path class="fil11" d="M1661 2745c0,0 -1,1 -1,2 0,0 1,1 1,1 1,0 2,-1 2,-1 0,-1 -1,-2 -2,-2z"/>
  <path class="fil11" d="M1633 2741c-1,0 -2,0 -2,1 0,1 1,2 2,2 1,0 2,-1 2,-2 0,-1 -1,-1 -2,-1z"/>
  <path class="fil11" d="M1629 2732c-1,0 -2,0 -2,1 0,1 1,2 2,2 0,0 1,-1 1,-2 0,-1 -1,-1 -1,-1z"/>
  <path class="fil11" d="M1622 2738c-1,0 -2,1 -2,2 0,1 1,2 2,2 1,0 2,-1 2,-2 0,-1 -1,-2 -2,-2z"/>
  <path class="fil11" d="M1626 2745c-1,0 -1,1 -1,2 0,0 0,1 1,1 1,0 2,-1 2,-1 0,-1 -1,-2 -2,-2z"/>
  <path class="fil11" d="M1570 2719l-89 0c-1,0 -1,-1 -1,-2 0,0 0,-1 1,-1l89 0c1,0 1,1 1,1 0,1 0,2 -1,2z"/>
  <path class="fil11" d="M1490 2761c0,0 -1,0 -1,-1 0,-1 0,-2 1,-2l77 -26c1,0 2,1 2,1 0,1 0,2 -1,2l-77 26 -1 0z"/>
  <path class="fil11" d="M1528 2787c-1,0 -1,-1 -1,-1 -1,0 -1,-1 0,-2l42 -37c1,-1 1,-1 2,0 0,0 0,1 0,2l-42 37 -1 1z"/>
  <path class="fil11" d="M1826 2711l-89 0c-1,0 -1,-1 -1,-2 0,-1 0,-1 1,-1l89 0c1,0 1,0 1,1 0,1 0,2 -1,2z"/>
  <path class="fil11" d="M1817 2753l-1 0 -77 -26c-1,0 -1,-1 -1,-2 0,-1 1,-1 2,-1l77 26c1,0 1,1 1,2 0,0 -1,1 -1,1z"/>
  <path class="fil11" d="M1779 2778l-1 0 -42 -37c0,-1 -1,-2 0,-2 0,-1 1,-1 2,0l42 37c1,1 1,1 0,2 0,0 0,0 -1,0z"/>
  <polygon class="fil11" points="1645,2763 1642,2763 1642,2732 1645,2732 "/>
  <path class="fil11" d="M1623 2780c2,-4 5,-9 9,-12 13,-10 26,1 34,11 2,2 7,1 6,0 -9,-11 -23,-22 -38,-16 -7,3 -13,9 -17,16 0,1 5,2 6,1z"/>
  <path class="fil11" d="M1631 2761c-18,-11 -22,-32 -14,-50 6,-13 15,-22 4,-35 -21,-27 -52,-19 -75,3 -2,2 6,1 8,0 15,-15 33,-23 51,-9 9,7 17,17 11,29 -5,10 -10,18 -11,30 -1,15 5,27 18,35 2,1 9,-2 8,-3z"/>
  <path class="fil11" d="M1655 2764c30,-3 23,-38 18,-59 -3,-14 2,-25 14,-34 16,-11 38,-3 51,14 1,2 9,-1 8,-3 -12,-16 -29,-23 -48,-19 -14,3 -29,13 -33,26 -3,9 0,17 2,25 3,12 9,45 -11,47 -3,1 -7,4 -1,3z"/>
  <path class="fil9" d="M1584 3116c0,0 0,-1 0,-1 -2,-17 -15,-31 -33,-30 -17,0 -32,15 -32,33 0,17 14,31 31,31 18,0 32,-14 34,-31 0,0 0,-1 0,-2z"/>
  <path class="fil12" d="M2068 2905c0,8 -6,14 -14,14 -7,0 -14,-6 -14,-14 0,-7 7,-14 14,-14 8,0 14,7 14,14z"/>
  <path class="fil12" d="M1907 2825c0,6 -5,12 -11,12 -6,0 -11,-6 -11,-12 0,-6 5,-12 11,-12 6,0 11,6 11,12z"/>
  <path class="fil12" d="M1970 2819c0,3 -3,6 -6,6 -3,0 -6,-3 -6,-6 0,-3 3,-6 6,-6 3,0 6,3 6,6z"/>
  <path class="fil12" d="M2018 2984c0,8 -7,14 -14,14 -8,0 -14,-6 -14,-14 0,-8 6,-14 14,-14 7,0 14,6 14,14z"/>
  <path class="fil12" d="M2051 2799c0,8 -6,14 -14,14 -7,0 -14,-6 -14,-14 0,-7 7,-14 14,-14 8,0 14,7 14,14z"/>
  <path class="fil12" d="M2108 2990c7,2 11,11 8,18 -3,7 -11,11 -18,8 -7,-3 -11,-11 -8,-19 3,-7 11,-10 18,-7z"/>
  <path class="fil12" d="M1537 3101c0,5 -4,9 -9,9 -5,0 -10,-4 -10,-9 0,-5 5,-10 10,-10 5,0 9,5 9,10z"/>
  <path class="fil12" d="M1458 3134c0,2 -2,4 -5,4 -3,0 -5,-2 -5,-4 0,-3 2,-5 5,-5 3,0 5,2 5,5z"/>
  <path class="fil12" d="M1453 3203c0,3 -3,5 -6,5 -3,0 -6,-2 -6,-5 0,-4 3,-6 6,-6 3,0 6,2 6,6z"/>
  <path class="fil12" d="M1939 3317c0,3 -3,6 -6,6 -3,0 -6,-3 -6,-6 0,-3 3,-6 6,-6 3,0 6,3 6,6z"/>
  <path class="fil12" d="M1488 3360c0,3 -3,7 -7,7 -4,0 -7,-4 -7,-7 0,-4 3,-8 7,-8 4,0 7,4 7,8z"/>
  <path class="fil12" d="M1965 3070c0,4 -3,7 -7,7 -4,0 -7,-3 -7,-7 0,-4 3,-7 7,-7 4,0 7,3 7,7z"/>
  <path class="fil12" d="M1486 3430c-2,3 -7,3 -9,0 -3,-3 -3,-7 0,-10 3,-3 7,-2 10,0 2,3 2,8 -1,10z"/>
  <path class="fil12" d="M1626 3482c0,6 -5,12 -12,12 -6,0 -11,-6 -11,-12 0,-7 5,-12 11,-12 7,0 12,5 12,12z"/>
  <path class="fil12" d="M1587 3375c0,5 -4,8 -8,8 -5,0 -9,-3 -9,-8 0,-4 4,-8 9,-8 4,0 8,4 8,8z"/>
  <path class="fil12" d="M1644 3300c5,5 5,13 0,18 -4,5 -13,6 -18,1 -5,-5 -5,-13 -1,-18 5,-6 13,-6 19,-1z"/>
  <path class="fil12" d="M1668 3394c0,7 -6,13 -13,13 -7,0 -13,-6 -13,-13 0,-7 6,-13 13,-13 7,0 13,6 13,13z"/>
  <path class="fil12" d="M1759 3450c0,5 -4,9 -10,9 -5,0 -9,-4 -9,-9 0,-5 4,-9 9,-9 6,0 10,4 10,9z"/>
  <path class="fil12" d="M1938 3453c0,3 -2,6 -6,6 -3,0 -5,-3 -5,-6 0,-3 2,-6 5,-6 4,0 6,3 6,6z"/>
  <path class="fil12" d="M2055 3323c0,4 -3,7 -7,7 -4,0 -7,-3 -7,-7 0,-4 3,-7 7,-7 4,0 7,3 7,7z"/>
  <path class="fil12" d="M2191 3172c4,-1 8,2 9,5 0,4 -2,8 -6,9 -4,0 -7,-2 -8,-6 -1,-4 2,-7 5,-8z"/>
  <path class="fil12" d="M1781 3103c3,0 7,2 8,6 1,4 -2,7 -6,8 -3,1 -7,-2 -8,-5 -1,-4 2,-8 6,-9z"/>
  <path class="fil12" d="M1778 3349c0,6 -5,10 -10,10 -6,0 -11,-4 -11,-10 0,-6 5,-11 11,-11 5,0 10,5 10,11z"/>
  <path class="fil12" d="M1832 3269c0,4 -3,7 -7,7 -4,0 -7,-3 -7,-7 0,-4 3,-7 7,-7 4,0 7,3 7,7z"/>
  <path class="fil12" d="M1801 3197c0,6 -5,11 -11,11 -7,0 -12,-5 -12,-11 0,-7 5,-12 12,-12 6,0 11,5 11,12z"/>
  <path class="fil12" d="M1727 3199c0,5 -5,9 -10,9 -5,0 -9,-4 -9,-9 0,-5 4,-9 9,-9 5,0 10,4 10,9z"/>
  <path class="fil12" d="M1728 3271c0,6 -4,10 -9,10 -5,0 -9,-4 -9,-10 0,-5 4,-9 9,-9 5,0 9,4 9,9z"/>
  <path class="fil12" d="M1871 3087c0,7 -5,12 -11,12 -7,0 -12,-5 -12,-12 0,-6 5,-11 12,-11 6,0 11,5 11,11z"/>
  <path class="fil12" d="M1918 3002c0,7 -5,12 -12,12 -6,0 -12,-5 -12,-12 0,-6 6,-12 12,-12 7,0 12,6 12,12z"/>
  <path class="fil12" d="M1809 2669c0,4 -4,8 -9,8 -4,0 -8,-4 -8,-8 0,-5 4,-8 8,-8 5,0 9,3 9,8z"/>
  <path class="fil12" d="M1684 2630c0,2 -1,3 -3,3 -2,0 -4,-1 -4,-3 0,-2 2,-4 4,-4 2,0 3,2 3,4z"/>
  <path class="fil12" d="M1782 2825c0,5 -4,9 -9,9 -5,0 -10,-4 -10,-9 0,-6 5,-10 10,-10 5,0 9,4 9,10z"/>
  <path class="fil12" d="M1610 2636c0,2 -2,4 -5,4 -3,0 -5,-2 -5,-4 0,-3 2,-5 5,-5 3,0 5,2 5,5z"/>
  <path class="fil12" d="M2078 2854c0,3 -3,5 -5,5 -3,0 -5,-2 -5,-5 0,-3 2,-5 5,-5 2,0 5,2 5,5z"/>
  <path class="fil12" d="M1551 2640c0,3 -2,5 -5,5 -2,0 -4,-2 -4,-5 0,-2 2,-4 4,-4 3,0 5,2 5,4z"/>
  <path class="fil12" d="M1650 2566c-4,0 -8,-3 -8,-7 0,-4 4,-8 8,-8 4,0 7,4 7,8 0,4 -3,7 -7,7z"/>
  <path class="fil12" d="M1600 2589c0,3 -2,5 -5,5 -2,0 -4,-2 -4,-5 0,-3 2,-5 4,-5 3,0 5,2 5,5z"/>
  <path class="fil12" d="M1818 2562c0,3 -3,6 -6,6 -3,0 -6,-3 -6,-6 0,-3 3,-6 6,-6 3,0 6,3 6,6z"/>
  <path class="fil12" d="M1981 2742c5,4 5,11 1,16 -4,5 -11,5 -16,1 -5,-4 -6,-11 -1,-16 4,-5 11,-6 16,-1z"/>
  <path class="fil12" d="M1940 2895c5,4 6,12 1,17 -4,4 -11,5 -16,1 -5,-5 -5,-12 -1,-17 4,-5 11,-5 16,-1z"/>
  <path class="fil12" d="M2131 3230c5,4 5,12 1,17 -4,4 -12,5 -17,1 -5,-5 -5,-12 -1,-17 5,-5 12,-5 17,-1z"/>
  <path class="fil12" d="M2013 3260c5,4 6,11 1,16 -4,5 -11,6 -16,1 -5,-4 -5,-11 -1,-16 4,-5 12,-6 16,-1z"/>
  <path class="fil12" d="M2080 3372c5,4 5,11 1,16 -4,5 -12,6 -16,1 -5,-4 -6,-11 -1,-16 4,-5 11,-6 16,-1z"/>
  <path class="fil12" d="M2043 3067c5,4 6,11 1,16 -4,5 -11,5 -16,1 -5,-4 -5,-12 -1,-16 4,-5 11,-6 16,-1z"/>
  <path class="fil12" d="M1908 3146c4,4 5,11 1,16 -5,5 -12,5 -17,1 -5,-4 -5,-11 -1,-16 4,-5 12,-6 17,-1z"/>
  <path class="fil12" d="M2148 3301c5,4 5,12 1,17 -4,4 -12,5 -17,1 -4,-5 -5,-12 -1,-17 5,-5 12,-5 17,-1z"/>
  <path class="fil12" d="M2065 3195c4,4 5,11 1,16 -5,5 -12,5 -17,1 -5,-4 -5,-12 -1,-16 4,-5 12,-6 17,-1z"/>
  <path class="fil12" d="M1933 3397c5,4 5,12 1,17 -4,5 -12,5 -16,1 -5,-5 -6,-12 -1,-17 4,-5 11,-5 16,-1z"/>
  <path class="fil12" d="M1798 2982c5,4 5,11 1,16 -4,5 -12,5 -17,1 -4,-4 -5,-12 -1,-16 5,-5 12,-6 17,-1z"/>
  <path class="fil12" d="M1895 2610c0,6 -5,12 -12,12 -6,0 -12,-6 -12,-12 0,-7 6,-12 12,-12 7,0 12,5 12,12z"/>
  <path class="fil12" d="M1901 2716c0,3 -3,7 -7,7 -4,0 -7,-4 -7,-7 0,-4 3,-7 7,-7 4,0 7,3 7,7z"/>
  <path class="fil12" d="M1853 2744c0,6 -5,11 -10,11 -6,0 -11,-5 -11,-11 0,-6 5,-10 11,-10 5,0 10,4 10,10z"/>
  <path class="fil12" d="M1923 2653c0,5 -4,8 -8,8 -5,0 -8,-3 -8,-8 0,-4 3,-8 8,-8 4,0 8,4 8,8z"/>
  <path class="fil12" d="M1995 2669c0,5 -4,9 -9,9 -5,0 -9,-4 -9,-9 0,-5 4,-9 9,-9 5,0 9,4 9,9z"/>
  <path class="fil12" d="M1577 3248c0,5 -4,9 -9,9 -6,0 -10,-4 -10,-9 0,-5 4,-9 10,-9 5,0 9,4 9,9z"/>
  <path class="fil12" d="M1552 3488c0,3 -3,7 -7,7 -4,0 -7,-4 -7,-7 0,-4 3,-8 7,-8 4,0 7,4 7,8z"/>
  <path class="fil12" d="M1848 3488c0,4 -4,8 -8,8 -5,0 -8,-4 -8,-8 0,-5 3,-8 8,-8 4,0 8,3 8,8z"/>
  <path class="fil12" d="M2147 2966c0,4 -2,6 -5,6 -4,0 -6,-2 -6,-6 0,-3 2,-5 6,-5 3,0 5,2 5,5z"/>
  <path class="fil12" d="M2185 3079c0,4 -4,8 -8,8 -5,0 -9,-4 -9,-8 0,-5 4,-9 9,-9 4,0 8,4 8,9z"/>
  <path class="fil12" d="M1551 3141c0,3 -3,7 -7,7 -4,0 -7,-4 -7,-7 0,-4 3,-7 7,-7 4,0 7,3 7,7z"/>
  <path class="fil12" d="M1722 2615c0,3 -3,7 -7,7 -4,0 -7,-4 -7,-7 0,-4 3,-7 7,-7 4,0 7,3 7,7z"/>
  <path class="fil12" d="M2123 3110c0,9 -8,17 -18,17 -10,0 -18,-8 -18,-17 0,-10 8,-18 18,-18 10,0 18,8 18,18z"/>
  <path class="fil12" d="M1925 3240c0,6 -5,11 -12,11 -6,0 -11,-5 -11,-11 0,-6 5,-11 11,-11 7,0 12,5 12,11z"/>
  <path class="fil12" d="M2006 3159c0,7 -6,13 -13,13 -7,0 -12,-6 -12,-13 0,-7 5,-12 12,-12 7,0 13,5 13,12z"/>
  <path class="fil12" d="M1869 3371c0,9 -7,16 -16,16 -9,0 -16,-7 -16,-16 0,-9 7,-16 16,-16 9,0 16,7 16,16z"/>
  <path class="fil12" d="M1803 2919c-8,-4 -12,-14 -9,-22 4,-9 14,-13 22,-9 9,4 13,14 9,22 -4,8 -14,12 -22,9z"/>
  <path class="fil12" d="M1679 3529c-6,-3 -9,-10 -6,-16 3,-6 10,-9 16,-7 7,3 10,10 7,17 -3,6 -10,9 -17,6z"/>
  <path class="fil12" d="M1431 3296c-6,-3 -8,-9 -6,-14 3,-6 9,-8 14,-6 6,3 8,9 6,14 -3,6 -9,8 -14,6z"/>
  <path class="fil12" d="M1984 3410c-8,-3 -11,-12 -8,-20 4,-8 13,-11 21,-8 7,3 11,13 8,20 -4,8 -13,12 -21,8z"/>
  <path class="fil3" d="M-1579 3479c0,34 237,62 530,62 294,0 531,-28 531,-62 0,-34 -237,-62 -531,-62 -293,0 -530,28 -530,62z"/>
  <path class="fil13" d="M-710 3049c3,-15 5,-31 8,-46 5,-20 25,-31 44,-31 16,0 24,13 25,28 1,12 -1,25 -2,37 -1,13 -1,26 -2,39 -5,74 -9,148 -13,222 -2,31 -3,63 -5,95 -1,10 -1,20 -2,31 0,6 1,11 4,17 2,3 6,7 6,11 1,8 -9,11 -15,13 -8,3 -14,4 -19,-2 -5,-5 -8,-13 -11,-20 -11,-28 -16,-57 -20,-86 -15,-102 -13,-207 2,-308z"/>
  <path class="fil13" d="M-914 3078c2,-16 5,-31 7,-46 5,-20 25,-35 45,-32 16,1 23,14 24,29 1,12 -1,25 -2,37 -1,13 -1,26 -2,39 -5,74 -9,148 -13,222 -2,32 -3,63 -5,95 -1,10 -2,21 -2,31 0,7 2,13 6,18 2,3 4,6 4,10 1,9 -10,14 -16,16 -17,5 -24,-12 -29,-25 -10,-28 -16,-58 -20,-88 -15,-101 -12,-205 3,-306z"/>
  <path class="fil13" d="M-1306 3059c3,-16 5,-31 8,-46 5,-21 25,-31 45,-28 16,2 24,14 25,30 1,12 -1,24 -2,37 -1,13 -2,26 -2,39 -5,74 -9,148 -13,222 -2,31 -4,63 -5,95 -1,10 -2,20 -2,30 0,7 1,13 5,19 2,3 5,6 5,10 1,8 -9,11 -15,12 -19,4 -25,-12 -31,-27 -11,-27 -16,-57 -20,-86 -15,-101 -13,-206 2,-307z"/>
  <path class="fil13" d="M-1424 3045c2,-15 5,-31 8,-46 0,0 0,-1 0,-1 5,-19 21,-37 42,-35 16,2 22,18 23,32 1,12 -1,25 -2,37 -1,13 -2,26 -3,39 -5,74 -9,148 -13,222 -1,31 -3,63 -5,95 0,10 -2,21 -1,31 0,7 3,12 6,18 2,3 4,6 4,9 0,9 -7,17 -14,20 -16,6 -23,-14 -28,-26 -10,-28 -15,-58 -20,-88 -15,-101 -12,-206 3,-307z"/>
  <path class="fil13" d="M-1493 2706c3,-86 13,-173 30,-258 4,-20 9,-41 15,-61 3,-12 5,-25 10,-37 6,-12 15,-23 24,-32 15,-17 34,-30 56,-35 28,-7 59,1 85,14 14,7 25,17 38,25 16,9 32,17 49,24 20,9 41,15 62,24 23,11 53,27 64,52 9,22 -4,40 -21,53 -29,20 -67,17 -100,7 -14,-5 -28,-12 -43,-17 -11,-4 -19,2 -22,13 -2,9 -3,19 -4,29 -1,9 -3,19 -3,28 -2,20 -2,40 5,58 6,20 22,37 42,41 17,4 35,3 53,1 19,-2 38,-6 58,-10 39,-9 77,-21 116,-31 35,-8 72,-16 109,-14 32,1 65,10 93,27 9,6 17,12 25,18 73,60 133,147 148,242 5,33 4,67 -1,100 -11,63 -32,126 -69,178 -30,42 -70,76 -116,99 -91,45 -198,47 -297,34 -52,-6 -105,-16 -154,-32 -65,-22 -124,-61 -167,-113 -44,-54 -72,-119 -80,-188 -9,-79 -9,-160 -5,-239z"/>
  <path class="fil11" d="M-1585 2648c5,-7 18,-11 26,-14 13,-5 27,-8 40,-12 2,0 5,-1 7,-2 -30,-5 -83,-17 -71,-34 6,-8 19,-11 27,-13 14,-4 28,-6 42,-9 3,0 6,-1 9,-1 -31,-10 -91,-31 -76,-49 6,-8 21,-10 31,-11 15,-2 30,-3 45,-4 3,0 7,0 10,0 -30,-13 -92,-42 -76,-56 8,-6 23,-5 32,-5 15,0 30,2 45,4 4,0 8,1 12,1 -28,-18 -87,-60 -70,-71 9,-6 23,-2 32,0 15,3 29,7 43,11 3,1 6,2 8,3 -19,-18 -39,-37 -55,-58 -4,-5 -17,-19 -6,-24 9,-4 23,3 31,6 13,6 26,13 39,20 3,2 6,3 8,4 -15,-21 -30,-42 -42,-65 -3,-6 -11,-22 2,-22 10,0 20,10 27,15 12,10 23,20 35,30 6,6 13,13 20,19 1,1 1,1 1,2 1,1 0,1 0,2l0 0c-17,20 -27,45 -34,69 -10,31 -17,64 -23,96 -10,61 -17,123 -21,185 0,13 -1,26 -2,40 0,2 -1,3 -3,3 -23,2 -48,6 -72,4 -6,-1 -20,-4 -15,-13 3,-7 15,-11 22,-14 12,-6 24,-10 37,-15 1,0 2,0 3,-1 -30,-1 -77,-5 -68,-21z"/>
  <path class="fil11" d="M-1302 2303c1,-21 3,-44 12,-64 7,-16 25,-32 43,-20 16,11 5,38 -1,51 -7,17 -16,34 -25,50l-1 1 0 0c0,0 -1,1 -2,1 -9,5 -20,4 -25,-7 -1,-4 -1,-8 -1,-12z"/>
  <path class="fil11" d="M-1407 2219c7,-5 14,-5 21,-2 17,7 20,33 22,49 3,17 4,34 4,50l0 1 -1 1c-6,10 -17,11 -26,3 -4,-3 -5,-7 -8,-11 -10,-20 -21,-42 -22,-64 -1,-10 2,-21 10,-27z"/>
  <path class="fil11" d="M-1247 2344c3,-1 7,2 8,7 1,2 1,4 1,6 0,2 -1,4 -3,4 0,0 0,0 -1,0 -1,0 -2,0 -4,-1 -1,-2 -2,-4 -3,-6 -1,-2 -1,-4 -1,-6 1,-2 2,-4 3,-4z"/>
  <path class="fil11" d="M-1326 2382c0,-2 1,-4 3,-4 3,-1 6,2 8,7 2,5 1,9 -2,11 0,0 -1,0 -1,0 -3,0 -6,-3 -7,-7 -1,-3 -1,-5 -1,-7z"/>
  <path class="fil11" d="M-1195 2402c1,-13 4,-29 14,-39 11,-10 28,-5 40,0 26,9 53,23 72,42 11,11 19,26 14,42 -7,19 -25,31 -43,36 -19,6 -40,7 -60,5 -8,-1 -17,-3 -25,-6 -4,-2 -7,-3 -8,-6 -3,-9 -3,-20 -4,-29 -1,-15 -2,-30 0,-45z"/>
  <path class="fil6" d="M-1103 2404c6,0 11,3 13,9 1,4 1,10 -5,10 -5,-1 -10,-4 -12,-10 -2,-4 -2,-10 4,-9z"/>
  <path class="fil6" d="M-1136 2434c6,0 10,5 12,10 1,4 1,11 -5,11 -6,1 -10,-4 -13,-10 -1,-4 -1,-11 6,-11z"/>
  <path class="fil11" d="M-770 2609c31,13 61,32 88,51 58,41 109,94 143,156 24,44 38,92 43,141 1,5 -15,-1 -15,-6 -9,-81 -44,-156 -99,-216 -37,-42 -83,-76 -132,-103 -7,-4 -14,-8 -21,-11 -1,0 -4,-2 -3,-1 2,1 -1,-1 -1,-1 -1,0 -2,-1 -2,-1 -3,-1 -9,-4 -9,-7 1,-4 6,-2 8,-2z"/>
  <path class="fil11" d="M-521 2964c1,-8 1,-20 8,-26 5,-4 13,-2 18,1 14,8 24,26 32,39 8,15 18,31 25,46l0 1 1 0c1,5 9,20 4,25 -4,5 -12,0 -15,-3 -6,-5 -11,-11 -16,-17 -1,20 -6,54 -21,42 -4,-4 -5,-11 -6,-18 -2,5 -5,9 -8,13 -4,5 -12,4 -15,-2 -5,-10 -4,-27 -5,-38 -1,-21 -3,-42 -2,-63z"/>
  <path class="fil11" d="M-1431 2368c5,8 13,16 20,24 12,14 26,27 40,38 33,27 74,52 118,50 4,0 -3,14 -8,15 -45,2 -86,-23 -120,-50 -14,-12 -28,-26 -41,-40 -7,-8 -15,-16 -20,-25 -2,-3 8,-17 11,-12z"/>
  <path class="fil11" d="M-1469 2504c6,5 16,8 23,12 16,6 32,12 49,16 46,11 96,13 142,-2 3,-1 5,-1 5,2 0,3 -7,7 -10,8 -47,15 -98,14 -146,3 -18,-4 -36,-10 -53,-17 -8,-4 -18,-7 -25,-13 -2,-3 11,-13 15,-9z"/>
  <path class="fil11" d="M-1486 2619c54,7 113,6 166,-8 20,-6 40,-14 57,-27 6,-5 20,0 11,7 -32,25 -74,35 -113,39 -35,5 -71,5 -106,2 -7,0 -14,-1 -21,-2 -12,-1 -2,-12 6,-11z"/>
  <path class="fil11" d="M-1210 2635c-17,21 -40,40 -61,57 -38,30 -79,57 -124,74 -25,10 -51,15 -77,15 -3,0 -10,0 -12,-3 -1,-3 1,-5 4,-5 48,1 93,-20 133,-44 36,-22 68,-48 99,-76 7,-8 15,-15 22,-23 3,-4 19,1 16,5z"/>
  <path class="fil11" d="M-1167 2642c-10,34 -24,69 -38,102 -28,63 -62,126 -111,175 -27,27 -58,49 -94,61 -2,0 -10,3 -11,0 -1,-2 3,-4 5,-4 65,-21 111,-80 145,-135 31,-51 56,-105 75,-161 5,-12 9,-24 12,-36 1,-4 18,-6 17,-2z"/>
  <path class="fil11" d="M-1123 2639c-2,44 -8,87 -14,131 -11,80 -26,161 -55,237 -13,34 -30,70 -57,96 -7,6 -19,-6 -12,-13 23,-22 38,-52 49,-80 15,-37 26,-76 35,-115 16,-70 27,-141 34,-213 1,-15 3,-30 4,-45 0,-11 17,-8 16,2z"/>
  <path class="fil11" d="M-1040 2617c6,44 9,88 11,132 4,76 5,156 -14,231 -7,30 -20,63 -47,82 -3,3 -8,1 -10,-2 -2,-5 1,-9 4,-12 21,-14 31,-42 37,-66 10,-34 13,-70 15,-106 4,-70 0,-140 -6,-209 -2,-15 -3,-30 -5,-46 -2,-9 14,-15 15,-4z"/>
  <path class="fil11" d="M-947 2593c19,25 33,55 46,83 26,63 41,132 36,201 -4,48 -17,94 -39,137 -3,7 -20,4 -16,-4 36,-72 46,-153 32,-232 -10,-54 -30,-106 -57,-153 -5,-9 -11,-18 -17,-27 -6,-8 11,-11 15,-5z"/>
  <path class="fil11" d="M-765 2607c15,24 25,52 34,79 21,63 28,130 21,196 -5,48 -18,95 -37,140 -1,2 -4,9 -7,8 -4,0 -2,-5 -1,-7 52,-120 49,-259 -7,-378 -3,-8 -8,-16 -12,-24 -3,-4 6,-18 9,-14z"/>
  <path class="fil11" d="M-604 2876c-6,47 -26,96 -55,133 -14,16 -29,31 -47,42 -10,6 -15,-4 -6,-10 37,-23 60,-61 76,-100 7,-20 14,-41 16,-62 1,-7 18,-12 16,-3z"/>
  <path class="fil11" d="M-645 3180c-19,18 -48,28 -74,21 -7,-2 4,-8 8,-7 20,6 41,-2 56,-16 3,-2 15,-3 10,2z"/>
  <path class="fil11" d="M-654 3286c-17,15 -40,18 -58,4 -4,-3 1,-5 5,-3 14,11 34,5 46,-7 3,-2 10,3 7,6z"/>
  <path class="fil11" d="M-657 3350c-17,8 -38,9 -53,-1 -5,-2 -3,-6 1,-3 13,8 31,5 45,-1 2,-1 9,4 7,5z"/>
  <path class="fil11" d="M-853 3286c-20,14 -49,22 -71,8 -7,-4 -2,-13 5,-8 17,11 41,3 56,-8 5,-4 15,4 10,8z"/>
  <path class="fil11" d="M-857 3348c-17,15 -43,10 -60,0 -3,-2 5,-2 7,-1 14,8 32,11 44,0 2,-2 10,0 9,1z"/>
  <path class="fil11" d="M-1250 3266c-20,1 -50,1 -65,-16 -4,-5 8,-7 12,-3 11,12 35,12 51,11 6,-1 11,7 2,8z"/>
  <path class="fil11" d="M-1255 3342c-18,5 -41,5 -54,-9 -2,-3 3,-10 5,-7 13,13 33,13 50,8 5,-1 2,7 -1,8z"/>
  <path class="fil11" d="M-1366 3193c-21,15 -49,18 -69,0 -5,-4 5,-13 10,-8 11,9 24,12 37,8 4,-1 8,-3 12,-5 2,-1 5,-3 4,-2 7,-5 13,2 6,7z"/>
  <path class="fil11" d="M-1374 3304c-17,7 -49,15 -59,-5 -3,-4 4,-10 6,-5 9,16 37,8 51,3 5,-2 7,6 2,7z"/>
  <path class="fil11" d="M-700 3408c3,-5 7,-9 13,-11 8,-3 20,-5 28,-2l1 0c5,1 9,4 11,10 3,6 1,11 -1,16 -2,7 -3,14 -2,21 1,4 2,7 4,10 1,2 2,4 4,6 2,5 3,10 4,16 1,4 4,9 2,14 -2,9 -13,14 -21,11 -5,-1 -8,-5 -12,-8 -4,-5 -8,-11 -11,-17 -8,-12 -15,-25 -20,-39 -2,-9 -4,-18 0,-27z"/>
  <path class="fil11" d="M-902 3429c3,-5 9,-9 14,-11 9,-3 21,-3 30,0l0 0c5,1 9,5 11,10 3,7 0,12 -2,18 -3,7 -6,15 -5,22 0,4 0,7 2,10 1,2 2,4 3,6 3,5 4,11 6,16 1,5 3,10 2,15 -3,9 -13,13 -22,10 -5,-1 -8,-5 -11,-9 -5,-5 -8,-11 -11,-17 -8,-13 -14,-28 -18,-43 -2,-8 -3,-18 1,-27z"/>
  <path class="fil11" d="M-1293 3408c3,-5 8,-8 13,-10 8,-3 19,-3 28,-1 5,2 9,6 11,11 1,6 -1,11 -3,17 -3,6 -5,13 -5,20 1,6 4,10 6,15 2,5 4,10 6,15 1,4 2,8 1,13 -3,8 -13,12 -21,10 -5,-1 -8,-5 -11,-9 -4,-5 -7,-10 -10,-15 -7,-13 -13,-27 -17,-41 -1,-8 -2,-17 2,-25z"/>
  <path class="fil11" d="M-1406 3390c7,-3 18,-4 26,-3l1 0 1 1c4,1 8,4 10,8 4,5 2,10 0,16 -1,6 -2,13 -1,19 0,4 1,7 2,10 2,2 3,4 5,6 2,4 3,9 4,14 1,4 3,8 3,13 -1,9 -11,14 -20,12 -9,-2 -16,-13 -22,-20 -8,-12 -15,-26 -20,-40 -4,-13 -4,-29 11,-36z"/>
  <path class="fil3" d="M4450 3383c0,31 200,56 445,56 246,0 446,-25 446,-56 0,-32 -200,-57 -446,-57 -245,0 -445,25 -445,57z"/>
  <path class="fil14" d="M4498 2747c18,-33 45,-62 84,-62 16,-1 34,3 48,11 2,1 4,3 4,4 -10,25 -43,35 -66,41 -20,5 -39,9 -59,11 -2,0 -13,-2 -11,-5z"/>
  <path class="fil11" d="M5224 3029c2,10 0,21 -1,31 -1,10 -1,20 -2,31 -4,58 -7,117 -10,175 -1,25 -3,51 -4,76 0,8 -1,16 -1,24 0,6 1,11 5,16 1,2 2,4 3,6 0,6 -6,9 -10,9 -10,1 -15,-13 -18,-20 -8,-22 -12,-45 -15,-68 -14,-92 -9,-187 8,-279 5,-25 41,-28 45,-1z"/>
  <path class="fil11" d="M5106 3028c2,11 0,22 -1,32 0,10 -1,20 -2,30 -3,59 -7,117 -10,176 -1,25 -2,50 -4,76 0,8 -1,16 -1,24 0,6 2,11 5,16 1,2 3,4 3,6 0,5 -5,8 -10,9 -10,1 -15,-13 -17,-20 -9,-21 -13,-45 -16,-67 -14,-93 -9,-188 8,-280 5,-24 41,-29 45,-2z"/>
  <path class="fil11" d="M4798 3020c2,10 0,21 -1,31 0,10 -1,20 -2,31 -3,58 -7,116 -10,175 -1,25 -3,51 -4,76 0,8 -1,16 -1,24 0,6 2,11 5,16 1,2 3,4 3,6 0,6 -6,9 -10,9 -10,1 -15,-13 -17,-20 -9,-22 -13,-45 -16,-68 -14,-92 -9,-188 8,-279 5,-25 41,-28 45,-1z"/>
  <path class="fil11" d="M4658 3012c5,-24 41,-29 45,-2 2,10 0,21 -1,31 -1,11 -1,21 -2,31 -4,58 -7,117 -10,175 -1,26 -3,51 -4,76 0,8 -1,17 -1,25 0,6 1,10 5,16 1,2 2,3 3,6 0,5 -6,8 -10,9 -10,1 -15,-12 -17,-19 -9,-22 -13,-45 -16,-68 -14,-93 -9,-188 8,-280z"/>
  <path class="fil15" d="M4836 2079c1,-12 27,-6 26,7 0,1 0,-2 0,2 0,4 0,7 0,11 1,12 3,24 7,35 11,38 38,69 72,90 -13,-24 -15,-54 -12,-80 0,-4 13,-1 13,4 -3,27 0,62 16,86 12,6 25,11 37,15 -11,-21 -12,-54 -12,-72 0,-5 13,-3 13,1 0,12 1,24 3,35 2,10 4,29 11,40 6,2 12,4 18,6 9,2 17,5 24,8 -5,-12 -7,-27 -9,-38 -3,-14 -5,-29 -6,-44 0,-2 13,0 13,3 1,15 3,29 6,44 2,12 4,28 11,41 9,4 17,8 25,13 -1,-14 4,-31 9,-42 1,-5 14,-1 13,3 -5,12 -11,33 -8,47 1,1 2,1 3,2 32,22 58,54 71,92 6,19 10,40 8,60 -1,12 -27,6 -26,-7 0,0 0,2 0,-2 0,-3 0,-7 0,-11 -1,-12 -3,-23 -6,-34 -12,-39 -39,-71 -74,-92 -27,-17 -56,-24 -86,-33 -29,-9 -56,-21 -80,-38 -33,-22 -59,-54 -71,-91 -7,-20 -11,-41 -9,-61z"/>
  <path class="fil15" d="M5279 2343c5,-3 10,-7 15,-10 4,-15 -3,-35 -8,-48 -1,-3 12,-2 14,2 3,10 8,24 8,37 8,-4 16,-8 24,-12 8,-13 11,-33 13,-46 2,-13 4,-27 5,-40 0,-6 13,-3 13,3 -1,16 -3,32 -6,47 -2,9 -4,19 -7,29 13,-5 26,-8 39,-12 7,-11 10,-28 11,-38 3,-13 4,-26 4,-38 0,-3 13,-1 13,3 0,15 -2,30 -5,44 -1,7 -3,16 -6,24 12,-4 24,-9 35,-15 17,-24 20,-59 18,-87 -1,-5 12,-2 13,2 2,23 0,50 -9,72 29,-19 52,-46 65,-78 7,-19 12,-40 10,-60 -1,-13 25,-9 26,2 6,54 -26,109 -67,141 -21,17 -45,29 -70,38 -31,12 -64,18 -94,34 -38,20 -69,50 -85,90 -6,19 -12,40 -10,60 2,13 -25,9 -26,-2 -5,-55 26,-109 67,-142z"/>
  <path class="fil16" d="M4502 2876c4,-25 11,-50 22,-73 12,-25 31,-45 51,-64 24,-23 51,-43 82,-56 28,-11 58,-16 88,-18 37,-2 75,-4 112,2 38,7 75,19 111,32 34,13 67,27 103,35 19,5 46,12 59,-7 15,-21 18,-50 20,-75 3,-25 3,-51 4,-76 0,-8 0,-15 0,-23 2,-10 -2,-18 -13,-22 -10,-4 -22,-5 -33,-9 -16,-5 -32,-12 -48,-19 -24,-12 -50,-25 -70,-42 -15,-13 -14,-37 7,-42 30,-6 62,-7 92,-11 41,-6 85,-16 126,-6 13,3 29,9 39,19 13,13 21,32 28,49 11,26 20,52 29,78 15,45 29,91 42,137 29,107 48,223 9,330 -29,82 -92,146 -171,183 -62,29 -133,43 -201,37 -40,-3 -74,-21 -110,-37 -80,-36 -160,-72 -248,-83 -28,-3 -52,-5 -76,-22 -18,-15 -31,-35 -40,-56 -21,-50 -23,-108 -14,-161z"/>
  <path class="fil17" d="M5144 2327c0,-2 6,-1 7,-1 14,4 27,12 38,22 24,22 25,53 13,82 -1,3 -8,1 -11,-1 -39,-18 -53,-62 -47,-102z"/>
  <path class="fil17" d="M5228 2434c25,-53 88,-69 141,-60 1,0 8,2 8,5 -6,19 -19,38 -34,51 -32,27 -74,23 -110,8 -3,-1 -6,-3 -5,-4z"/>
  <path class="fil11" d="M5012 2404c10,0 18,8 18,18 0,10 -8,18 -18,18 -10,0 -18,-8 -18,-18 0,-10 8,-18 18,-18z"/>
  <path class="fil6" d="M5180 2461c-3,7 -4,14 -1,15 2,1 7,-3 11,-10 3,-7 4,-14 2,-15 -3,-1 -8,3 -12,10z"/>
  <path class="fil6" d="M4816 2927c13,3 15,17 12,28 -3,10 -11,20 -22,18 -14,-2 -16,-16 -13,-28 4,-10 11,-21 23,-18z"/>
  <path class="fil6" d="M4771 2868c10,3 12,13 9,21 -2,8 -9,15 -17,13 -10,-2 -12,-12 -10,-21 3,-7 9,-15 18,-13z"/>
  <path class="fil6" d="M4613 2850c2,-8 8,-14 17,-12 10,2 12,11 10,19 -3,8 -8,14 -17,12 -10,-1 -13,-10 -10,-19z"/>
  <path class="fil6" d="M4708 2891c8,2 10,11 8,18 -2,7 -8,14 -16,12 -9,-2 -11,-11 -9,-19 3,-7 8,-13 17,-11z"/>
  <path class="fil6" d="M4823 2907c-9,-2 -11,-10 -9,-18 2,-7 8,-13 16,-11 8,2 11,10 8,18 -2,7 -8,13 -15,11z"/>
  <path class="fil6" d="M4739 2915c8,2 11,9 9,17 -2,7 -7,12 -15,11 -9,-2 -12,-10 -10,-18 3,-7 8,-12 16,-10z"/>
  <path class="fil6" d="M4708 2832c8,2 10,11 8,19 -2,7 -8,13 -16,11 -9,-2 -11,-11 -9,-18 3,-8 9,-14 17,-12z"/>
  <path class="fil6" d="M4875 2909c10,2 12,13 9,21 -2,8 -8,15 -17,13 -10,-2 -12,-12 -10,-21 3,-8 9,-15 18,-13z"/>
  <path class="fil6" d="M4915 2938c9,2 12,9 9,17 -2,7 -7,11 -14,10 -9,-2 -12,-9 -10,-17 2,-7 7,-12 15,-10z"/>
  <path class="fil14" d="M5125 2472c0,10 8,18 19,18 10,0 18,-8 18,-18 0,-10 -8,-18 -18,-18 -11,0 -19,8 -19,18z"/>
  <path class="fil3" d="M3332 3535c0,16 57,31 127,33 71,1 129,-10 129,-26 1,-16 -56,-31 -127,-33 -71,-2 -128,10 -129,26z"/>
  <path class="fil3" d="M4608 3535c0,16 56,31 127,33 71,1 129,-10 129,-26 0,-16 -57,-31 -127,-33 -71,-2 -129,10 -129,26z"/>
  <path class="fil18" d="M3623 1368c-13,31 -26,63 -39,94 -3,6 9,6 11,1 13,-31 26,-62 39,-93 3,-7 -9,-7 -11,-2z"/>
  <path class="fil18" d="M3682 1385c-13,37 -25,75 -37,113 -1,3 10,2 12,-2 12,-37 24,-75 36,-113 1,-4 -10,-2 -11,2z"/>
  <path class="fil19" d="M3545 1463c0,0 -59,-64 -30,-103 29,-39 43,25 42,53 -2,28 0,43 0,43l-12 7z"/>
  <path class="fil18" d="M3556 1457c-2,-1 -4,-3 -5,-5l-13 -49c-1,-7 -2,-13 -3,-20 0,-2 -6,0 -5,1 1,12 2,23 4,35 3,13 5,31 16,40 1,2 7,-1 6,-2z"/>
  <path class="fil18" d="M3785 1469c-2,-9 -11,-17 -20,-21 -9,-4 -20,1 -29,5 -26,12 -43,35 -66,51l0 0c1,5 2,10 3,14 1,4 6,7 9,9 0,1 0,1 1,1 2,2 3,3 5,3 18,0 36,-2 53,-7 23,-8 51,-27 44,-55z"/>
  <path class="fil19" d="M3638 1324c-15,0 -28,12 -32,25 -5,15 -1,35 17,36 16,1 28,-11 33,-25 4,-15 1,-35 -18,-36z"/>
  <path class="fil19" d="M3704 1342c-16,-3 -30,11 -34,25 -5,14 -1,35 16,38 16,3 29,-11 34,-25l0 -1 0 0c4,-14 1,-35 -16,-37z"/>
  <path class="fil18" d="M3646 2954c4,-19 1,-35 -9,-37 -8,-2 -52,7 -64,49 -20,74 -91,426 -115,509 -3,9 -7,18 -12,24 -6,6 -11,16 -3,23 13,12 130,-236 203,-568z"/>
  <path class="fil19" d="M3488 3343l39 15c0,0 -53,153 -73,163 -20,11 -14,-21 -8,-27 4,-5 13,-40 19,-60 3,-9 6,-18 8,-28l15 -63z"/>
  <path class="fil18" d="M3686 3076c3,-16 -8,-26 -15,-33 -8,-10 -26,-26 -28,40 -2,63 -100,353 -120,422 -2,7 -6,15 -11,20 -5,5 -10,12 -1,19 13,11 120,-191 175,-468z"/>
  <path class="fil19" d="M3563 3369l37 12c0,0 -61,158 -87,162 -18,2 -13,-13 -8,-15 5,-3 16,-38 16,-38l42 -121z"/>
  <path class="fil18" d="M4711 2795c-11,-36 -28,-71 -55,-98 -4,-5 -9,-9 -14,-13l0 0 0 0 -1 0 0 0c0,-1 -1,-1 -3,-1l0 0 0 0c-3,1 -7,2 -7,4 -4,23 -7,46 -9,69 -1,10 -3,23 -1,32 2,5 2,4 6,6 7,5 14,8 21,13 48,39 58,112 61,170 1,17 1,34 -1,50 0,5 12,3 12,-1 11,-76 13,-156 -9,-231z"/>
  <path class="fil19" d="M4723 2962l0 0c-1,0 -1,0 -2,0 -7,0 -12,2 -13,9 -1,12 0,24 0,36 0,8 -1,17 -1,25 0,3 -1,7 0,10 1,3 11,0 11,-3 4,-13 4,-29 6,-43 0,-5 7,-32 -1,-34z"/>
  <path class="fil18" d="M3514 3333l0 0 0 0zm1157 -635c-48,-86 -135,-138 -229,-162 -76,-20 -153,-21 -230,-19 -74,2 -148,3 -223,1 -32,-1 -64,-2 -96,-6 -12,-2 -25,-5 -34,-7 -15,-3 -29,-10 -42,-16 -29,-12 -51,-29 -62,-60 -7,-21 -7,-45 -10,-67 -3,-36 -7,-72 -11,-108 -15,-150 -30,-300 -44,-449 -6,-54 -11,-108 -16,-161 -1,-15 -3,-30 -4,-46 -2,-31 41,-61 23,-94 -5,-9 -14,-13 -22,-19 -9,-6 -19,-12 -29,-17 -15,-9 -31,-16 -48,-18 -31,-5 -58,8 -79,31 -42,49 -78,105 -123,152 -20,21 -17,51 12,64 20,9 46,3 65,-4 41,-15 79,-40 113,-67 1,-1 3,-3 5,-4 1,-1 2,-1 2,-1l0 0c5,2 8,7 10,12 4,11 5,23 6,34 0,17 1,33 1,49 3,79 5,158 6,237 1,122 0,243 -3,364 -4,141 -10,281 -22,421 -11,136 -26,272 -52,407 -11,58 -23,115 -40,172 0,1 0,1 0,1 1,17 26,25 38,14 9,-8 12,-26 15,-37 14,-47 25,-95 36,-143 4,-19 8,-38 12,-57 1,-5 2,-9 3,-14 1,-2 1,-4 2,-7 1,-3 3,-6 5,-8 3,1 5,2 7,4 22,17 37,46 55,67 20,24 43,47 68,66 28,21 59,37 93,46 32,8 66,7 99,6 40,-2 79,-7 118,-8 51,-1 101,8 150,17 69,12 138,35 209,22 106,-19 181,-104 229,-196 21,-41 39,-85 53,-129 8,-25 18,-52 22,-78 9,-63 -7,-130 -38,-185z"/>
  <path class="fil18" d="M4374 3109c-12,-10 -27,-5 -36,-3 -12,3 -35,11 21,44 55,33 263,257 313,307 6,6 11,13 13,20 2,6 6,14 16,10 16,-6 -111,-197 -327,-378z"/>
  <path class="fil19" d="M4573 3358l29 -28c0,0 108,134 102,151 -6,17 -20,9 -20,3 0,-6 -25,-32 -25,-32l-86 -94z"/>
  <path class="fil18" d="M4497 3085c-12,-10 -27,-5 -37,-3 -12,2 -35,11 22,44 55,32 262,257 313,307 6,6 10,13 12,19 2,7 7,15 17,11 16,-7 -111,-198 -327,-378z"/>
  <path class="fil19" d="M4695 3334l30 -31c0,0 108,140 102,157 -7,17 -21,5 -20,0 0,-6 -25,-32 -25,-32l-87 -94z"/>
  <path class="fil19" d="M3533 1656c-31,-24 -62,-47 -93,-71 -1,-1 -2,-1 -3,-2 -3,-2 -7,-2 -10,0 -18,14 -36,32 -45,53 -13,28 0,58 30,66 42,12 85,-16 121,-34 5,-2 4,-9 0,-12z"/>
  <path class="fil11" d="M3539 1517c-1,0 -3,-1 -5,1 -2,1 -4,3 -5,5 -3,5 -4,10 -1,12 1,0 2,0 3,0 2,0 6,-2 8,-6 1,-2 2,-4 2,-6 1,-4 -1,-5 -2,-6z"/>
  <path class="fil11" d="M3604 1550c-1,-1 -3,-2 -6,0 -1,1 -3,3 -4,5 -4,5 -4,10 -1,12 1,0 2,1 3,1 2,0 5,-3 8,-7 1,-2 2,-4 2,-6 1,-3 -1,-5 -2,-5z"/>
  <path class="fil19" d="M3682 1745c-4,-40 -8,-79 -11,-118 -1,-11 0,-23 -5,-32 -4,-6 -9,-16 -14,-8 -4,8 -3,23 -4,32 -2,17 -3,35 -4,52 -1,17 -2,34 -2,52 -1,13 -3,28 0,41 2,12 13,31 28,29 22,-2 14,-34 12,-48z"/>
  <path class="fil19" d="M3656 2025c1,-19 6,-37 6,-56 1,-17 -9,-30 -26,-31 -16,-1 -27,8 -28,23 0,20 0,39 0,59 0,20 -2,41 0,61 3,32 53,35 56,2 2,-20 -9,-39 -8,-58z"/>
  <path class="fil19" d="M3741 2331c-4,-38 -8,-75 -11,-113 -2,-14 0,-35 -20,-37 -13,0 -18,18 -22,27 -7,20 -13,41 -16,62 -1,7 -1,14 -1,22 0,12 -2,22 -7,33 -7,20 -21,43 -18,64 2,21 24,30 43,32 29,2 49,-19 54,-46 2,-15 0,-30 -2,-44z"/>
  <path class="fil19" d="M3742 2655c-16,-37 -23,-84 -67,-96 -38,-11 -78,12 -82,52 -4,49 -8,99 -12,148 -2,26 -4,53 -6,79 -1,14 -5,28 -6,43 0,19 7,39 28,44 13,2 26,-3 38,-8 25,-12 48,-30 69,-49 32,-28 62,-64 65,-108 2,-37 -13,-72 -27,-105z"/>
  <path class="fil19" d="M4131 2819c-2,-55 -34,-104 -87,-120 -42,-11 -110,0 -125,49 -7,26 3,53 14,76 11,23 25,45 40,65 23,28 59,66 100,56 18,-4 30,-18 38,-34 14,-27 21,-61 20,-92z"/>
  <path class="fil19" d="M4658 2721c-1,-26 -6,-60 -25,-78 -22,-21 -45,-41 -70,-59 -22,-16 -52,-38 -81,-35 -3,0 -9,1 -12,4 -34,14 -77,46 -53,86 14,23 40,41 63,55 17,11 24,30 32,49 12,28 23,65 56,75 21,6 46,-4 61,-18 22,-20 29,-51 29,-79z"/>
  <path class="fil19" d="M3774 3170c-4,-11 -18,-17 -27,-24 -9,-7 -19,-16 -23,-27 -6,-14 -2,-30 -4,-45 -5,-24 -21,-48 -40,-64 -10,-9 -27,-15 -41,-10 -11,4 -16,19 -19,30 -3,12 -5,26 -8,39 -2,14 8,29 16,40 11,15 24,29 39,41 12,9 25,19 37,28 11,9 21,20 36,22 18,3 43,-9 34,-30z"/>
  <path class="fil19" d="M4023 3045c-3,-28 -49,-36 -70,-39l-1 0 0 0c-14,-1 -32,1 -42,11 -10,8 -11,20 -8,31 4,23 18,46 32,63 8,9 18,19 31,17 10,-1 17,-6 20,-16 2,-7 0,-15 3,-22 3,-9 9,-14 17,-19 9,-7 19,-13 18,-26z"/>
  <path class="fil19" d="M4064 2525c-7,-9 -18,-8 -28,-8 -15,-1 -30,-1 -45,-2 -29,-1 -58,-2 -88,-3 -1,0 -2,0 -3,0 -2,0 -3,0 -4,1 -28,8 -7,47 10,58 18,11 41,13 62,14 25,0 52,-1 76,-11 18,-7 38,-30 20,-49z"/>
  <path class="fil19" d="M4289 2516c-18,-5 -38,-3 -56,-4 0,0 -1,0 -1,0 -23,2 -40,22 -53,40 -16,22 -25,50 -21,78 3,27 18,56 38,75 7,7 23,17 33,13 11,-4 14,-21 16,-30 5,-17 8,-34 13,-51 5,-15 11,-32 24,-41 7,-5 16,-5 24,-9 9,-5 15,-14 17,-25 3,-23 -14,-39 -34,-46z"/>
  <path class="fil19" d="M4395 2869c0,-1 0,-1 -1,-2 -1,0 -1,0 -2,0 -20,-11 -44,-22 -67,-21 -48,3 -19,59 -23,87 -3,15 -13,28 -15,44 -3,18 12,33 25,43 30,25 69,6 90,-21 30,-40 30,-94 -7,-130z"/>
  <path class="fil19" d="M4698 2910c-4,-12 -15,-26 -29,-28 -32,-5 -45,42 -51,65 -8,34 -8,69 -13,103 0,1 0,2 0,2 -1,14 9,21 23,21 13,0 18,-15 25,-25 18,-30 33,-64 43,-99 3,-12 7,-26 2,-39z"/>
  <path class="fil19" d="M4236 3221c-28,-29 -65,-55 -104,-67 -29,-10 -60,-6 -78,21 -9,12 -15,28 -17,42 -2,20 16,31 33,33 1,0 2,0 3,0 23,1 44,4 67,8 22,4 44,6 66,10 15,3 34,8 44,-8 9,-15 -4,-28 -14,-39z"/>
  <path class="fil19" d="M4533 3207c-1,-10 -6,-19 -9,-28 -5,-13 -10,-26 -16,-39 -10,-22 -22,-48 -41,-65 -22,-19 -53,-5 -68,17 -8,11 -1,27 3,38 7,19 15,38 17,58 1,12 0,25 -5,36 -5,11 -12,21 -12,34 -1,20 18,25 34,21 1,0 2,-1 3,-1 23,-8 44,-19 64,-32 13,-9 33,-21 30,-39z"/>
  <path class="fil3" d="M2606 3519c51,0 104,9 104,24 0,16 -53,25 -104,25 -52,0 -105,-9 -105,-25 0,-15 53,-24 105,-24z"/>
  <path class="fil20" d="M2677 3061c14,-7 29,-14 44,-20 1,-1 2,1 1,1 -15,7 -30,14 -44,21 -1,0 -3,-2 -1,-2z"/>
  <path class="fil20" d="M2677 3067c15,-1 31,-2 46,-4 1,0 1,2 0,2 -15,2 -31,3 -46,5 -1,0 -1,-2 0,-3z"/>
  <path class="fil20" d="M2677 3074c15,4 31,7 46,11 3,0 5,1 7,1 1,1 1,2 0,2 -16,-3 -32,-7 -47,-10 -2,-1 -5,-1 -7,-2 -1,0 -1,-2 1,-2z"/>
  <path class="fil21" d="M2632 3182c6,-9 23,-8 32,-8 23,0 47,3 69,-6 15,-7 27,-19 40,-30 5,-4 12,-10 20,-8 4,2 7,5 7,10 1,4 -1,9 -3,13 -4,7 -8,13 -13,19 -20,22 -50,33 -79,38 -20,4 -40,5 -60,4 0,0 -1,0 -1,0l-1 -1c-9,-6 -17,-20 -11,-31z"/>
  <path class="fil22" d="M2383 3352c2,-28 10,-55 19,-82 7,-16 14,-31 25,-45 18,-21 40,-39 62,-55 20,-14 40,-27 59,-42 18,-15 28,-39 32,-62 1,-3 1,-7 1,-10 1,-2 1,-2 1,-3 -1,-3 3,-7 7,-6 0,0 1,0 1,0 25,14 50,27 75,41 2,1 2,3 1,5 0,0 0,0 0,1 0,1 -1,2 -1,3 0,3 0,7 0,10 0,11 1,22 2,32 4,30 9,60 17,88 5,18 13,34 18,52 4,13 7,27 10,42 5,31 6,64 -2,95 -8,32 -26,61 -55,77 -41,23 -92,20 -136,12 -42,-8 -87,-25 -113,-61 -19,-27 -25,-60 -23,-92z"/>
  <path class="fil6" d="M2501 3325c6,-14 13,-28 21,-41 5,-7 10,-13 14,-20 16,-25 30,-50 42,-77 4,-7 7,-15 10,-23 3,-8 3,-17 8,-24 7,-13 22,-10 33,-4 8,4 13,11 15,20 3,17 8,34 14,50 6,18 13,35 22,52 13,20 16,46 19,69 4,31 5,63 0,95 -4,24 -10,49 -32,63 -26,16 -58,18 -86,10 -35,-9 -62,-31 -79,-63 -18,-34 -14,-72 -1,-107z"/>
  <path class="fil6" d="M2648 2984c0,0 -29,-11 -48,8 -20,20 -49,38 -32,59 17,21 93,65 105,37 12,-27 13,-69 5,-77 -8,-8 -30,-27 -30,-27z"/>
  <path class="fil21" d="M2604 2983c20,-35 37,-73 51,-111 23,-61 42,-126 38,-192 0,-10 1,-21 9,-28 9,-9 23,-7 33,-1 30,17 33,59 23,89 -17,51 -38,102 -61,151 -13,26 -26,51 -42,75 -8,11 -24,35 -41,30 -6,-1 -9,-6 -10,-12 -1,-1 0,-1 0,-1z"/>
  <path class="fil21" d="M2661 2996l0 0 0 0 0 0c13,-12 25,-25 37,-38 10,-12 20,-25 29,-39 10,-15 17,-30 24,-45 14,-30 26,-61 41,-90 5,-11 11,-22 18,-33 4,-5 8,-13 15,-15 8,-3 18,0 22,8 6,10 5,25 4,36 -2,19 -7,35 -15,51 -20,45 -47,89 -80,126 -15,19 -33,36 -54,48 -9,5 -32,17 -41,5 -3,-4 -1,-10 0,-14z"/>
  <path class="fil21" d="M2561 3456c0,-3 3,-5 6,-5 2,0 5,2 4,9 -1,11 -4,67 -4,80 0,1 0,3 1,4 1,1 1,2 -2,3 -4,1 -15,-40 -5,-91z"/>
  <path class="fil21" d="M2634 3456c1,-3 3,-5 6,-5 3,0 5,2 5,9 -1,11 -4,67 -5,80 0,1 0,3 1,4 1,1 2,2 -1,3 -5,1 -15,-40 -6,-91z"/>
  <path class="fil21" d="M2579 3229c9,2 12,10 15,18 6,19 8,39 15,57 6,16 17,28 30,38 6,4 11,7 16,11 6,4 13,9 15,16 5,15 -21,10 -28,8 -27,-8 -48,-30 -62,-54 -12,-22 -21,-46 -27,-71 -2,-13 12,-26 26,-23z"/>
  <path class="fil21" d="M2566 3022c9,-22 29,-40 52,-46 16,-3 37,-1 51,10 11,8 16,21 18,35 1,8 1,18 -1,26 -1,3 -5,1 -6,0 -3,-6 -7,-8 -12,-4 -6,4 -10,11 -13,17 -6,9 -10,19 -14,29 -1,2 -3,1 -5,1 -3,-2 -6,-4 -9,-6 -3,-2 2,-7 3,-9 1,-5 1,-11 1,-16 0,-8 -1,-16 -2,-23 -1,-10 -7,-18 -17,-19 -9,-2 -18,0 -26,2 -5,2 -11,4 -15,6 -1,0 -2,0 -3,0 -1,0 -3,-1 -2,-3z"/>
  <path class="fil11" d="M2647 3087l0 0 0 0c-1,12 -26,10 -26,-1 0,-12 25,-10 26,1z"/>
  <path class="fil21" d="M2344 3282c8,-12 24,-20 38,-18 18,2 30,17 31,34 -1,32 -44,51 -66,25 -10,-11 -11,-28 -3,-41z"/>
  <path class="fil6" d="M2673 2995l0 -1c1,-5 9,-9 13,-12 7,-7 15,-14 22,-21 17,-17 34,-36 48,-57 13,-19 21,-41 30,-63 7,-18 14,-39 25,-56 4,-7 15,-17 23,-7 6,8 1,23 -2,31 -5,19 -13,36 -22,54 -9,19 -20,38 -32,56 -13,20 -29,37 -48,51 -12,9 -24,17 -36,25 -4,2 -8,7 -13,7 -3,0 -8,-3 -8,-7l0 0z"/>
  <path class="fil6" d="M2625 2965c16,-35 31,-71 45,-107 11,-28 22,-57 30,-86 3,-13 6,-26 8,-39 1,-5 1,-10 1,-16 0,-6 1,-13 4,-19 6,-7 15,-3 21,2 9,9 13,23 13,35 0,6 -2,15 -3,21 -4,18 -12,34 -20,50 -10,23 -20,46 -33,67 -11,20 -23,40 -35,60 -5,9 -10,18 -15,27 -2,4 -5,10 -8,12 -4,1 -11,-3 -8,-7z"/>
  <path class="fil11" d="M2599 3047c0,3 -2,5 -3,5 -1,0 -1,-3 -1,-6 0,-3 2,-5 3,-5 1,0 1,3 1,6z"/>
  <path class="fil11" d="M2598 3042c0,0 0,2 0,5 0,2 -1,4 -2,4 0,0 0,-2 0,-5 0,-2 1,-4 2,-4zm-2 11c2,0 4,-3 4,-6 1,-3 0,-7 -2,-7 -1,0 -2,0 -3,2 0,1 -1,3 -1,4 -1,3 0,7 2,7l0 0z"/>
  <path class="fil11" d="M2674 3069c-1,3 -2,6 -3,6 -1,-1 -2,-3 -2,-6 1,-3 2,-6 3,-5 1,0 2,2 2,5z"/>
  <path class="fil11" d="M2672 3065c1,0 1,2 1,4 -1,3 -2,4 -2,5 0,-1 -1,-2 -1,-5 1,-3 2,-4 2,-4zm-1 11c2,0 3,-3 4,-6 0,-2 0,-4 0,-5 -1,-2 -2,-2 -3,-2 0,0 -1,0 -2,2 -1,1 -1,2 -2,4 0,3 0,6 3,7l0 0z"/>
  <path class="fil20" d="M2583 3030c-13,-7 -25,-15 -38,-22 -2,-1 -3,-2 -5,-3 -1,-1 0,-2 1,-2 12,7 25,15 38,22 1,1 3,2 5,3 1,1 0,3 -1,2z"/>
  <path class="fil20" d="M2583 3037c-16,-3 -31,-6 -47,-10 -1,0 -1,-2 1,-2 15,4 31,7 46,10 2,0 1,2 0,2z"/>
  <path class="fil20" d="M2583 3044c-17,1 -33,3 -49,5 -3,0 -5,0 -7,1 -2,0 -2,-2 0,-2 16,-2 32,-4 49,-6 2,0 4,0 7,0 1,-1 1,1 0,2z"/>
  <path class="fil3" d="M2894 3510c39,-6 91,-9 146,-9 55,0 107,3 146,9 42,7 62,15 62,24 0,10 -20,18 -62,24 -39,6 -91,10 -146,10 -55,0 -107,-4 -146,-10 -42,-6 -62,-14 -62,-24 0,-9 20,-17 62,-24z"/>
  <path class="fil23" d="M3073 3458c13,-2 26,-4 39,-5 1,-1 3,0 3,0 2,16 3,32 5,48 2,10 3,20 6,30 0,1 1,3 2,4 0,2 1,3 1,4 1,3 -1,5 -3,7 -7,4 -17,6 -25,5 -3,0 -7,0 -9,-2 -2,-2 -1,-5 2,-6 3,-1 7,-1 11,-2 1,-1 3,-1 4,-3 1,-1 0,-3 -1,-5 -4,-7 -8,-14 -12,-22 -8,-17 -16,-34 -24,-51l0 -1c0,-1 0,-1 1,-1z"/>
  <path class="fil23" d="M2928 3512c2,-3 6,-3 8,-2 4,1 8,4 11,5 4,0 3,-5 3,-8 1,-9 3,-17 4,-26 3,-18 6,-35 9,-52 1,-1 3,-1 4,-1 10,9 20,18 30,27l0 0 0 0 0 0 0 0c-8,14 -15,28 -22,42 -4,8 -8,16 -10,25 0,2 0,5 -2,6 -3,2 -7,1 -10,1 -8,-2 -16,-6 -22,-11 -2,-2 -4,-4 -3,-6z"/>
  <path class="fil4" d="M2942 3138c-8,-9 -17,-18 -26,-27 -2,-2 1,-4 2,-3 9,9 18,19 27,28 1,1 -1,4 -3,2z"/>
  <path class="fil4" d="M2942 3146c-14,-7 -28,-13 -42,-20 -2,0 0,-3 2,-2 14,6 28,12 42,19 2,1 0,4 -2,3z"/>
  <path class="fil4" d="M2939 3152c-13,-4 -26,-8 -38,-12 -2,-1 -1,-4 1,-3 12,4 25,7 37,11 3,1 2,4 0,4z"/>
  <path class="fil24" d="M2909 3196c3,3 5,6 7,8 5,4 10,7 16,10 9,4 20,7 31,9 5,0 11,0 16,1 3,0 5,2 6,3 4,4 3,9 0,13 -3,3 -5,6 -7,9 -2,2 -3,4 -5,6 -4,4 -11,4 -16,3l0 0 -1 0c-11,-7 -21,-14 -32,-22 -7,-5 -14,-11 -21,-18 -4,-3 -9,-9 -9,-14 0,-9 8,-13 15,-8z"/>
  <path class="fil25" d="M3123 2975c-16,-16 -33,-34 -40,-56 -9,-31 -1,-67 14,-95 16,-29 42,-52 68,-73 11,-9 23,-17 33,-27 8,-8 16,-17 20,-28 2,-7 2,-14 4,-21 2,-9 5,-19 8,-28 7,-17 16,-33 30,-44 13,-11 30,-15 47,-12 18,4 38,16 49,32 23,33 -5,75 -23,103 -15,23 -31,45 -45,68 -7,12 -11,25 -12,39 -1,33 13,65 25,95 17,38 35,76 49,116 8,23 14,45 19,68 4,21 7,43 7,64 -1,31 -12,61 -30,85 -18,24 -41,42 -66,56 -37,21 -78,36 -120,44 -3,0 -5,1 -7,1 -9,2 -18,4 -26,3 -4,-1 -9,-3 -10,-8 -1,-2 0,-4 1,-6 5,-11 11,-21 15,-31 20,-41 36,-83 48,-127 4,-15 8,-32 10,-48 4,-36 0,-75 -18,-108 -12,-24 -31,-43 -50,-62z"/>
  <path class="fil23" d="M2946 3273c10,-14 20,-28 30,-42 3,-4 6,-9 8,-12 2,-3 3,-4 4,-7 2,-7 0,-15 -7,-17 -6,-1 -11,-2 -16,-3 -9,-3 -17,-7 -25,-12 -10,-7 -23,-18 -20,-31 2,-9 7,-16 13,-21 20,-18 44,-39 72,-38 32,0 50,32 57,59 0,3 1,5 1,7 10,27 22,54 43,73 13,13 29,22 42,35 22,22 37,52 48,80 6,14 8,28 6,42 -5,29 -28,53 -54,66 -28,15 -61,20 -93,20 -32,0 -66,-5 -95,-20 -25,-13 -47,-34 -52,-63 -9,-42 16,-82 38,-116z"/>
  <path class="fil6" d="M2983 3184c0,0 51,-30 47,-9 -3,21 97,171 76,223 -21,51 -84,69 -105,63 -19,-5 -124,-45 -69,-152 14,-29 42,-49 54,-70 11,-20 -6,-46 -3,-55z"/>
  <path class="fil26" d="M2924 3168c0,0 0,0 1,0 13,-6 27,-14 36,-26 8,-11 22,-17 36,-18 14,-1 30,4 34,19 3,14 6,30 3,44 -4,19 -23,26 -40,26 -3,1 -6,0 -7,-2 -3,-5 -8,-7 -13,-7 -7,0 -14,-2 -20,-5 -13,-5 -28,-14 -31,-29l0 0c0,-1 0,-1 1,-2z"/>
  <path class="fil23" d="M3028 3089c3,-6 7,-12 12,-16 0,0 2,-1 3,0 10,18 6,42 -7,59l0 0c-1,1 -2,1 -3,0 -7,-13 -11,-29 -5,-43z"/>
  <path class="fil23" d="M2993 3079c0,-2 0,-4 1,-6 0,-1 2,0 3,0 13,10 23,27 24,44 0,1 -1,1 -2,1 -10,0 -18,-5 -22,-14 -4,-7 -4,-16 -4,-25z"/>
  <path class="fil4" d="M2920 3156l0 0 0 0c1,-5 9,-6 12,-6 3,-1 8,-1 10,2 1,2 0,4 -1,6 -1,3 -4,7 -7,10 -1,1 -2,2 -4,3 6,4 16,9 20,0 1,-1 4,-1 4,0 -2,2 -5,5 -8,6 -7,2 -14,-1 -20,-6l0 0c-1,0 -1,0 -2,-1 -4,-3 -4,-10 -4,-14z"/>
  <path class="fil26" d="M3033 3132l0 0c-2,-10 -3,-20 1,-30 1,-3 2,-6 5,-8 0,-1 2,-1 3,0 4,7 2,16 0,23 -1,5 -3,10 -5,15l-1 0c0,1 -2,1 -2,0l0 0 -1 0 0 0 0 0 0 0z"/>
  <path class="fil26" d="M2997 3091c0,-1 2,-1 3,0 6,2 10,8 12,14 2,4 4,8 5,12 0,1 -2,1 -3,1 -11,-4 -17,-16 -17,-27z"/>
  <path class="fil4" d="M3025 3143c16,-4 32,-7 48,-11 2,-1 3,3 1,3 -16,4 -32,8 -48,12 -2,0 -3,-3 -1,-4z"/>
  <path class="fil4" d="M3026 3159c17,-3 34,-5 51,-7 3,0 5,-1 8,-1 2,0 2,3 0,3 -17,2 -35,5 -52,7 -2,0 -5,1 -7,1 -3,0 -3,-3 0,-3z"/>
  <path class="fil4" d="M3026 3168c16,6 32,12 48,17 2,1 1,4 -1,4 -16,-6 -32,-12 -48,-18 -2,0 -1,-4 1,-3z"/>
  <path class="fil11" d="M3007 3149c1,2 2,4 2,4 1,0 2,-2 1,-5 0,-2 -1,-4 -2,-4 -1,0 -1,2 -1,5z"/>
  <path class="fil11" d="M3009 3155l1 0c0,0 1,-1 2,-3 0,-1 0,-2 0,-4 0,-3 -2,-6 -4,-6 -2,1 -3,4 -2,7 0,1 0,4 2,5 0,1 1,1 1,1z"/>
  <path class="fil23" d="M3005 3246c4,1 8,3 12,4 4,1 8,1 12,1 8,1 16,0 24,-2 12,-2 24,-6 35,-11 2,-1 3,-2 5,-2 3,0 7,2 9,3 5,4 4,9 2,13 -3,6 -7,13 -6,20 0,3 1,6 1,9 0,2 -3,3 -5,3 -3,1 -6,1 -8,1 -1,0 -1,0 -1,0 -16,-1 -32,-4 -48,-7 -11,-3 -22,-5 -32,-9 -4,-2 -7,-4 -10,-6 -3,-3 -4,-6 -4,-10 0,-8 8,-9 14,-7z"/>
  <path class="fil3" d="M346 3413c0,84 277,152 620,152 343,0 621,-68 621,-152 0,-85 -278,-153 -621,-153 -343,0 -620,68 -620,153z"/>
  <path class="fil27" d="M1589 3099c-23,-47 -60,-86 -108,-109 -68,-34 -143,-24 -216,-18 -79,6 -158,16 -236,15 -59,0 -117,-10 -168,-39 -14,-8 -27,-17 -39,-26 -7,-5 -14,-11 -20,-16 -6,-6 -15,-12 -20,-19 -5,-6 -3,-21 -4,-29 -1,-8 -2,-16 -4,-23 -2,-14 -7,-27 -13,-39 -21,-42 -64,-64 -109,-66 -46,-3 -91,9 -134,24 -16,6 -32,12 -47,19 -5,2 -10,5 -14,7 -2,0 -5,1 -7,2 -4,4 -2,15 -2,20 -1,14 -1,27 -2,41 -2,27 -5,54 -9,80 -8,51 -19,101 -32,150 -19,71 -43,140 -72,208 -4,10 -10,20 -14,31 -5,16 -9,33 -11,49 -11,69 -3,142 35,202 14,23 32,46 55,62 25,17 55,21 84,17 18,-3 38,-7 50,-21 7,-8 16,-19 9,-30 -8,-13 -24,-13 -37,-15 -14,-2 -27,-6 -39,-12 -34,-17 -50,-54 -54,-90 -5,-36 -6,-76 12,-109 3,-6 16,-30 24,-28 4,1 9,6 12,8 5,4 10,8 15,11 26,20 53,39 81,55 29,17 59,33 90,43 19,5 41,10 60,5l-1 0c-14,18 -29,36 -45,53 -41,47 -83,92 -123,140 -8,9 -16,18 -23,28 -6,7 -16,16 -17,26 -1,12 7,24 18,30 13,9 28,8 41,0 16,-8 30,-21 43,-35 15,-15 29,-32 42,-49 17,-23 35,-44 56,-64 56,-51 131,-101 210,-98 10,0 20,3 30,4 6,0 20,-1 24,5l0 1c0,1 -1,2 -2,2 -2,3 -7,4 -10,6 -6,2 -12,5 -17,8 -27,16 -51,44 -34,76 5,10 16,18 27,14 12,-4 22,-16 30,-25 11,-11 21,-23 35,-29 9,-4 19,-7 28,-10 29,-10 59,-18 89,-25 13,-3 27,-6 41,-8 4,0 9,0 14,0 2,0 3,0 4,1 -1,3 -3,12 -4,13 -5,8 -12,15 -19,20 -7,4 -15,8 -22,11 -21,9 -41,21 -60,34 -24,17 -51,40 -58,70 -5,22 5,50 31,50 12,0 24,-5 35,-10 14,-7 28,-15 41,-24 21,-14 42,-28 65,-38 34,-13 69,-25 103,-36 33,-10 66,-18 100,-25 38,-9 77,-25 110,-46 17,-11 33,-24 47,-39 3,-4 6,-7 11,-10 0,0 1,0 1,0l1 0c0,2 1,5 1,8 0,6 -1,12 -1,19 -2,16 -7,31 -18,44 -19,23 -49,36 -76,47 -45,18 -92,31 -140,40 -35,7 -71,12 -106,19 -36,8 -71,21 -104,39 -10,6 -20,12 -30,18 -9,6 -23,12 -28,21 -5,8 -8,18 -11,27 -8,22 -17,52 -4,74 7,11 19,18 31,21 13,2 29,3 39,-6 17,-14 7,-48 8,-67 1,-12 3,-23 13,-30 7,-6 17,-9 26,-12 63,-22 130,-34 195,-49 52,-13 102,-30 151,-51 54,-23 128,-63 130,-130 1,-30 0,-60 1,-90 1,-25 3,-49 5,-73 6,-84 -3,-174 -40,-250z"/>
  <path class="fil6" d="M460 2833l2 -3c4,-6 45,-60 67,23 18,65 25,-27 31,-20 5,7 20,43 44,32 14,-7 24,-16 30,-23 2,-2 5,0 5,3 -1,14 5,27 16,24 16,-4 6,-32 30,-55 26,-24 78,-8 77,13 -1,20 -13,75 -67,178 -53,103 -14,188 8,211 21,23 134,293 -97,236l0 0c-8,-1 -225,-26 -164,-188 63,-165 52,-80 51,-165 -1,-85 -60,-198 -33,-266z"/>
  <path class="fil27" d="M675 3172c5,14 11,27 19,38 3,5 7,9 10,13 19,32 31,71 38,107 7,38 8,90 -27,114 -37,26 -87,11 -127,3 -44,-8 -90,-24 -122,-56 -19,-19 -30,-44 -31,-71 0,-17 3,-35 9,-51 8,-22 17,-44 26,-65 8,-18 17,-35 25,-52 4,-8 3,-16 3,-25 -1,-12 -1,-24 -2,-35 -1,-23 -5,-46 -11,-68 -10,-44 -25,-88 -28,-133 -2,-20 -1,-39 6,-57 5,-11 19,-24 31,-25 13,-1 21,15 25,25 5,12 6,30 15,40 10,13 17,-6 20,-14 2,-7 3,-14 5,-21 2,4 5,8 7,10 7,10 16,20 29,20 8,0 14,-4 21,-8 4,-3 9,-6 13,-10 2,-2 4,-4 6,-6 1,3 1,10 2,12 1,3 2,8 5,10 5,4 12,5 17,3 5,-2 7,-7 9,-12 3,-10 5,-20 10,-29 12,-22 35,-30 58,-23 14,4 24,12 22,27 -4,26 -12,51 -22,75 -8,22 -18,44 -28,65 -12,24 -25,48 -33,74 -13,41 -14,85 0,125zm-134 -298c-1,1 -1,0 0,0zm21 -40c0,-1 2,0 0,0zm150 146c20,-41 39,-84 50,-129 2,-9 6,-22 2,-31 -7,-16 -31,-20 -46,-20 -24,1 -43,14 -51,37 -3,8 -3,21 -9,28 -8,9 -14,-6 -15,-13 -1,-4 1,-9 -4,-12 -8,-4 -15,9 -20,13 -6,4 -12,9 -19,11 -8,3 -15,-1 -20,-7 -7,-6 -10,-15 -16,-22 -2,-3 -5,-6 -8,-3 -3,1 -4,6 -4,8 -2,6 -3,12 -5,18 -1,5 -5,11 -6,16l0 0c-1,-1 -1,-1 -1,-2 -3,-4 -4,-8 -5,-12 -6,-18 -11,-44 -30,-52 -11,-5 -22,-1 -31,5 -7,5 -14,12 -18,20 -18,48 0,104 12,151 7,28 15,57 19,86 3,19 2,37 3,56 1,6 2,12 1,18 -1,5 -4,9 -6,13 -19,35 -34,73 -48,111 -12,34 -14,71 6,103 16,26 42,44 69,57 23,10 48,17 73,22 23,5 47,10 71,11 27,2 57,-3 76,-24 17,-19 21,-45 21,-69 0,-27 -7,-55 -15,-81 -6,-21 -14,-42 -25,-61 -3,-6 -8,-11 -12,-16 -11,-15 -18,-33 -23,-51 -6,-26 -8,-53 -4,-80 6,-36 22,-67 38,-99z"/>
  <path class="fil27" d="M448 2794c0,0 52,-30 78,31 0,0 6,63 17,49 11,-14 10,-49 20,-36 10,14 29,51 67,6 0,0 4,-7 6,4 1,11 8,50 21,40 12,-11 16,-69 29,-77 12,-8 28,-16 47,-15 19,0 34,29 30,16 0,0 -13,-151 -154,-148 0,0 -167,-25 -161,130z"/>
  <path class="fil11" d="M620 2824c-14,-1 -29,-1 -44,-1 -7,0 -21,2 -21,12 1,8 11,18 16,24 6,6 12,13 21,15 17,4 42,-18 47,-34 5,-13 -9,-15 -19,-16z"/>
  <path class="fil11" d="M652 2891c-21,14 -45,5 -59,-15l1 0c0,-4 0,-7 1,-10 0,0 -4,0 -4,1 0,2 -1,5 -1,8l-1 0c-13,23 -40,21 -60,8 -2,-1 -4,2 -1,3 21,14 48,16 63,-6 16,20 41,29 64,14 2,-1 -1,-4 -3,-3z"/>
  <path class="fil11" d="M720 2724c3,9 6,18 8,27 3,14 8,30 4,44 0,1 3,2 3,1 3,-14 -1,-30 -4,-43 -2,-10 -5,-19 -9,-29 0,-1 -3,-1 -2,0z"/>
  <path class="fil28" d="M695 2736c-12,-16 -30,-30 -52,-27 -16,-1 -15,32 -16,42 -1,13 -3,27 6,38 12,15 37,8 51,1 11,-5 20,-14 20,-27 1,-9 -4,-19 -9,-27z"/>
  <path class="fil28" d="M579 2704c-21,-7 -41,6 -55,21 -15,17 -17,37 2,53 14,11 41,24 55,6 8,-9 8,-22 9,-34 1,-12 7,-43 -11,-46z"/>
  <path class="fil11" d="M538 2735c-2,-1 -7,1 -7,3 5,16 20,28 37,26 1,0 5,-1 4,-3 -3,-16 -19,-25 -34,-26z"/>
  <path class="fil6" d="M556 2752c-2,4 -5,6 -7,5 -1,-1 0,-4 2,-8 3,-4 6,-6 7,-5 1,1 1,5 -2,8z"/>
  <path class="fil11" d="M694 2743l-1 0c-16,-2 -37,4 -44,21 0,0 0,0 1,0 18,5 36,-5 44,-21l0 0z"/>
  <path class="fil6" d="M667 2756c2,4 4,6 6,6 1,-1 1,-5 -1,-9 -1,-4 -4,-7 -5,-6 -2,1 -2,4 0,9z"/>
  <path class="fil27" d="M562 2664c-7,-27 -30,-46 -58,-38 -16,5 -27,16 -25,34 2,10 7,21 14,30 0,1 1,1 2,1l1 0c21,-9 43,-17 65,-25 1,0 1,-1 1,-2z"/>
  <path class="fil27" d="M742 2645c-15,-13 -32,-10 -48,1 -11,8 -22,18 -31,29 -1,0 0,1 0,2l1 0c21,17 43,33 65,49 0,0 1,1 2,0 23,-21 39,-57 11,-81z"/>
  <path class="fil11" d="M502 2659c7,4 14,8 20,12 3,1 2,-1 0,-2 -6,-4 -13,-8 -20,-12 -2,-1 -1,1 0,2z"/>
  <path class="fil11" d="M507 2645c8,7 16,15 24,22 1,1 5,-1 3,-2 -8,-7 -16,-15 -24,-22 -1,-1 -5,1 -3,2z"/>
  <path class="fil11" d="M721 2650c-9,8 -19,16 -28,23 -2,2 2,2 3,1 9,-8 18,-16 27,-24 2,-2 -1,-1 -2,0z"/>
  <path class="fil11" d="M723 2664c-5,3 -9,6 -14,10 -1,1 2,3 3,2 5,-3 10,-6 14,-10 2,-1 -2,-3 -3,-2z"/>
  <path class="fil11" d="M493 2721c-15,23 -21,55 -7,80 1,0 3,0 2,0 -14,-25 -8,-57 7,-80 1,0 -1,-1 -2,0z"/>
  <path class="fil11" d="M631 2711c-3,15 -5,30 -6,45 -2,23 -2,50 8,72 1,1 5,-1 4,-2 -11,-22 -10,-49 -8,-74 1,-14 3,-28 6,-42 0,-1 -3,0 -4,1z"/>
  <path class="fil11" d="M535 2789c-3,10 -2,21 5,28 2,1 5,-1 3,-3 -6,-6 -6,-16 -4,-24 1,-2 -3,-3 -4,-1z"/>
  <path class="fil11" d="M563 2827c24,-34 33,-80 28,-121 0,0 -4,1 -4,1 5,41 -4,87 -28,121 1,-1 3,0 4,-1z"/>
  <path class="fil11" d="M669 2802c-1,7 -2,17 -7,22 -1,1 2,2 3,1 5,-5 6,-15 7,-23 0,-1 -3,-1 -3,0z"/>
  <path class="fil11" d="M581 2694c8,-13 22,-20 30,-2 1,0 2,2 2,1 10,-9 27,-18 33,2 0,1 2,3 2,2 -3,-9 -7,-18 -17,-17 -8,0 -15,6 -20,11 1,0 1,1 2,1 -4,-7 -9,-16 -19,-14 -6,2 -12,8 -15,13 -1,1 1,3 2,3z"/>
  <path class="fil11" d="M487 2841c-38,4 -75,8 -112,11 -2,0 0,5 2,4 37,-3 74,-7 111,-11 2,0 0,-4 -1,-4z"/>
  <path class="fil11" d="M509 2851c-40,18 -81,36 -121,54 -1,1 1,4 2,4 41,-19 82,-37 122,-55 1,0 -2,-4 -3,-3z"/>
  <path class="fil11" d="M500 2871c-29,20 -57,39 -85,59 0,0 2,2 3,2 29,-20 57,-40 85,-59 0,0 -2,-3 -3,-2z"/>
  <path class="fil11" d="M731 2836c40,-4 80,-9 120,-13 3,0 3,-2 0,-2 -40,4 -80,8 -120,12 -3,1 -3,3 0,3z"/>
  <path class="fil11" d="M729 2852c35,2 70,4 105,6 1,0 0,-4 -1,-4 -35,-2 -70,-3 -105,-5 -1,0 0,3 1,3z"/>
  <path class="fil11" d="M730 2863c24,14 49,29 73,44 1,0 4,0 2,-1 -25,-15 -49,-29 -73,-44 -2,-1 -4,-1 -2,1z"/>
  <path class="fil11" d="M510 2909c-9,9 -19,18 -28,26 -1,2 2,4 3,3 9,-9 19,-17 28,-26 2,-1 -1,-4 -3,-3z"/>
  <path class="fil11" d="M545 2923c-3,6 -5,12 -8,19 0,2 3,4 4,2 2,-7 5,-13 7,-19 1,-2 -2,-5 -3,-2z"/>
  <path class="fil11" d="M575 2937c0,15 1,37 13,49 1,2 3,-1 1,-3 -10,-10 -11,-32 -11,-45 0,-2 -4,-4 -3,-1z"/>
  <path class="fil11" d="M608 2941c1,0 1,4 2,4 0,3 1,6 2,9 3,6 6,11 12,14 2,1 3,-2 1,-3 -6,-4 -9,-11 -11,-17 -1,-3 -1,-7 -3,-9 -2,-2 -4,0 -3,2z"/>
  <path class="fil11" d="M626 2932c6,7 10,16 16,24 0,1 4,-1 3,-2 -5,-8 -10,-17 -16,-24 0,-1 -4,1 -3,2z"/>
  <path class="fil11" d="M677 2930c6,6 12,12 18,18 1,1 5,1 4,0 -6,-6 -13,-12 -19,-19 -1,0 -5,0 -3,1z"/>
  <path class="fil11" d="M723 2911c9,4 18,8 27,11 2,1 3,-2 1,-3 -9,-4 -18,-7 -27,-11 -2,-1 -4,3 -1,3z"/>
  <path class="fil11" d="M825 2927c-19,16 -37,35 -52,55 -27,36 -48,79 -47,125 0,2 4,7 4,3 -1,-47 22,-90 50,-126 14,-18 31,-37 49,-52 2,-1 -1,-7 -4,-5z"/>
  <path class="fil11" d="M865 2952c-33,35 -57,83 -72,128 -14,46 -16,91 -13,139 2,30 5,62 3,92 0,2 -1,5 -1,7 0,3 0,-1 1,1 1,1 1,2 1,0 -1,-3 -6,-4 -5,1 1,3 4,7 7,4 3,-3 2,-10 2,-13 1,-12 1,-25 0,-37 -2,-52 -9,-103 2,-154 8,-40 23,-79 44,-114 10,-17 22,-34 36,-48 2,-2 -3,-8 -5,-6z"/>
  <path class="fil11" d="M1029 2990c-14,33 -13,74 -7,109 6,37 24,70 35,106 10,31 16,64 17,96 0,15 0,29 -2,43 0,3 5,7 6,3 6,-38 0,-79 -9,-116 -4,-17 -9,-34 -15,-51 -8,-19 -16,-37 -21,-57 -8,-29 -11,-59 -7,-88 1,-14 3,-28 8,-40 2,-3 -4,-8 -5,-5z"/>
  <path class="fil11" d="M1134 2989c-2,22 -1,44 1,65 4,48 17,95 41,137 0,1 7,-2 6,-3 -23,-42 -37,-89 -41,-137 -2,-21 -3,-43 0,-65 0,1 -6,1 -7,3z"/>
  <path class="fil11" d="M964 3141c9,19 15,41 20,62 12,46 14,95 4,142 -1,5 6,4 6,1 11,-48 9,-97 -2,-144 -6,-22 -12,-45 -23,-65 -1,-4 -7,0 -5,4z"/>
  <path class="fil11" d="M864 3232c15,24 13,63 9,90 -5,31 -17,61 -23,92 -2,12 -5,26 -3,39 1,4 2,8 6,9 4,2 6,-3 1,-5 2,1 1,1 1,0 0,-2 -1,-5 -1,-7 -2,-16 3,-33 6,-48 12,-49 31,-98 18,-149 -1,-8 -4,-16 -8,-23 -2,-3 -9,-1 -6,2z"/>
  <path class="fil11" d="M1206 3074c14,25 27,51 39,77 23,50 45,102 57,156 6,26 10,54 6,82 0,2 7,3 8,0 7,-51 -11,-105 -28,-152 -17,-47 -38,-92 -60,-136 -5,-9 -10,-19 -15,-28 -1,-2 -9,-1 -7,1z"/>
  <path class="fil11" d="M1371 3323c14,48 62,85 107,101 27,11 56,15 86,16 2,0 7,-4 2,-4 -73,-2 -149,-32 -183,-101 -2,-4 -4,-9 -5,-14 -1,-2 -8,0 -7,2z"/>
  <path class="fil11" d="M1382 2970c-12,39 -3,85 18,119 1,2 8,1 7,-2 -21,-33 -30,-78 -18,-116 1,-3 -6,-3 -7,-1z"/>
  <path class="fil11" d="M1531 3029c-18,46 -20,99 -16,147 5,44 19,85 33,126 6,20 12,39 19,59 1,3 2,7 3,10 1,2 8,2 7,1 -6,-19 -12,-38 -18,-57 -13,-40 -29,-81 -35,-123 -5,-37 -4,-74 1,-111 3,-17 7,-35 13,-51 0,-1 -7,-3 -7,-1z"/>
  <path class="fil11" d="M1454 3169c-2,21 -1,42 2,62 4,34 15,70 43,91 2,2 7,0 7,0 -28,-21 -39,-58 -43,-92 -3,-20 -3,-41 -1,-61 0,-1 -7,-1 -8,0z"/>
  <path class="fil11" d="M1617 3492c-14,0 -29,0 -43,0 -5,0 -4,5 0,5 14,0 29,1 43,1 5,0 4,-6 0,-6z"/>
  <path class="fil11" d="M1550 3516c8,9 15,19 22,28 2,2 6,3 3,-1 -7,-9 -14,-18 -21,-28 -2,-2 -7,-3 -4,1z"/>
  <path class="fil11" d="M1477 3592c0,9 0,18 0,27 0,3 6,7 6,3 0,-9 0,-18 0,-27 0,-4 -6,-7 -6,-3z"/>
  <path class="fil11" d="M1318 3654c9,10 17,21 26,31 1,1 6,1 4,-2 -9,-10 -17,-20 -26,-30 -1,-2 -6,-1 -4,1z"/>
  <path class="fil11" d="M1209 3661c5,12 4,28 4,41 0,2 6,3 6,2 0,-13 1,-29 -4,-42 0,-1 -6,-2 -6,-1z"/>
  <path class="fil11" d="M1122 3701c0,15 0,29 0,44 0,2 7,0 7,-2 0,-15 0,-30 0,-44 0,-3 -7,0 -7,2z"/>
  <path class="fil11" d="M1107 3783c-1,-1 -2,-2 -4,-2 -3,-1 -6,-1 -10,-2 -19,-4 -38,-8 -57,-13 -1,0 -4,0 -4,2 -9,25 -16,65 4,87 13,14 38,18 55,11 17,-7 22,-26 22,-42 0,-14 -2,-28 -6,-41z"/>
  <path class="fil11" d="M433 2969c5,15 12,30 20,44 9,15 23,35 42,38 0,0 -3,-5 -5,-5 -20,-4 -32,-27 -40,-44 -5,-9 -9,-19 -13,-29 0,-2 -5,-6 -4,-4z"/>
  <path class="fil11" d="M414 3087c15,18 37,31 58,41 1,1 -2,-5 -3,-6 -19,-9 -43,-23 -55,-38 -3,-4 -2,0 0,3z"/>
  <path class="fil11" d="M324 3312c2,6 7,10 12,14 15,11 34,18 52,22 3,1 -1,-5 -3,-5 -16,-4 -33,-10 -47,-19 -3,-2 -6,-4 -8,-7 -1,-1 -2,-3 -2,-2 0,-1 -6,-6 -4,-3z"/>
  <path class="fil11" d="M313 3473c23,-3 45,-7 68,-11 4,0 5,-6 0,-5 -23,4 -45,8 -68,11 -4,1 -5,6 0,5z"/>
  <path class="fil11" d="M358 3557c10,-8 20,-17 31,-25 1,-1 -3,-7 -4,-6 -10,8 -20,16 -30,25 -1,0 3,6 3,6z"/>
  <path class="fil11" d="M473 3602c1,12 3,23 4,34 1,3 8,4 7,0 -1,-11 -3,-22 -4,-33 -1,-3 -8,-4 -7,-1z"/>
  <path class="fil11" d="M538 3662c15,10 31,19 46,29 4,2 4,-4 1,-5 -15,-10 -31,-19 -46,-29 -4,-2 -4,4 -1,5z"/>
  <path class="fil11" d="M662 3615c-6,-9 -12,-18 -17,-27 -2,-2 -8,2 -7,3 6,9 11,18 17,26 1,2 8,-1 7,-2z"/>
  <path class="fil11" d="M782 3406c-7,26 -15,77 19,89 2,0 8,0 4,-1 -31,-11 -22,-63 -16,-87 1,-1 -6,-3 -7,-1z"/>
  <path class="fil11" d="M937 3545c6,8 12,16 19,23 2,4 7,1 4,-3 -6,-8 -12,-15 -19,-23 -2,-3 -7,0 -4,3z"/>
  <path class="fil11" d="M1008 3488c19,12 39,24 58,37 3,2 8,-2 4,-4 -20,-13 -39,-25 -58,-37 -4,-2 -8,1 -4,4z"/>
  <path class="fil11" d="M1283 3530c14,22 37,42 63,48 2,1 8,-2 3,-3 -24,-5 -46,-26 -60,-47 -1,-1 -8,0 -6,2z"/>
  <path class="fil11" d="M1114 3581c9,16 18,32 26,49 2,2 7,0 6,-2 -9,-17 -18,-33 -27,-49 -1,-2 -7,-1 -5,2z"/>
  <path class="fil6" d="M503 3593c6,-1 12,-2 18,-3 2,0 -1,0 -1,0 -1,-1 -3,-1 -5,0 -6,1 -12,2 -19,3 -1,0 2,0 2,0 1,0 3,0 5,0z"/>
  <path class="fil6" d="M501 3607c8,-3 15,-5 23,-8 5,-1 0,-5 -3,-4 -8,2 -15,5 -23,7 -4,1 0,6 3,5z"/>
  <path class="fil6" d="M503 3616c6,-2 12,-5 18,-7 2,-1 -1,-1 -1,-1 -1,0 -3,0 -5,1 -6,2 -12,4 -19,7 -1,0 1,0 2,0 1,1 3,1 5,0z"/>
  <path class="fil6" d="M523 3695c-5,6 -10,12 -15,17 -3,4 3,7 6,4 5,-6 9,-12 14,-17 3,-4 -3,-7 -5,-4z"/>
  <path class="fil6" d="M533 3700c-6,6 -12,13 -18,20 -1,1 0,2 2,2 1,0 3,-1 4,-2 6,-7 12,-13 18,-20 1,-1 0,-2 -2,-3 -1,0 -3,1 -4,3z"/>
  <path class="fil6" d="M543 3706c-6,7 -12,14 -19,20 -1,2 0,2 1,2 1,0 4,-2 5,-3 6,-7 12,-13 18,-20 1,-1 1,-1 0,-1 -2,0 -4,1 -5,2z"/>
  <path class="fil6" d="M908 3557c-3,6 -6,11 -9,17 -1,2 6,2 7,0 3,-6 6,-12 9,-18 1,-2 -6,-1 -7,1z"/>
  <path class="fil6" d="M917 3563c-3,6 -6,13 -9,20 -1,2 6,2 7,-1 3,-6 6,-13 9,-20 1,-2 -6,-2 -7,1z"/>
  <path class="fil6" d="M928 3566c-3,5 -7,10 -11,16 -2,2 5,3 7,2 3,-6 7,-11 11,-16 2,-2 -5,-4 -7,-2z"/>
  <path class="fil6" d="M1053 3634c-11,8 -21,15 -32,23 -1,1 5,3 7,1 10,-7 21,-15 32,-23 0,0 -6,-2 -7,-1z"/>
  <path class="fil6" d="M1059 3647c-10,10 -21,19 -31,28 1,-1 5,-1 7,-2 10,-10 20,-19 30,-28 -1,1 -5,1 -6,2z"/>
  <path class="fil6" d="M1067 3653c-8,10 -15,19 -23,29 -1,1 6,3 7,1 8,-10 15,-19 23,-29 1,-1 -6,-3 -7,-1z"/>
  <path class="fil3" d="M-178 3400c-252,0 -450,32 -450,74 0,42 198,75 450,75 252,0 449,-33 449,-75 0,-42 -197,-74 -449,-74z"/>
  <path class="fil29" d="M152 2848c-13,-14 -26,-27 -41,-39 -55,-47 -121,-83 -193,-96 -46,-9 -93,-8 -138,2 -26,6 -52,15 -76,26 -22,10 -44,21 -63,35 -6,5 -12,12 -19,18 -14,14 -27,28 -41,43 -40,44 -77,92 -108,143 -35,58 -62,121 -70,189 -8,69 10,137 53,193 27,35 63,64 100,88 23,15 47,28 72,39 9,5 19,9 29,12 97,29 205,33 304,9 6,-1 13,-1 15,-7 1,-3 1,-7 1,-11 -4,-16 -28,-13 -40,-12 -10,1 -4,-7 -1,-12 6,-7 13,-14 19,-21 13,-11 27,-19 38,-32 26,-30 41,-70 52,-109 -3,37 -5,74 -7,111 -1,9 -2,19 -2,28 0,8 5,14 12,15 10,1 21,-7 24,-16 3,-7 4,-14 5,-22 8,-62 9,-126 12,-189 2,-68 4,-136 8,-204 1,-10 2,-19 3,-29 0,-3 0,-6 1,-9 0,-1 1,-3 1,-5 1,0 2,0 2,0 1,-1 2,-1 3,-1 0,1 2,3 2,4 1,3 2,6 2,9 3,13 4,26 5,38 1,28 -1,56 -2,83 -3,40 -6,81 -9,121 -2,40 -5,79 -7,119 -1,26 -4,52 0,78 0,4 1,10 5,12 11,4 18,-9 21,-17 11,-28 14,-60 17,-90 1,-9 1,-17 1,-26 1,-25 2,-49 2,-74 2,-71 4,-143 6,-214 2,-54 3,-109 5,-163 0,-8 2,-12 -3,-17z"/>
  <path class="fil30" d="M240 2701c-1,-59 -17,-119 -41,-173 -17,-38 -42,-77 -82,-94 -31,-12 -65,-10 -97,-6 -29,5 -62,15 -92,6 -45,-13 -81,-48 -121,-70 -38,-21 -84,-29 -120,-1 -10,8 -17,17 -26,26 -7,6 -15,12 -24,17 -18,12 -38,21 -59,29 -39,15 -81,27 -118,47 -27,14 -53,36 -49,69 1,11 6,22 9,32 2,12 4,24 1,36 -3,19 -16,32 -29,44 -12,11 -24,22 -30,37 -7,19 -4,41 -3,60 1,25 4,49 8,73 4,19 9,36 20,52 15,21 38,34 63,40 26,7 55,9 83,8 12,-1 28,-4 38,-3 17,1 35,11 50,19 21,10 42,22 62,34 18,9 36,17 56,22 22,6 45,7 67,5 49,-4 95,-23 142,-37 67,-21 136,-39 195,-79 29,-19 54,-44 71,-75 20,-36 27,-77 26,-118z"/>
  <path class="fil30" d="M468 3431c-2,-45 -36,-87 -82,-91 -20,-2 -41,2 -60,7 -25,7 -49,17 -72,27 -55,25 -107,54 -159,83 -44,25 -88,52 -136,70 -32,12 -69,14 -103,18 -48,5 -96,8 -144,4 -30,-3 -78,-9 -92,-41 -7,-16 -2,-35 4,-50 10,-21 25,-38 34,-59 4,-10 8,-21 6,-32 -2,-11 -12,-16 -23,-18 -26,-2 -41,14 -54,33 -9,12 -17,25 -24,38 -14,29 -22,62 -11,93 17,45 67,67 110,79 65,18 132,22 198,12 124,-19 240,-76 350,-132 42,-22 84,-45 127,-63 14,-5 28,-10 42,-12 9,-1 16,0 21,6 1,3 3,8 3,12 1,6 1,13 0,20 -4,30 -16,60 -36,83 -12,15 -28,26 -42,38 -9,8 -17,19 -7,30 29,30 72,-2 94,-24 32,-34 57,-83 56,-131z"/>
  <path class="fil29" d="M202 2700c-4,-32 -15,-64 -33,-91 -15,-23 -37,-44 -64,-50 -6,-2 -12,-2 -18,-2 -43,-10 -96,-9 -134,14 -33,19 -48,52 -51,89 -4,40 -3,82 13,119 14,32 39,56 72,67 20,7 40,10 61,11 23,0 48,-2 71,-7 32,-8 58,-28 72,-57 14,-29 16,-62 11,-93z"/>
  <path class="fil6" d="M66 2740c-8,-5 -18,-4 -26,1 -6,-6 -15,-6 -23,-1 -11,5 -19,18 -18,30 0,11 10,24 22,23 10,-1 15,-8 18,-16 2,8 6,15 14,15 11,2 23,-8 26,-19 3,-12 -3,-26 -13,-33z"/>
  <path class="fil8" d="M-9 2680c0,-3 -1,-5 -2,-7 -2,-2 -4,-2 -5,-2 -3,0 -3,6 -3,11 1,2 2,4 3,6 1,2 3,3 4,3l0 0c1,0 3,-1 3,-4 1,-2 1,-5 0,-7z"/>
  <path class="fil8" d="M111 2677c-1,0 -3,0 -4,3 -1,2 -2,4 -2,7 0,2 0,4 1,6 1,3 3,4 4,4l0 0c1,0 2,-1 4,-3 0,-2 1,-5 1,-7 0,-5 -1,-10 -4,-10z"/>
  <path class="fil6" d="M81 2558c-11,-2 -22,-4 -32,-5 -8,-1 -16,-2 -24,-2 -4,0 -10,1 -14,3l-1 1 0 0 0 0c1,27 3,55 4,82 2,22 3,43 5,65 1,16 2,32 5,47 0,3 1,9 4,10 4,0 9,0 13,0 4,0 8,0 12,0 0,0 2,0 2,-1 3,-22 6,-45 9,-67 5,-36 9,-72 14,-107 1,-9 3,-17 4,-25l-1 -1z"/>
  <path class="fil8" d="M62 2717c-13,0 -26,0 -39,0 -1,-1 -3,0 -3,0 1,6 1,11 2,17 0,7 1,15 3,22 1,2 1,3 3,3 3,0 6,0 8,0 7,0 13,0 19,0 1,0 2,0 2,-1 2,-14 4,-27 6,-41 0,0 -1,0 -1,0z"/>
  <path class="fil11" d="M75 2794c-6,3 -13,5 -19,1 -5,-3 -8,-8 -10,-12 -3,-7 -5,-15 -5,-22 -1,-2 -7,-1 -7,1 -2,12 -6,32 -20,34 -5,1 -10,0 -14,-2 -1,-1 -7,0 -5,1 6,4 14,5 21,4 11,-3 18,-12 21,-22 1,4 3,7 5,11 8,14 24,14 38,7 3,-1 -4,-2 -5,-1z"/>
  <path class="fil11" d="M26 2762c-1,0 -2,1 -2,2 0,1 1,2 2,2 1,0 2,0 2,-2 0,-1 -1,-2 -2,-2z"/>
  <path class="fil11" d="M61 2753c0,-1 -1,-2 -2,-2 -1,0 -2,1 -2,2 0,2 1,2 2,2 1,0 2,0 2,-2z"/>
  <path class="fil11" d="M51 2762c-1,0 -2,1 -2,2 0,1 1,2 2,2 1,0 2,0 2,-2 0,-1 -1,-2 -2,-2z"/>
  <path class="fil11" d="M60 2762c0,1 1,2 2,2 1,0 2,-1 2,-2 0,-2 -1,-2 -2,-2 -1,0 -2,0 -2,2z"/>
  <path class="fil11" d="M62 2768c-1,0 -2,1 -2,2 0,1 1,2 2,2 1,0 2,-1 2,-2 0,-1 -1,-2 -2,-2z"/>
  <path class="fil11" d="M21 2751c-1,0 -2,1 -2,2 0,2 1,2 2,2 1,0 2,0 2,-2 0,-1 -1,-2 -2,-2z"/>
  <path class="fil11" d="M12 2760c-1,0 -2,0 -2,2 0,1 1,2 2,2 2,0 2,-1 2,-2 0,-2 0,-2 -2,-2z"/>
  <path class="fil11" d="M18 2768c-1,0 -2,1 -2,2 0,1 1,2 2,2 1,0 2,-1 2,-2 0,-1 -1,-2 -2,-2z"/>
  <path class="fil29" d="M-22 2523c-3,-6 -6,-13 -9,-19 -4,-7 -9,-18 -17,-21 -10,-3 -16,7 -19,15 -4,11 -8,23 -9,35 0,1 1,1 1,2 0,0 1,1 3,1 1,0 2,-1 3,-1 14,-3 28,-5 42,-8 1,0 6,-1 5,-4z"/>
  <path class="fil29" d="M154 2545l0 0c0,-11 -4,-22 -8,-32 -3,-10 -7,-21 -19,-15 -14,6 -21,27 -27,41 0,1 1,2 2,2 15,3 30,6 44,8 3,1 8,-1 8,-3l0 -1z"/>
  <path class="fil31" d="M-32 2711c-14,0 -25,2 -25,5 0,2 11,4 25,4 13,0 24,-2 24,-4 0,-3 -11,-5 -24,-5z"/>
  <path class="fil31" d="M130 2717c-14,0 -25,2 -25,4 0,2 11,4 25,4 14,0 25,-2 25,-4 0,-2 -11,-4 -25,-4z"/>
  <path class="fil32" d="M-38 2530c-3,-7 -6,-15 -9,-22 -2,-3 -5,-4 -7,-2 -3,4 -3,11 -3,16 -1,4 -1,8 -2,12 0,0 2,0 3,0 5,-1 11,-2 17,-3 0,0 1,-1 1,-1z"/>
  <path class="fil32" d="M138 2528c-1,-4 -3,-9 -8,-6 -4,2 -6,8 -7,12 -2,3 -3,7 -4,10 0,1 0,1 1,1l0 0c6,2 12,4 18,5 1,0 2,1 3,0 1,-7 -1,-15 -3,-22z"/>
  <path class="fil11" d="M1129 3042c-95,0 -169,12 -169,26 0,14 74,25 169,25 94,0 168,-11 168,-25 0,-14 -74,-26 -168,-26z"/>
  <path class="fil33" d="M1123 3008c-1,-6 -1,-13 -2,-19 0,-2 0,-4 0,-6 0,-1 0,-2 -1,-3 -1,-3 -7,-2 -7,1 -1,10 -1,20 -1,29 -1,7 -1,14 -1,21 0,4 0,8 0,11 -1,2 -2,3 -4,3 -2,0 -4,0 -6,0 -6,0 -13,0 -20,0 -7,0 -13,0 -20,0 -1,0 -3,0 -5,0 0,0 -1,0 -1,0 -2,0 -3,2 -2,4 1,1 3,1 5,1 2,1 5,1 8,2 1,0 4,-1 4,1 1,1 0,2 -1,3 -1,0 -1,1 -2,1 -3,1 -6,2 -9,4 -2,1 -3,2 -1,3 3,3 6,2 9,2 5,-1 10,-2 15,-4 1,0 3,-1 4,0 1,0 1,1 1,3 -1,0 -2,1 -2,2 -2,3 -4,6 -6,8 0,1 -2,3 0,4 2,1 4,1 6,0 6,-3 11,-8 16,-12 7,-4 13,-9 19,-14 1,-1 2,-2 3,-3 1,0 2,-1 3,-2 1,-1 0,-2 0,-3 -1,-13 -1,-25 -2,-37z"/>
  <path class="fil33" d="M1234 3050c-1,-1 -2,-1 -3,-1 -2,0 -4,0 -6,0 -12,0 -24,0 -37,0 -2,0 -4,0 -6,0 -1,0 -2,0 -3,0 -2,0 -2,-2 -2,-4 0,-2 0,-4 0,-6 0,-12 -1,-24 -1,-35 0,-1 0,-2 -1,-3 0,-3 -4,-4 -6,-3 -2,0 -3,1 -3,3 0,5 -1,9 -1,13 -1,12 -2,23 -2,35 0,1 -1,2 0,3 0,2 3,3 5,4 5,5 10,9 16,13 5,4 11,8 17,12 1,1 3,2 5,3 1,0 5,0 5,-2 0,-1 -2,-3 -2,-3 -2,-3 -4,-6 -5,-8 -1,-1 -1,-1 -2,-2 0,-1 0,-2 1,-3 1,-1 3,0 3,0 5,2 10,3 14,3 3,1 6,2 9,1 2,-1 4,-3 2,-4 -2,-2 -4,-2 -6,-3 -2,-1 -5,-2 -6,-3 -1,0 -2,-1 -2,-2 1,-2 3,-2 4,-2 3,0 6,-1 8,-1 2,0 4,-1 5,-1 1,-1 1,-3 0,-4z"/>
  <path class="fil34" d="M1014 2681c-5,-2 -10,3 -13,6 -6,4 -11,10 -16,15l1 -1c3,-4 5,-9 7,-14 2,-4 4,-8 4,-13 1,-3 0,-7 -3,-9 -3,-2 -7,-3 -11,-1 -4,1 -7,4 -10,7 -1,2 -3,4 -4,6 0,-2 1,-4 1,-6 1,-5 2,-11 0,-16 -1,-4 -3,-7 -7,-8 -4,-2 -8,-2 -12,0 -4,2 -7,6 -9,10 0,1 -1,3 -1,4 0,-6 0,-11 -1,-17 0,-3 -1,-7 -3,-10 -3,-2 -7,-2 -9,-1 -5,2 -8,6 -10,10 -3,5 -4,11 -6,16 -1,3 -1,6 -2,9 0,-1 0,-3 0,-4 0,-12 0,-24 -2,-36 0,-3 -1,-8 -3,-10 -1,-2 -4,-2 -6,0 -4,3 -5,9 -7,14 -1,8 -2,15 -2,23 0,7 0,14 1,21 0,4 0,8 1,12l0 1c-1,20 19,32 36,39 9,3 19,6 30,8 7,1 16,1 23,0 10,-2 17,-11 22,-19 4,-7 8,-14 10,-22 1,-3 2,-6 2,-10 0,-1 0,-4 -1,-4z"/>
  <path class="fil35" d="M1015 2723c-1,-3 -1,-11 -7,-11 -5,0 -8,4 -10,8 -1,2 -1,3 -2,4 0,-5 0,-9 -2,-13 -3,-7 -12,-6 -18,-2 -2,2 -4,4 -5,7 -1,-3 -2,-6 -4,-8 -4,-7 -14,-8 -21,-3 -2,2 -4,5 -5,8 0,-2 -1,-3 -2,-5 -4,-6 -10,-9 -16,-5 -6,4 -7,12 -7,19 -2,-6 -5,-11 -9,-16 -1,-3 -3,-6 -6,-7 -3,-1 -7,0 -8,3 -2,3 -2,9 -1,13 1,6 3,12 6,18 4,10 8,19 14,29 6,16 27,19 43,18 9,0 19,-2 28,-4 7,-2 14,-4 20,-9 8,-5 10,-14 11,-22 1,-7 1,-15 1,-22z"/>
  <path class="fil34" d="M1026 2754c0,-3 -1,-11 -5,-12 -4,0 -7,6 -8,9 -3,5 -4,10 -6,15 0,-3 1,-7 1,-11 0,-4 -1,-8 -2,-12 -1,-3 -3,-5 -6,-6 -3,-1 -7,0 -9,2 -3,2 -5,6 -6,10 0,1 0,3 -1,5 -1,-5 -2,-10 -4,-14 -2,-3 -5,-6 -8,-7 -4,-1 -8,0 -11,2 -4,4 -5,10 -5,16 -1,-3 -3,-7 -5,-11 -3,-4 -8,-11 -14,-7 -3,2 -4,7 -5,11 0,4 0,10 1,15 0,3 1,6 1,9 0,-1 0,-2 -1,-3 -4,-9 -8,-19 -13,-27 -2,-3 -9,-13 -12,-7 -2,5 -1,10 0,14 1,7 4,13 6,19 4,9 8,18 13,26 6,16 26,20 42,19 9,0 18,-1 27,-3 6,-2 13,-4 19,-8 7,-5 10,-15 11,-23 1,-7 1,-14 0,-21z"/>
  <path class="fil35" d="M1038 2790c0,-3 -1,-5 -2,-8 0,-2 -1,-3 -3,-4 -4,-1 -7,5 -8,8 -2,5 -4,10 -6,16 0,-4 1,-8 1,-12 0,-4 -1,-8 -2,-11 -1,-3 -3,-6 -6,-6 -3,-1 -7,-1 -9,1 -3,3 -5,7 -6,10 0,2 -1,4 -1,5 -1,-4 -2,-9 -5,-13 -1,-3 -4,-6 -7,-7 -4,-1 -8,-1 -11,2 -4,3 -5,10 -5,16 -1,-4 -3,-8 -5,-11 -3,-5 -8,-11 -14,-7 -3,2 -4,6 -5,10 0,5 0,10 1,15 0,3 1,6 1,9 0,-1 -1,-2 -1,-3 -4,-9 -8,-19 -14,-28 -2,-2 -4,-5 -6,-6 -3,-1 -5,0 -5,2 -2,5 -1,10 1,15 2,6 4,12 7,18 5,8 10,17 15,25l1 0c12,16 30,34 51,30 13,-2 23,-12 32,-22 2,-2 4,-4 6,-7 2,-4 4,-9 4,-14 2,-8 2,-15 1,-23z"/>
  <path class="fil36" d="M1136 3026c-11,0 -22,0 -33,-1l-1 0 0 0 0 1c1,6 5,13 11,15 4,2 9,3 13,1 3,-1 6,-4 8,-8 1,-2 3,-4 3,-7 1,0 -1,-1 -1,-1z"/>
  <path class="fil36" d="M1184 3020c-5,2 -12,3 -18,3 -3,1 -7,1 -11,2 0,0 -1,0 -1,0 0,5 3,9 7,12 3,3 6,3 9,3 8,0 13,-7 15,-14 0,-2 1,-4 1,-6 0,-1 -1,-1 -2,0z"/>
  <path class="fil37" d="M1367 2884c-20,-22 -39,-45 -59,-67 -31,-35 -62,-70 -94,-105 -5,-6 -11,-13 -17,-20 0,-9 -1,-18 -2,-28 -3,-21 -8,-42 -18,-62 -10,-22 -26,-43 -49,-54 -12,-6 -26,-9 -40,-9 -19,-1 -39,2 -55,11 -37,20 -54,62 -52,102 1,22 -3,45 -9,66 -5,19 -12,39 -20,58 -8,22 -18,43 -24,67 -8,31 -12,67 0,98 8,18 20,34 35,46 15,13 34,20 53,27 32,13 67,21 102,23 29,0 59,-4 86,-12 24,-8 47,-20 69,-34 18,-12 35,-26 50,-41 12,-12 23,-25 33,-38 5,-6 10,-13 14,-20l0 -1c1,-2 -2,-6 -3,-7z"/>
  <path class="fil35" d="M1363 2836c-6,-10 -14,-18 -21,-26 -12,-11 -24,-22 -37,-32 -22,-23 -55,-5 -74,11 -13,10 -24,22 -33,35 -7,10 -14,21 -15,34 -1,18 6,36 13,52 4,9 8,18 14,25 2,2 4,5 7,5 3,0 6,-2 7,-5 3,-7 1,-17 1,-24 0,-2 -1,-5 -1,-7 3,7 6,13 11,19 2,4 6,7 11,7 6,0 11,-3 14,-8 3,-6 3,-14 2,-20 0,-2 -1,-4 -1,-6 3,3 6,7 10,10 4,3 9,6 15,5 6,-1 11,-6 14,-11 4,-8 3,-18 -1,-26 3,2 6,4 8,6 7,6 20,11 25,0 3,-7 2,-14 0,-21 -2,-9 -7,-17 -11,-24 -1,-1 -2,-3 -2,-4 9,9 19,18 29,25 4,3 9,6 14,7 4,0 8,-2 9,-6 0,-8 -5,-15 -8,-21z"/>
  <path class="fil34" d="M1321 2799c-6,-9 -13,-17 -20,-24 -11,-11 -23,-22 -36,-31l0 -1c-9,-9 -22,-12 -34,-9 -14,3 -27,11 -38,21 -12,10 -23,21 -32,34 -7,10 -13,21 -14,33 -1,18 6,36 13,52 4,8 8,17 14,24 1,2 4,5 6,5 3,0 4,-2 4,-4 1,-3 1,-7 1,-10 0,-5 0,-10 -1,-15 -1,-10 -2,-19 -4,-29l1 0c2,8 4,15 7,22 3,7 6,13 10,18 3,4 6,8 11,8 5,1 9,-3 11,-8 3,-6 3,-13 2,-20 -1,-6 -3,-12 -5,-18 1,2 2,3 3,5 4,6 8,12 14,16 4,3 9,6 14,6 6,-1 10,-5 12,-10 3,-7 2,-15 0,-21 -1,-6 -4,-11 -7,-16 6,5 11,11 17,16 6,4 18,12 22,1 3,-6 2,-14 0,-21 -3,-9 -7,-17 -12,-24 -4,-7 -9,-14 -14,-21 3,3 5,6 8,9 12,11 24,22 37,31 3,3 20,14 19,3 0,-8 -4,-16 -9,-22z"/>
  <path class="fil35" d="M1281 2753c-6,-9 -13,-17 -21,-25 -11,-11 -23,-21 -35,-31l-1 0c-9,-9 -21,-12 -33,-10 -15,4 -27,12 -38,21 -12,10 -23,22 -32,35 -7,9 -13,20 -14,33 -1,17 5,35 13,51 3,9 8,18 13,25 2,2 4,4 7,4 2,1 3,-1 4,-3 1,-3 1,-7 1,-10 0,-5 0,-10 -1,-15 -1,-10 -2,-20 -4,-29l0 0c2,7 5,14 8,22 2,6 5,12 9,18 3,4 7,7 12,8 5,0 9,-4 11,-8 3,-6 2,-14 1,-20 -1,-6 -2,-12 -4,-18 1,2 2,3 3,5 4,5 8,11 13,16 4,3 9,6 15,6 5,-1 10,-6 12,-11 3,-6 2,-14 0,-21 -2,-5 -4,-11 -7,-16 5,6 11,12 17,16 6,5 18,12 22,2 3,-7 1,-15 -1,-21 -2,-9 -7,-17 -11,-25 -5,-7 -9,-13 -14,-20 2,3 5,6 8,8 12,11 24,23 37,32 3,3 19,14 19,3 0,-8 -5,-16 -9,-22z"/>
  <path class="fil6" d="M1088 2709c-3,0 -6,1 -9,0 -16,-4 -69,-20 -49,-77 13,-37 28,-29 39,-14 6,9 19,8 25,-1 8,-11 18,-19 31,-8 25,22 30,77 -37,100z"/>
  <path class="fil11" d="M1056 2632c-7,0 -13,6 -13,13 0,7 6,13 13,13 7,0 12,-6 12,-13 0,-7 -5,-13 -12,-13z"/>
  <path class="fil11" d="M1116 2633c-7,0 -12,6 -12,13 0,7 5,13 12,13 7,0 13,-6 13,-13 0,-7 -6,-13 -13,-13z"/>
  <path class="fil6" d="M1124 2643c-1,0 -1,1 -1,2 -1,2 0,3 0,3 1,0 2,-1 2,-2 0,-2 0,-3 -1,-3z"/>
  <path class="fil6" d="M1061 2638c-1,0 -1,1 -1,3 -1,1 0,2 0,2 1,0 2,-1 2,-2 0,-1 0,-2 -1,-3z"/>
  <path class="fil11" d="M1089 2675c-4,0 -8,0 -13,0l0 0 0 0c2,4 4,8 6,13 0,0 1,1 2,0 2,-4 4,-8 7,-13 0,0 -2,0 -2,0z"/>
  <path class="fil11" d="M-918 2639c-85,0 -154,12 -154,28 0,16 69,28 154,28 85,0 153,-12 153,-28 0,-16 -68,-28 -153,-28z"/>
  <path class="fil38" d="M-413 2427c-14,-1 -30,6 -41,15 -3,3 -5,7 -7,9 -3,2 -8,4 -12,5 -19,7 -52,10 -52,-18 -1,-25 0,-51 -4,-76 -3,-20 -9,-49 -31,-57 -13,-5 -28,0 -41,5 -13,4 -25,11 -37,17 -8,5 -13,2 -19,-4 -5,-6 -10,-13 -11,-21 -2,-7 -1,-14 0,-21 0,-11 0,-23 -2,-34 -1,-8 -3,-17 -6,-25 -1,-5 -3,-10 -4,-15 -2,-5 -4,-12 -7,-18 -1,-2 -3,-4 -4,-7 -2,-8 1,-14 8,-18 8,-5 17,-7 26,-9 11,-3 22,-7 33,-11 24,-10 47,-26 60,-49 8,-13 11,-29 12,-44 1,-21 2,-41 5,-62 3,-22 10,-60 37,-66 7,-1 15,0 23,-1 7,-1 15,-3 22,-6 9,-5 18,-14 21,-24 1,-9 -2,-17 -12,-18 -7,-1 -14,1 -21,3 -10,3 -19,6 -29,9 -11,3 -21,6 -32,7 -8,2 -16,3 -23,5 -12,3 -22,9 -28,20 -7,10 -9,23 -11,35 -1,14 -2,28 -4,42 -2,15 -4,31 -9,46 -4,11 -9,25 -20,31 -8,4 -19,7 -28,10 -10,4 -19,7 -29,11 -10,3 -20,7 -30,10 -7,-21 -22,-44 -42,-56 -34,-19 -77,4 -98,33 -5,7 -10,14 -13,22 -20,-8 -32,-31 -33,-52 -1,-10 0,-19 -2,-29 -1,-6 -2,-13 -5,-18 -4,-11 -9,-21 -10,-33 -2,-19 7,-38 15,-55 7,-13 7,-30 5,-44 0,-6 -1,-10 -3,-15 -1,-6 -5,-12 -6,-17 -3,-9 0,-19 7,-25 6,-5 15,-8 22,-6 5,1 8,4 12,7 4,2 8,5 13,6 10,4 21,-2 17,-14 -4,-14 -18,-26 -31,-31 -14,-5 -32,-1 -46,4 -15,6 -27,17 -31,33 -3,10 -4,20 -5,30 -1,11 -3,22 -4,33 -3,24 -7,48 -14,71 -4,13 -9,26 -10,40 -2,14 -1,27 1,41 5,37 21,71 40,104 10,17 22,33 29,51 4,10 5,21 1,31 -4,8 -11,15 -17,22 -8,7 -16,15 -23,23 -20,25 -25,58 -19,89 2,12 5,22 10,33 4,9 9,18 13,28 4,9 8,19 9,29 1,8 0,15 -3,23 -4,9 -5,20 -6,30 -2,14 -2,29 -3,44 -1,31 -1,62 -4,93 -1,5 -1,10 -2,15 -1,5 -3,10 0,14 3,10 16,10 25,10 12,0 24,-2 36,0 6,1 10,4 15,6 6,2 12,0 17,-3 4,-4 7,-8 6,-13 -1,-6 -7,-8 -12,-9 -8,-2 -16,-2 -23,-4 -4,-2 -9,-3 -10,-8 -1,-7 0,-15 1,-23 1,-12 3,-24 6,-37 3,-13 7,-27 12,-40 4,-10 10,-21 18,-30 12,-11 31,-6 45,-4 20,3 41,6 62,5 25,-2 50,-11 70,-26 13,-9 25,-20 35,-33 6,-7 12,-15 17,-24 3,-4 5,-8 8,-12 3,-5 6,-11 8,-16 0,-1 1,-3 0,-2l1 -1c1,-1 3,-2 5,-3 5,-3 11,-5 17,-4 14,4 19,23 23,35 6,14 11,29 18,43 7,12 15,25 27,32 13,8 28,5 42,0 18,-7 34,-17 50,-26 7,-4 14,-8 21,-10 7,-2 14,-2 19,-7 11,-11 -5,-26 -16,-26z"/>
  <path class="fil38" d="M-1212 2127c-1,0 -1,1 0,0zm70 33l0 0zm262 288c-15,4 -27,7 -43,7 -6,0 -9,0 -16,0 -5,-1 -10,-2 -13,-3 -10,-3 -17,-7 -25,-13 -3,-2 -7,-5 -10,-9 -3,-3 -6,-7 -8,-10 -24,-33 -35,-75 -59,-109 -13,-19 -28,-35 -49,-45 -14,-8 -30,-12 -44,-20 -15,-7 -29,-16 -41,-27 -17,-17 -30,-38 -31,-62 0,-10 2,-18 6,-28 0,-1 0,-2 1,-2l0 0c0,-1 1,-3 2,-4 1,-2 2,-4 4,-6 0,-1 1,-2 2,-3l1 -2c2,-2 4,-4 6,-6 0,0 2,-1 2,-1 1,-1 3,-3 4,-3 4,-3 5,-3 9,-5 -2,1 2,-1 3,-1l1 0 1 0c3,0 3,0 7,1 -1,-1 2,0 3,0 1,1 2,2 3,2 3,1 4,3 7,5 4,3 8,8 10,13 6,9 10,19 9,30 0,4 0,6 -2,10 -1,0 -3,-1 -3,-2 -3,-2 -5,-4 -7,-6 -7,-8 -29,5 -21,14 7,10 19,16 32,13 17,-4 27,-20 26,-37 -1,-26 -18,-55 -45,-61 -30,-6 -61,18 -75,43 -12,22 -14,47 -5,71 11,30 38,51 65,67 9,5 18,9 28,13 7,3 15,6 23,9 10,5 19,12 27,20 32,32 45,78 67,116 11,19 25,36 45,46 23,13 51,12 77,8 9,-2 18,-4 26,-6 5,-1 13,-6 13,-12 -1,-6 -9,-7 -13,-5z"/>
  <path class="fil39" d="M-749 2135c0,-1 -1,-2 -2,-3 0,-1 0,-2 -1,-2 0,-1 0,-2 0,-2 -1,0 -1,0 0,0 2,-2 5,-3 6,-4 3,-2 5,-5 7,-7 4,-6 6,-13 5,-20 -2,-19 -26,-32 -43,-24 -7,3 -13,10 -17,18 -1,-2 -3,-3 -4,-5l0 0 -1 0c-14,-10 -32,-9 -44,3 -13,13 -17,34 2,43 11,5 21,5 32,5 4,0 6,-1 3,3 -1,3 -2,5 -3,7 -7,12 -13,27 -8,41 5,17 25,25 42,23 17,-2 32,-15 36,-32 2,-10 1,-20 -2,-29 -2,-5 -4,-10 -8,-15z"/>
  <path class="fil6" d="M-799 2116c0,8 -6,15 -15,15 -8,0 -14,-7 -14,-15 0,-8 6,-15 14,-15 9,0 15,7 15,15z"/>
  <path class="fil4" d="M-777 2159c1,1 2,2 2,1 1,0 1,-1 0,-2 -1,-2 -2,-2 -3,-2 0,0 0,2 1,3z"/>
  <path class="fil4" d="M-770 2158c-1,1 -1,3 0,3 1,0 1,-1 2,-2 0,-2 0,-3 0,-3 -1,-1 -2,0 -2,2z"/>
  <path class="fil6" d="M-745 2106c0,8 -6,14 -14,14 -9,0 -15,-6 -15,-14 0,-9 6,-15 15,-15 8,0 14,6 14,15z"/>
  <path class="fil4" d="M-810 2120c-1,1 -1,4 1,6 1,2 3,3 4,3 1,-1 1,-3 0,-6 -2,-2 -4,-3 -5,-3z"/>
  <path class="fil4" d="M-809 2122c0,0 0,1 1,3 1,2 2,2 3,3 0,-1 -1,-2 -2,-4 -1,-2 -2,-2 -2,-2zm4 8c-1,0 -2,0 -2,-1 -1,0 -3,-1 -3,-2 -2,-4 -2,-7 -1,-8l0 0c2,-1 5,1 7,4 2,3 2,6 0,7 0,0 -1,0 -1,0z"/>
  <path class="fil4" d="M-755 2113c-1,-2 -3,-4 -4,-3 -1,0 -1,3 0,5 1,3 3,4 4,4 1,-1 1,-3 0,-6z"/>
  <path class="fil4" d="M-758 2111c0,0 0,2 0,4 1,1 2,2 3,2 0,0 0,-1 -1,-3 -1,-2 -2,-3 -2,-3zm3 9c-1,0 -2,0 -3,-1 0,-1 -1,-2 -2,-3 -1,-2 -1,-3 -1,-4 0,-2 1,-3 2,-4 0,0 1,0 3,1 1,1 2,2 2,4 2,3 2,6 0,7 0,0 -1,0 -1,0z"/>
  <path class="fil6" d="M-783 2195c4,3 9,3 15,-5 4,-6 0,-15 -8,-15 -10,1 -14,14 -7,20z"/>
  <path class="fil39" d="M-721 2102l-4 21c0,0 18,19 28,0 11,-19 -7,-38 -24,-21z"/>
  <path class="fil39" d="M-724 2123c2,1 9,8 17,8 4,-1 7,-4 10,-8 5,-11 2,-20 -3,-25 -7,-5 -15,-1 -20,4l-4 21zm15 9c-8,0 -16,-8 -16,-8l0 -1 3 -21 0 -1c9,-9 18,-8 23,-4 6,5 9,15 3,26 -3,6 -7,9 -11,9 -1,0 -1,0 -2,0z"/>
  <path class="fil39" d="M-868 2106l4 20c0,0 -18,20 -28,0 -11,-19 7,-38 24,-20z"/>
  <path class="fil39" d="M-882 2100c-2,0 -5,0 -7,2 -5,4 -8,14 -3,24 3,5 6,8 10,8 8,1 15,-6 17,-8l-4 -20c-3,-4 -8,-6 -13,-6zm2 36c-1,0 -1,0 -2,0 -4,-1 -8,-4 -11,-9 -6,-11 -3,-22 3,-26 5,-4 14,-5 23,4l0 0 3 22 0 0c0,0 -8,9 -16,9z"/>
  <path class="fil4" d="M-873 2116c-3,-1 -8,-2 -12,-1 0,-3 1,-6 2,-8 1,-2 -2,-2 -2,-1 -2,4 -3,7 -2,11l0 0c0,4 1,8 3,11 1,1 3,0 3,-1 -2,-3 -3,-7 -4,-10 3,-2 8,-1 10,0 1,1 3,0 2,-1z"/>
  <path class="fil4" d="M-703 2109c0,-3 -1,-7 -2,-10 0,-1 -3,0 -3,1 2,2 2,5 2,8 -3,-1 -8,0 -11,1 -2,1 -1,2 1,2 3,-2 7,-3 10,-1 0,4 -1,7 -3,11 -1,0 2,0 2,-1 2,-3 3,-6 4,-10l0 -1z"/>
  <path class="fil3" d="M-2007 3498c0,24 83,43 186,43 103,0 186,-19 186,-43 0,-23 -83,-42 -186,-42 -103,0 -186,19 -186,42z"/>
  <path class="fil40" d="M-1692 3416c-22,-71 -30,-147 -11,-220 15,-59 47,-112 89,-157 39,-42 87,-77 137,-105 40,-23 83,-43 127,-59 21,-7 43,-16 65,-20l1 0c2,-1 9,0 9,3 -5,71 -22,140 -51,205 -25,56 -59,109 -98,156 -34,40 -73,77 -114,109 -31,24 -63,46 -97,66 -10,6 -21,12 -32,17 -5,2 -10,5 -15,7l0 1c-2,0 -5,0 -7,-1 -1,0 -3,-1 -3,-2l0 0 0 0z"/>
  <path class="fil11" d="M-1503 2946c13,-10 27,-18 41,-26 34,-20 70,-37 107,-51 27,-11 55,-19 84,-25l0 -1c3,0 8,1 8,4l0 1c0,0 0,0 0,1 -3,55 -15,111 -34,163 -8,23 -19,46 -31,68 -2,3 -9,0 -10,-3 -2,-15 -4,-31 -6,-46 -14,3 -29,6 -43,9 -3,0 -8,0 -8,-4 0,-19 0,-38 0,-57 -14,7 -28,13 -42,20 -3,1 -10,0 -9,-4 2,-19 4,-37 6,-55 -19,4 -37,8 -56,12 -3,0 -11,-3 -7,-6z"/>
  <path class="fil17" d="M-1989 3089c6,-39 14,-78 22,-117 6,-23 11,-46 17,-68 5,-20 8,-42 22,-58 12,-13 28,-20 45,-21l1 0c16,-1 32,4 45,13 16,11 23,28 32,45 18,34 40,66 63,97 9,13 17,28 26,43 10,17 21,34 30,53 28,55 44,115 45,177 0,41 -6,82 -18,121 -3,11 -6,21 -10,32 -1,2 -2,4 -4,6 -8,10 -25,13 -37,14 -51,5 -102,11 -153,8 -23,-1 -50,-3 -70,-15 -11,-6 -16,-15 -22,-26 -10,-16 -19,-31 -25,-49 -12,-29 -17,-61 -19,-92 -3,-54 2,-109 10,-163z"/>
  <path class="fil40" d="M-2103 3034c24,-62 54,-120 88,-177 23,-41 49,-81 76,-120 5,-7 10,-15 16,-22 8,-12 20,-19 35,-20 11,-1 22,0 32,4 4,1 7,3 12,4 5,1 10,1 15,1 16,-1 31,-3 46,-6 3,-1 12,3 7,5 -28,10 -55,29 -75,51 -16,16 -25,35 -27,57 -1,19 3,37 9,54 3,9 7,18 12,26l0 1 0 0c24,58 49,117 73,175 13,32 27,64 40,96 9,21 16,40 22,61 17,61 31,152 -32,193 -40,25 -93,22 -137,14 -15,-3 -30,-7 -45,-10 -23,-4 -46,-7 -68,-13 -30,-9 -59,-22 -83,-43 -43,-36 -59,-90 -59,-145 1,-64 20,-127 43,-186z"/>
  <path class="fil11" d="M-1770 3266c1,-9 3,-17 4,-25 3,-10 12,-17 22,-15 9,2 11,11 11,19 0,6 -1,12 -1,18 -1,8 -1,15 -2,23 -2,40 -5,81 -7,122 -1,18 -2,35 -3,52 0,6 -1,13 0,19 0,3 1,6 3,9 1,1 2,3 2,5 0,4 -5,6 -8,6 -6,1 -10,-11 -12,-15 -5,-16 -8,-32 -11,-49 -8,-56 -6,-113 2,-169z"/>
  <path class="fil11" d="M-1916 3259c1,-9 3,-17 4,-25 3,-10 12,-17 22,-15 9,2 11,11 11,19 0,6 -1,13 -1,19 -1,7 -1,15 -2,22 -2,41 -4,82 -7,123 -1,17 -1,35 -2,52 -1,6 -1,12 -1,17 0,4 1,7 3,10 1,2 2,3 2,5 1,4 -4,6 -7,6 -7,1 -11,-10 -12,-15 -6,-15 -9,-32 -12,-48 -8,-56 -6,-114 2,-170z"/>
  <path class="fil17" d="M-1880 2750c6,-7 13,-10 21,-14 9,-5 18,-10 26,-18 4,-3 7,-8 11,-11 5,-4 10,-5 15,-6 11,-2 23,-4 34,-6 4,-2 11,0 12,5 1,5 -1,10 -3,14 -8,16 -26,26 -42,34 -11,5 -24,10 -31,21 -5,8 -6,17 -5,26 2,17 11,35 18,51 5,12 11,24 2,36 -3,4 -8,8 -13,9 -1,1 -7,1 -9,3 0,1 0,2 0,3 -2,3 -8,1 -10,-1 -1,-2 -1,-3 0,-4 -2,-5 -6,-13 -8,-15 -4,-8 -8,-15 -12,-23 -8,-17 -16,-34 -18,-53 -3,-18 1,-36 12,-51z"/>
  <path class="fil11" d="M-1906 2728c12,-19 37,-21 57,-14l0 0 0 0c-9,12 -21,19 -37,19 -6,0 -14,-1 -20,-5l0 0z"/>
  <path class="fil11" d="M-1773 2674l0 0c0,-1 1,-1 1,-1 5,-1 10,0 11,5 2,4 1,9 1,13 0,3 0,7 -3,9 -5,4 -12,1 -15,-4 -5,-8 -1,-17 5,-22z"/>
  <path class="fil6" d="M-1884 2722c1,6 3,10 6,10 2,0 3,-5 2,-11 -1,-6 -4,-10 -6,-10 -2,0 -3,5 -2,11z"/>
  <path class="fil40" d="M-1900 2683c5,6 9,11 14,17l0 0 0 1c-5,3 -9,7 -14,10 0,0 -3,1 -3,0 0,-9 0,-18 0,-27 0,-1 3,-2 3,-1z"/>
  <path class="fil40" d="M-1933 2659c11,17 22,34 33,51l1 0 0 1c-10,15 -20,31 -30,46 0,1 -3,2 -3,1 -1,-29 -3,-57 -4,-86 0,-4 -1,-8 -1,-12 0,-1 3,-1 4,-1z"/>
  <path class="fil6" d="M-1923 2687c5,7 10,13 15,20l0 0 0 0c-4,5 -8,10 -12,14 0,1 -3,1 -3,0 -1,-11 -2,-23 -4,-34 0,-1 3,-1 4,0z"/>
  <path class="fil17" d="M-1781 3274c3,-10 6,-20 11,-30 4,-10 13,-26 26,-21 12,5 11,18 12,28 1,5 2,11 2,17 0,1 -3,0 -3,0 -3,-4 -6,-8 -8,-11 -4,8 -8,16 -13,24 0,1 -3,1 -3,0 -1,-10 -2,-20 -3,-30 -6,8 -11,16 -17,24 -1,0 -4,0 -4,-1z"/>
  <path class="fil17" d="M-1914 3241c1,-10 0,-22 10,-27 5,-3 10,-3 15,1 5,4 9,10 12,16 3,7 6,14 8,21 1,4 3,8 4,12 0,1 -3,1 -4,0 -6,-7 -11,-15 -17,-23 -1,10 -2,20 -3,30 0,1 -3,1 -4,0 -4,-8 -8,-16 -12,-24 -3,3 -5,7 -8,10 0,1 -4,1 -3,0 0,-5 1,-11 2,-16z"/>
  <path class="fil3" d="M5899 3515c0,28 -99,54 -222,57 -124,3 -224,-17 -225,-45 -1,-28 99,-53 222,-57 123,-3 224,17 225,45z"/>
  <path class="fil4" d="M5978 3061c-19,-86 -67,-172 -129,-235 -39,-39 -87,-70 -140,-86 -27,-8 -57,-14 -86,-10 -34,-11 -72,-9 -103,10 -37,22 -59,61 -61,103 -1,24 6,48 -3,71 -5,12 -14,23 -21,33 -19,30 -38,60 -50,93 -14,37 -20,77 -9,115 13,43 43,82 74,113 19,19 40,34 60,51 9,7 17,13 27,19 24,12 50,18 76,23 42,8 86,12 129,8 79,-7 157,-46 203,-112 41,-57 49,-128 33,-196z"/>
  <path class="fil41" d="M5621 2662c-4,-35 -8,-69 -12,-103 0,-4 -8,-3 -10,-1 -10,8 -20,16 -30,24 -7,6 -14,12 -21,18 -2,1 -3,2 -5,3 1,0 1,1 2,2 0,-1 -1,-1 -2,-2 -1,1 -1,1 -1,2 -4,4 -2,0 0,-2 -10,-3 -44,-5 -48,-5 -23,-2 -47,0 -69,8 -20,-14 -40,-28 -60,-42 -3,-3 -10,-1 -10,3 0,28 2,55 2,83 0,1 0,2 0,2 -1,1 -2,2 -3,3 -6,6 -11,14 -16,21 -14,20 -26,43 -29,68 -1,2 3,4 5,4 48,-6 108,8 125,58 1,1 2,2 4,2 9,1 22,5 31,2 10,-3 19,-11 28,-15 47,-24 97,-45 150,-52 2,0 6,-1 6,-5 3,-29 -16,-57 -37,-76z"/>
  <path class="fil41" d="M5543 2603c0,0 0,0 -1,0l1 0 0 0z"/>
  <path class="fil4" d="M5431 2667c-16,-7 -37,1 -51,10 -22,16 -34,41 -39,66 -1,3 2,4 4,4 14,3 28,6 43,8 1,1 2,0 4,0 1,-1 2,-1 2,-2 13,-18 29,-31 44,-46 12,-11 9,-34 -7,-40z"/>
  <path class="fil4" d="M5601 2756c-9,-16 -20,-31 -32,-45 -15,-18 -37,-40 -62,-39 -25,1 -43,19 -31,43 6,13 16,24 26,34 7,6 15,13 22,19 4,3 9,9 13,10 6,2 16,-3 22,-5 13,-5 27,-9 39,-15 2,-1 2,-1 3,-2l0 0z"/>
  <path class="fil41" d="M5494 2699c0,8 7,15 16,15 9,0 15,-7 15,-16 0,-9 -7,-16 -16,-16 -9,1 -16,8 -15,17z"/>
  <path class="fil41" d="M5386 2702c0,8 7,15 16,15 9,0 16,-8 15,-16 0,-9 -7,-16 -16,-16 -9,1 -16,8 -15,17z"/>
  <path class="fil4" d="M5515 2692c-1,-1 -2,-2 -3,-2 -1,-1 -3,-1 -5,2 -1,1 -2,3 -3,5 0,3 0,7 1,9 1,1 1,1 3,2 0,0 0,0 1,0 1,0 2,-1 4,-2 1,-2 2,-4 2,-6 1,-3 1,-6 0,-8z"/>
  <path class="fil4" d="M5404 2692c-3,0 -6,3 -7,8 -2,5 -1,10 3,11 0,0 0,0 1,0 1,0 2,-1 4,-2 1,-2 2,-4 2,-6 2,-5 1,-10 -3,-11z"/>
  <path class="fil4" d="M5606 2640c-2,-19 -4,-38 -6,-57 0,-5 -8,-2 -10,0 -13,12 -25,23 -37,35 -2,1 -2,4 0,5 14,7 28,15 42,22 2,3 8,2 10,-2 1,-1 2,-2 1,-3z"/>
  <path class="fil4" d="M5410 2618c0,-1 0,-2 -1,-2 -11,-9 -21,-17 -32,-26 -3,-3 -11,0 -10,5 2,15 3,30 5,45 1,4 8,2 10,1 9,-7 17,-13 26,-20 2,-1 2,-2 2,-3z"/>
  <path class="fil4" d="M5478 2767c-4,-10 -16,-11 -25,-9 -2,1 -3,2 -4,3l0 0c-13,12 -20,31 -9,47 7,10 24,14 35,6 5,-5 5,-11 5,-18 1,-8 2,-21 -2,-29z"/>
  <path class="fil4" d="M5905 3103c-9,-22 -23,-41 -38,-59 -1,-2 -4,-1 -6,-1 -74,22 -157,63 -201,128 -17,25 -26,53 -25,83 0,34 -35,53 -63,63 -9,4 -19,7 -29,10 -11,3 -22,8 -33,10 -56,8 -116,-18 -167,-37 -118,-44 -253,-99 -373,-31 -72,41 -132,118 -154,197 -19,71 -6,144 27,208 26,52 62,98 102,141 48,53 113,80 185,63 25,-7 51,-18 71,-36 13,-11 26,-26 25,-45 -2,-26 -19,-52 -45,-59 -13,-3 -27,-1 -41,2 -7,2 -15,5 -22,9 -5,2 -11,5 -16,9 -2,1 -7,4 -9,5 0,0 -1,0 -1,0 -2,-1 -4,-2 -6,-4 -5,-3 -9,-7 -13,-11 -11,-11 -21,-25 -29,-39 -20,-33 -35,-71 -35,-109 -1,-45 24,-79 66,-95 49,-17 102,-10 153,-14 104,-8 207,-28 307,-57 102,-28 208,-66 294,-130 32,-24 62,-54 78,-92 15,-35 14,-74 -2,-109z"/>
  <path class="fil4" d="M5633 3522c0,0 -1,0 -1,0 0,0 1,0 1,0zm16 -361l0 0 0 0c-4,-13 -16,-22 -29,-19 -11,2 -15,12 -16,22 -1,9 1,19 2,29 1,10 2,20 3,30 5,58 10,115 15,172 2,25 4,50 6,75 1,9 2,17 2,25 0,6 -3,10 -6,15 0,1 -1,3 -2,5 0,5 6,8 10,8 10,2 14,-11 16,-18 8,-21 11,-44 14,-67 12,-92 4,-186 -15,-277z"/>
  <path class="fil4" d="M5752 3184c-2,-13 -4,-26 -7,-39l0 0 0 0c-4,-14 -17,-24 -32,-21 -12,2 -16,13 -17,24 0,11 2,21 3,32 1,11 2,22 3,33 5,63 11,125 16,188 2,27 4,54 6,81 1,8 2,17 2,26 1,6 -1,11 -4,16 -2,2 -4,5 -4,8 1,5 7,8 11,8 10,1 15,-13 17,-21 9,-23 13,-49 16,-73 10,-87 5,-176 -10,-262z"/>
  <path class="fil41" d="M5052 3716c-8,-16 -16,-31 -24,-47 -2,-4 -12,0 -15,1 -46,19 -91,39 -136,58 -2,1 -5,3 -4,5 14,18 28,36 41,53 2,3 12,1 16,-2 40,-21 79,-43 118,-64 1,-1 5,-3 4,-4z"/>
  <path class="fil41" d="M5015 3577c-65,-32 -129,-64 -193,-96 -2,-1 -19,-2 -20,1 -9,46 -10,103 16,144 2,1 5,1 9,1 1,0 1,0 2,0 58,-2 117,-3 175,-5 1,0 10,0 10,-2 1,-14 1,-28 1,-43l0 0z"/>
  <path class="fil41" d="M5089 3502c-10,-87 -20,-174 -30,-261 0,-1 -3,-2 -4,-2 -64,-3 -125,35 -160,87 0,1 0,2 0,3 46,65 91,131 137,197 1,2 5,1 8,0l0 0c1,-1 2,-1 2,-2 11,-8 25,-17 39,-16 3,0 9,-2 8,-6z"/>
  <path class="fil41" d="M5386 3311c-36,-13 -72,-26 -107,-39 -2,-1 -3,0 -5,0 -5,1 -13,5 -13,9 2,69 4,138 6,207 0,1 0,1 2,1 20,-1 41,-2 62,-3 4,0 15,-4 16,-9 13,-55 26,-110 40,-164 0,-1 0,-1 -1,-2z"/>
  <path class="fil41" d="M5513 3006c-1,-3 -7,-2 -6,2 6,14 12,28 18,43 2,3 8,2 6,-2 -6,-14 -12,-28 -18,-43z"/>
  <path class="fil41" d="M5545 2956c-2,-4 -8,-2 -6,1 6,14 12,29 18,43 2,4 7,2 6,-2 -6,-14 -12,-28 -18,-42z"/>
  <path class="fil41" d="M5646 3003c-2,-4 -8,-2 -6,1 6,15 12,29 18,43 1,4 7,2 6,-2 -6,-14 -12,-28 -18,-42z"/>
  <path class="fil41" d="M5613 2887c-2,-3 -8,-2 -6,2 6,14 12,28 18,43 1,3 7,2 6,-2 -6,-14 -12,-28 -18,-43z"/>
  <path class="fil41" d="M5712 2994c-6,-14 -12,-28 -18,-43 -1,-3 -7,-2 -6,2 6,14 12,29 18,43 2,4 8,2 6,-2z"/>
  <path class="fil41" d="M5609 3100c-2,-4 -8,-2 -6,2 6,14 12,28 18,43 1,3 7,2 6,-2 -6,-14 -12,-29 -18,-43z"/>
  <path class="fil41" d="M5499 3110c-1,-4 -7,-2 -6,1 6,15 12,29 18,43 2,4 8,2 6,-1 -6,-15 -12,-29 -18,-43z"/>
 </g>
</svg>
