<?xml version="1.0" encoding="UTF-8"?>
<!DOCTYPE svg PUBLIC "-//W3C//DTD SVG 1.1//EN" "http://www.w3.org/Graphics/SVG/1.1/DTD/svg11.dtd">
<!-- Creator: CorelDRAW X7 -->
<svg xmlns="http://www.w3.org/2000/svg" xml:space="preserve" width="3508px" height="2480px" version="1.1" style="shape-rendering:geometricPrecision; text-rendering:geometricPrecision; image-rendering:optimizeQuality; fill-rule:evenodd; clip-rule:evenodd"
viewBox="0 0 3508 2480"
 xmlns:xlink="http://www.w3.org/1999/xlink">
 <defs>
  <style type="text/css">
   <![CDATA[
    .fil17 {fill:black}
    .fil38 {fill:#024F39}
    .fil14 {fill:#040100}
    .fil18 {fill:#043531}
    .fil4 {fill:#043A2C}
    .fil19 {fill:#101111}
    .fil10 {fill:#1A1B1F}
    .fil1 {fill:#1D0104}
    .fil36 {fill:#29100D}
    .fil29 {fill:#2B1C11}
    .fil39 {fill:#3B2A15}
    .fil3 {fill:#447762}
    .fil12 {fill:#46695E}
    .fil22 {fill:#4AB9B0}
    .fil5 {fill:#559972}
    .fil25 {fill:#832D0F}
    .fil44 {fill:#875050}
    .fil24 {fill:#92A0A8}
    .fil26 {fill:#945147}
    .fil41 {fill:#995B59}
    .fil6 {fill:#9FC54D}
    .fil42 {fill:#A05A52}
    .fil9 {fill:#A6A6A7}
    .fil27 {fill:#AA4924}
    .fil7 {fill:#B04842}
    .fil34 {fill:#B3513B}
    .fil40 {fill:#B9A88D}
    .fil32 {fill:#C1172C}
    .fil43 {fill:#C48050}
    .fil21 {fill:#C94D1C}
    .fil15 {fill:#C99732}
    .fil45 {fill:#CC2E78}
    .fil20 {fill:#D95F27}
    .fil2 {fill:#D9D5C3}
    .fil33 {fill:#DF9C36}
    .fil35 {fill:#E06243}
    .fil28 {fill:#E0D9C6}
    .fil30 {fill:#E5C554}
    .fil0 {fill:#EF789D}
    .fil8 {fill:#EF9A9A}
    .fil16 {fill:#EFC048}
    .fil13 {fill:#F2BC41}
    .fil31 {fill:#F2C841}
    .fil37 {fill:#F7F7F7}
    .fil23 {fill:#FAC140}
    .fil11 {fill:white}
   ]]>
  </style>
 </defs>
 <g id="Layer_x0020_1">
  <metadata id="CorelCorpID_0Corel-Layer"/>
  <g id="_374526704">
   <polygon class="fil0" points="3648,2634 -165,2634 -165,-67 3648,-67 "/>
   <path class="fil1" d="M3606 1c-6,-23 -13,-46 -23,-68l-403 0c-10,17 -19,34 -26,52 -10,28 -14,58 -6,87 9,32 32,62 56,86 14,14 30,26 46,39 6,5 12,10 20,14 18,9 38,14 58,17 32,6 66,9 98,7 60,-6 119,-36 155,-85 31,-44 36,-98 25,-149z"/>
   <path class="fil1" d="M3550 32c-7,-16 -17,-31 -29,-45 -1,-1 -3,0 -4,0 -57,16 -120,48 -153,97 -13,19 -20,40 -19,63 0,26 -27,40 -48,48 -7,3 -15,5 -22,8 -9,2 -17,6 -26,7 -42,6 -87,-14 -126,-28 -90,-34 -193,-75 -284,-23 -55,31 -100,89 -117,149 -15,54 -4,110 20,159 20,39 48,74 78,107 37,40 86,61 140,47 20,-5 39,-13 55,-27 9,-8 20,-20 19,-34 -2,-20 -15,-40 -34,-45 -11,-2 -21,-1 -31,2 -6,1 -12,4 -17,6 -5,2 -9,5 -13,7 -1,1 -5,3 -6,4 -1,0 -1,0 -1,0 -2,-1 -4,-2 -5,-3 -4,-2 -7,-5 -10,-8 -8,-9 -15,-19 -22,-30 -15,-25 -26,-54 -27,-83 0,-34 19,-60 51,-72 37,-13 77,-8 116,-11 79,-6 158,-21 234,-43 77,-22 158,-50 223,-99 24,-18 47,-41 59,-70 12,-27 11,-56 -1,-83z"/>
   <path class="fil1" d="M3343 351c0,0 -1,0 -1,0 0,0 1,0 1,0zm12 -274c0,0 0,0 0,0 0,0 0,0 0,0 -2,-10 -12,-17 -22,-15 -8,1 -12,9 -12,17 0,7 1,14 2,22 1,7 1,15 2,23 4,43 7,87 11,130 2,20 3,39 5,58 0,6 1,12 1,19 0,4 -2,7 -4,11 -1,1 -1,2 -1,3 -1,4 4,7 7,7 7,1 10,-9 12,-14 6,-16 9,-34 11,-51 9,-70 3,-142 -12,-210z"/>
   <path class="fil1" d="M3434 94c-2,-10 -4,-20 -6,-30 0,0 0,0 0,0 0,0 0,0 0,0 -3,-11 -13,-18 -24,-16 -9,2 -12,10 -13,19 0,8 1,16 2,24 1,8 2,16 2,25 5,48 9,95 12,143 2,20 4,41 5,61 1,7 2,14 2,20 0,5 -1,9 -4,13 -1,1 -2,3 -2,5 0,4 5,6 8,7 8,1 11,-11 13,-16 7,-18 10,-37 12,-56 8,-66 4,-134 -7,-199z"/>
   <path class="fil2" d="M2902 498c-6,-12 -12,-23 -19,-35 -1,-4 -9,-1 -11,0 -35,15 -69,30 -104,45 -1,0 -4,2 -3,3 11,14 21,27 32,41 1,2 8,1 12,-2 30,-16 60,-32 90,-49 0,0 3,-2 3,-3z"/>
   <path class="fil2" d="M2873 393c-49,-25 -98,-49 -147,-73 -1,-1 -14,-2 -15,0 -7,35 -7,79 13,110 1,1 3,1 6,1 1,0 1,0 2,0 44,-2 89,-3 133,-4 1,0 8,0 8,-1 0,-11 0,-22 0,-33 0,0 0,0 0,0z"/>
   <path class="fil2" d="M2930 336c-8,-66 -16,-132 -23,-199 -1,-1 -2,-1 -3,-1 -49,-2 -96,27 -122,66 0,0 0,1 0,2 35,50 69,100 104,150 1,1 4,1 6,0 0,0 0,0 0,0 1,-1 1,-1 2,-1 8,-7 19,-14 30,-13 2,0 6,-1 6,-4z"/>
   <path class="fil2" d="M3155 191c-27,-10 -54,-20 -81,-30 -1,-1 -2,-1 -4,0 -4,1 -10,4 -10,6 2,53 3,105 5,158 0,1 0,1 1,1 16,-1 32,-2 47,-3 4,0 12,-2 13,-7 10,-41 20,-83 30,-124 0,-1 0,-1 -1,-1z"/>
   <path class="fil2" d="M3252 -41c-1,-3 -6,-2 -5,1 5,11 9,22 14,33 1,2 6,1 5,-2 -5,-11 -10,-21 -14,-32z"/>
   <path class="fil2" d="M3277 -67l8 21c1,3 6,2 5,-1l-8 -20 -5 0z"/>
   <path class="fil2" d="M3353 -44c-1,-3 -6,-2 -5,1 5,11 9,22 14,33 1,3 6,1 5,-1 -5,-11 -10,-22 -14,-33z"/>
   <path class="fil2" d="M3403 -50l-6 -17 -5 0 7 18c1,3 6,1 4,-1z"/>
   <path class="fil2" d="M3325 30c-2,-3 -6,-1 -5,1 5,11 9,22 14,33 1,3 5,1 4,-1 -4,-11 -9,-22 -13,-33z"/>
   <path class="fil2" d="M3241 37c-1,-2 -5,-1 -4,2 4,10 9,21 14,32 1,3 5,2 4,-1 -4,-11 -9,-22 -14,-33z"/>
   <path class="fil3" d="M3298 -67c-3,68 -22,141 -51,201 -37,76 -76,153 -132,217 -28,32 -57,61 -83,94 -11,15 -32,25 -47,34 -8,5 -18,15 -26,18 -11,3 -10,-6 -11,-15 -2,-22 -5,-45 -7,-67 -2,-33 5,-66 8,-98 7,-73 26,-151 44,-223 10,-38 23,-75 42,-111 9,-16 17,-33 26,-50l237 0z"/>
   <path class="fil4" d="M3187 -67c-17,8 -102,51 -150,117 0,1 0,2 1,3 1,1 3,1 3,0 47,-65 130,-107 148,-115 -23,48 -46,99 -67,148 -9,3 -80,28 -116,77 -1,1 -1,2 0,3 1,1 3,1 4,0 32,-43 92,-68 109,-74 -18,43 -36,85 -52,123 -7,3 -43,18 -80,65 -1,1 -1,3 0,4 2,0 3,0 4,-1 30,-39 61,-56 73,-61 -47,113 -79,198 -80,200 0,1 0,2 1,3 2,0 3,0 4,-2 0,-1 33,-86 80,-200 29,58 10,122 10,122 -1,2 0,3 1,3 2,1 3,0 3,-1 1,-1 21,-70 -12,-130 17,-39 34,-81 53,-124 41,69 30,157 30,158 0,1 1,2 2,2 2,0 3,0 3,-2 0,-1 11,-93 -32,-163 21,-49 43,-100 66,-148 9,17 25,92 37,164 0,1 1,2 2,2 2,0 3,-2 2,-3 0,0 -6,-42 -15,-84 -12,-59 -19,-78 -23,-84l0 -2 -9 0z"/>
   <path class="fil5" d="M3434 -67c18,37 29,75 35,112 11,75 20,151 6,227 -7,38 -16,74 -20,112 -2,16 -15,34 -23,49 -5,7 -7,20 -14,26 -8,7 -12,1 -18,-5 -15,-16 -30,-30 -45,-46 -21,-23 -34,-50 -50,-75 -35,-58 -64,-124 -88,-186 -14,-33 -23,-67 -27,-102 -4,-38 -10,-75 0,-112l244 0z"/>
   <path class="fil6" d="M3296 -67c-14,21 -61,91 -65,159 0,1 1,2 2,2 2,0 3,-1 3,-2 5,-70 54,-142 66,-159l-6 0zm7 0c7,47 16,95 25,142 -6,7 -56,62 -61,116 0,1 1,2 3,2 1,0 2,-1 3,-2 4,-48 44,-97 56,-110 8,40 16,80 24,117 -4,5 -29,35 -35,88 0,1 1,2 3,2 1,0 2,0 3,-2 4,-44 23,-72 30,-82 24,107 43,185 43,187 1,1 2,2 4,2 1,-1 2,-2 2,-3 -1,-2 -20,-80 -43,-188 59,28 79,84 79,85 0,1 2,1 3,1 2,0 3,-2 2,-3 0,0 -21,-61 -86,-88 -8,-37 -16,-77 -24,-118 77,29 118,99 119,100 0,1 2,1 3,0 1,0 2,-1 1,-2 0,-1 -43,-74 -124,-103 -9,-46 -17,-94 -25,-141l-5 0zm8 0c21,12 76,56 125,100 1,1 3,1 4,0 1,-1 1,-2 0,-3 -1,-1 -31,-28 -63,-54 -28,-23 -46,-36 -57,-43l-9 0z"/>
   <path class="fil3" d="M3612 -67c2,15 1,30 -3,45 -6,29 -8,73 28,104 4,3 8,7 11,11l0 179c-8,-29 -20,-42 -40,-52 -23,-11 -59,-79 -68,-122 -9,-43 -91,-72 -114,-106 -10,-14 -17,-33 -18,-59l204 0z"/>
   <path class="fil5" d="M3648 266c-19,31 -51,64 -101,51 0,0 12,-85 101,-100l0 49z"/>
   <path class="fil5" d="M3589 483c0,0 -53,118 31,157 0,0 52,-85 -31,-157z"/>
   <path class="fil5" d="M3402 575c0,0 150,38 194,-89 0,0 -109,-46 -194,89z"/>
   <path class="fil5" d="M3492 441c0,0 21,-111 144,-103 0,0 -8,122 -144,103z"/>
   <path class="fil5" d="M3648 494c-25,-32 -46,-84 -18,-157 0,0 8,3 18,10l0 147z"/>
   <path class="fil5" d="M3580 499l8 3c1,-1 30,-69 60,-189l0 -38c-32,141 -67,222 -68,224z"/>
   <path class="fil7" d="M3536 981c-1,-2 -2,-2 -4,-2 -6,1 -13,2 -19,3 0,0 0,0 -1,0 0,0 0,0 0,0 0,0 0,0 0,0 0,0 0,0 0,0 0,0 -1,0 -1,0 -1,1 -2,2 -2,3 5,32 10,63 15,94 12,75 24,150 36,226 15,90 29,180 44,271 12,78 25,156 38,234 2,15 4,29 6,43l0 -64c-8,-62 -17,-123 -25,-184 -13,-91 -26,-182 -38,-273 -11,-78 -22,-157 -33,-235 -4,-26 -7,-52 -11,-78 -2,-12 -2,-25 -5,-37 0,0 0,-1 0,-1z"/>
   <path class="fil7" d="M3648 1291l-59 -263c-3,-11 -5,-22 -8,-33 0,-2 0,-4 -1,-5 -2,-3 -9,-5 -12,-6 -4,-3 -9,-5 -13,-8 -1,-1 -3,-1 -4,0 -2,1 -3,3 -3,4 15,59 29,119 44,178 19,79 38,157 56,235l0 -102z"/>
   <path class="fil8" d="M3648 644l0 407c-15,11 -31,22 -48,31 -53,29 -112,44 -173,42 -63,-3 -130,-23 -179,-65 -80,-68 -92,-185 -50,-277 19,-41 49,-79 89,-100 30,-16 58,-33 72,-65 11,-23 12,-49 10,-74 -1,-14 -2,-31 -13,-41 -2,-1 -3,-2 -5,-3 1,4 -4,12 -6,16 -13,16 -37,16 -55,10 -12,-4 -22,-12 -25,-25 -2,-13 2,-27 7,-39 8,-19 33,-27 53,-29 0,0 0,0 0,0 23,-4 44,1 60,19 15,15 25,35 32,55 7,22 12,43 8,66 -9,60 -56,108 -97,150 -11,11 -22,21 -28,36 -5,15 -5,31 1,45 6,13 17,25 30,30 10,3 19,2 26,-5 2,-3 6,-7 7,-11 1,-5 -1,-11 -1,-16 0,-8 1,-15 2,-22 2,-14 8,-28 15,-40 12,-22 30,-40 50,-55 61,-46 144,-58 218,-40z"/>
   <path class="fil9" d="M3291 499c0,0 -15,-11 -21,-2 -6,9 -31,43 -30,48 1,3 26,9 38,12 3,1 6,-1 7,-3l14 -25c6,-11 3,-24 -8,-30 0,0 0,0 0,0z"/>
   <path class="fil10" d="M3285 549l-37 -15c-2,-1 -4,0 -5,1 -2,5 -11,23 2,38l3 3c9,11 14,16 18,16 0,0 1,0 1,0 1,0 3,-1 5,-3 5,-5 12,-27 15,-36 0,-1 -1,-3 -2,-4z"/>
   <path class="fil11" d="M3325 489c2,9 -5,19 -15,20 -9,2 -18,-5 -20,-15 -2,-9 5,-18 15,-20 10,-2 19,5 20,15z"/>
   <path class="fil1" d="M3316 499c-1,-2 -2,-3 -4,-4 -2,-1 -3,0 -4,0 0,1 -1,2 -1,4 0,2 1,3 2,5 1,1 2,2 4,3 1,1 2,1 3,1 0,0 1,0 1,-1 2,-1 1,-5 -1,-8z"/>
   <path class="fil11" d="M3643 768c-6,0 -11,1 -17,2 6,-5 12,-10 17,-17 10,-14 3,-32 -10,-42 -17,-13 -38,-5 -55,4 -6,4 -13,8 -19,13 1,-2 1,-4 1,-6 2,-17 -11,-22 -25,-18 -38,10 -62,53 -78,85 -5,11 -10,22 -14,33 0,1 0,2 0,3l0 0c0,0 0,0 0,0 1,2 3,5 5,6 23,9 48,17 72,23 41,11 86,20 128,13l0 -100c-1,0 -3,1 -5,1z"/>
   <path class="fil4" d="M3576 1325c0,0 -137,-89 -202,8 0,0 95,81 202,-8z"/>
   <path class="fil4" d="M3497 1075c0,0 -77,179 74,257 0,0 78,-126 -74,-257z"/>
   <path class="fil4" d="M3274 1141c0,0 -148,-66 -102,-174 0,0 119,37 102,174z"/>
   <path class="fil4" d="M3021 1211c0,0 110,-162 257,-78 0,0 -64,134 -257,78z"/>
   <path class="fil4" d="M3218 1262c0,0 112,88 222,-23 0,0 -111,-109 -222,23z"/>
   <path class="fil4" d="M3331 1003c0,0 -59,158 104,241 0,0 82,-162 -104,-241z"/>
   <path class="fil4" d="M3253 1134l5 -10c1,1 168,78 390,259l0 15c-225,-184 -393,-263 -395,-264z"/>
   <path class="fil5" d="M-122 1381c0,0 120,-110 200,-25 0,0 -81,95 -200,25z"/>
   <path class="fil5" d="M-85 1122c0,0 104,164 -31,266 0,0 -98,-112 31,-266z"/>
   <path class="fil5" d="M145 1151c0,0 136,-90 73,-188 0,0 -112,56 -73,188z"/>
   <path class="fil5" d="M406 1178c0,0 -134,-141 -266,-34 0,0 85,121 266,34z"/>
   <path class="fil5" d="M220 1261c0,0 -96,105 -222,13 0,0 91,-125 222,-13z"/>
   <path class="fil5" d="M67 1024c0,0 84,146 -63,255 0,0 -108,-146 63,-255z"/>
   <path class="fil5" d="M165 1140l-6 -9c-2,1 -143,98 -324,298l0 16c184,-205 328,-303 330,-305z"/>
   <path class="fil12" d="M858 2504c-206,0 -368,27 -368,61 0,34 162,61 368,61 207,0 368,-27 368,-61 0,-34 -161,-61 -368,-61z"/>
   <path class="fil13" d="M1270 2200c-9,-62 -35,-117 -63,-172 -29,-56 -57,-112 -84,-169 -10,-22 -20,-45 -33,-66 -9,-15 -22,-27 -35,-39 -13,-12 -26,-26 -40,-38 -28,-25 -61,-47 -96,-62 -33,-15 -70,-24 -106,-23 -32,1 -61,13 -90,26 -41,18 -79,42 -90,89 -7,32 -4,65 1,96 1,4 4,6 7,6 16,2 30,5 45,9 25,6 53,14 74,30 8,7 16,17 16,28 0,6 -2,12 -4,18 -5,12 -10,24 -15,37 -15,40 -25,82 -3,122 9,16 27,30 28,49 2,14 -5,27 -13,38 -15,22 -39,40 -61,54 -26,17 -46,42 -61,68 -17,32 -26,67 -25,103 2,51 25,97 55,136 -9,3 -20,1 -29,-3 -15,-7 -25,-20 -34,-33 -17,-26 -26,-57 -34,-87 -8,-33 -15,-67 -16,-102 -1,-22 -1,-45 6,-67 4,-10 10,-23 20,-28 4,-1 7,-1 11,0 9,4 16,11 25,14 24,7 45,-16 40,-40 -4,-17 -26,-26 -41,-28 -29,-11 -66,-8 -86,16 -21,26 -23,65 -25,96 -4,72 2,148 34,212 17,36 43,67 76,88 40,25 89,34 136,34 52,-1 107,-13 158,-27 65,-18 130,-44 188,-79 67,-41 127,-99 153,-174 14,-43 17,-88 11,-132z"/>
   <path class="fil14" d="M700 1699c-5,-24 -19,-53 -44,-60 -21,-6 -44,8 -58,23 -15,16 -16,37 -5,56 8,13 20,24 33,32 1,1 4,1 6,1 1,0 2,-1 3,-1 21,-16 42,-32 63,-48 1,-1 2,-2 2,-3z"/>
   <path class="fil11" d="M686 1702c-5,-21 -20,-43 -44,-33 -16,6 -32,21 -26,39 3,11 13,21 22,27 1,0 3,0 4,0 2,-1 3,-1 3,-1 13,-10 27,-20 40,-30 0,-1 1,-1 1,-2z"/>
   <path class="fil15" d="M818 2110c-4,-32 -10,-63 -13,-95 -2,-16 -2,-31 -2,-47 0,-18 3,-35 4,-52 3,-46 2,-94 -11,-138 -1,-2 -1,-4 -2,-6l0 0c0,0 0,0 0,0 -1,-1 -3,-2 -5,-2 -3,-2 -7,-3 -8,-2 -11,30 -21,59 -32,88 -2,6 -5,12 -6,19 -2,7 2,12 4,20 3,23 -7,44 -14,65 -14,46 -21,98 -1,143 7,15 19,30 19,47 -1,25 -18,48 -33,66 -18,21 -38,40 -55,62 -2,2 -11,11 -10,14 1,4 11,6 13,7 47,17 93,-1 127,-34 41,-40 32,-104 25,-155z"/>
   <path class="fil16" d="M853 1793c-8,-46 -39,-106 -93,-107 -33,-7 -73,-7 -103,11 -27,16 -35,44 -37,74 -2,30 0,60 13,87 28,58 104,67 160,52 53,-14 68,-68 60,-117z"/>
   <path class="fil11" d="M727 1832c0,0 -2,46 -21,29 -18,-17 11,-50 21,-29z"/>
   <path class="fil11" d="M727 1832c0,0 2,46 21,29 19,-17 -10,-50 -21,-29z"/>
   <path class="fil11" d="M640 1783c0,0 31,-37 66,5 0,0 -37,29 -66,-5z"/>
   <path class="fil14" d="M692 1785c-1,-3 -2,-6 -3,-8 -2,-3 -4,-3 -5,-3 -1,0 -3,1 -4,5 0,2 0,5 1,8 1,6 4,12 7,12 0,0 0,0 1,0 3,-1 4,-8 3,-14z"/>
   <path class="fil11" d="M760 1783c0,0 26,-35 62,7 0,0 -33,27 -62,-7z"/>
   <path class="fil14" d="M812 1785c-1,-3 -2,-6 -3,-8 -2,-3 -4,-3 -5,-3 -1,0 -3,1 -3,5 -1,2 -1,5 0,8 1,6 4,12 7,12 0,0 1,0 1,0 3,-1 4,-8 3,-14z"/>
   <path class="fil11" d="M706 1686c0,0 7,146 13,154l19 0 20 -151c0,0 -43,-10 -52,-3z"/>
   <path class="fil10" d="M741 1810c-9,0 -18,0 -27,0 0,0 0,0 0,0 -1,0 -1,1 -1,1 1,4 1,8 2,12 0,5 0,12 2,16 2,2 4,2 6,2 5,0 10,0 15,0 1,0 1,0 1,-1 1,-9 3,-19 4,-29 0,-1 -1,-1 -2,-1z"/>
   <path class="fil10" d="M744 1836c0,0 -1,-1 -2,-1 0,0 -1,1 -1,1 0,1 1,2 1,2 1,0 2,-1 2,-2z"/>
   <path class="fil10" d="M736 1843c-1,0 -1,1 -1,2 0,1 0,1 1,1 1,0 2,0 2,-1 0,-1 -1,-2 -2,-2z"/>
   <path class="fil10" d="M743 1843c0,1 1,1 2,1 0,0 1,0 1,-1 0,-1 -1,-2 -1,-2 -1,0 -2,1 -2,2z"/>
   <path class="fil10" d="M745 1847c-1,0 -2,1 -2,2 0,1 1,2 2,2 0,0 1,-1 1,-2 0,-1 -1,-2 -1,-2z"/>
   <path class="fil10" d="M717 1843c0,0 -1,1 -1,2 0,1 1,1 1,1 1,0 2,0 2,-1 0,-1 -1,-2 -2,-2z"/>
   <path class="fil10" d="M713 1835c-1,0 -1,1 -1,1 0,1 0,2 1,2 1,0 2,-1 2,-2 0,0 -1,-1 -2,-1z"/>
   <path class="fil10" d="M707 1841c-1,0 -2,1 -2,2 0,1 1,1 2,1 1,0 1,0 1,-1 0,-1 0,-2 -1,-2z"/>
   <path class="fil10" d="M711 1847c-1,0 -1,1 -1,2 0,1 0,2 1,2 1,0 2,-1 2,-2 0,-1 -1,-2 -2,-2z"/>
   <path class="fil10" d="M657 1823l-84 0c-1,0 -1,-1 -1,-2 0,0 0,-1 1,-1l84 0c1,0 2,1 2,1 0,1 -1,2 -2,2z"/>
   <path class="fil10" d="M582 1863c-1,0 -1,-1 -1,-1 -1,-1 0,-2 0,-2l74 -24c0,-1 1,0 1,0 1,1 0,2 0,2l-74 25c0,0 0,0 0,0z"/>
   <path class="fil10" d="M617 1887c0,0 0,0 -1,0 0,-1 0,-2 0,-2l41 -36c0,0 1,0 1,0 1,1 1,2 0,2l-40 36c0,0 0,0 -1,0z"/>
   <path class="fil10" d="M901 1815l-85 0c0,0 -1,-1 -1,-2 0,0 1,-1 1,-1l85 0c1,0 1,1 1,1 0,1 0,2 -1,2z"/>
   <path class="fil10" d="M892 1855c0,0 0,0 0,0l-74 -25c-1,0 -1,-1 -1,-1 1,-1 1,-1 2,-1l73 24c1,0 1,1 1,2 0,1 0,1 -1,1z"/>
   <path class="fil10" d="M856 1879c0,0 0,0 -1,0l-40 -36c0,0 0,-1 0,-1 1,-1 2,-1 2,-1l40 36c1,0 1,1 0,2 0,0 0,0 -1,0z"/>
   <polygon class="fil10" points="729,1865 726,1865 726,1835 729,1835 "/>
   <path class="fil10" d="M708 1881c2,-4 5,-8 9,-11 12,-10 24,0 32,10 1,1 6,1 5,0 -8,-10 -21,-21 -36,-15 -6,2 -12,8 -15,15 -1,1 4,2 5,1l0 0z"/>
   <path class="fil10" d="M715 1863c-17,-11 -20,-30 -13,-48 6,-12 14,-20 4,-33 -20,-26 -50,-18 -71,3 -2,2 6,1 7,-1 14,-13 32,-22 49,-8 8,7 16,17 10,28 -4,9 -9,17 -10,28 -2,14 5,26 17,34 2,1 9,-2 7,-3l0 0z"/>
   <path class="fil10" d="M738 1866c29,-4 22,-37 18,-57 -3,-13 1,-23 13,-32 15,-10 36,-3 48,13 1,2 9,-1 7,-2 -11,-15 -27,-22 -45,-18 -13,3 -27,12 -31,24 -3,8 0,16 2,24 2,12 8,42 -10,45 -4,0 -7,4 -2,3l0 0z"/>
   <path class="fil15" d="M671 2201c0,-1 0,-2 -1,-2 -1,-16 -14,-29 -30,-28 -17,0 -31,14 -31,31 0,17 13,30 30,30 17,0 30,-13 31,-30 1,0 1,-1 1,-1z"/>
   <path class="fil17" d="M1131 2000c0,7 -6,13 -13,13 -7,0 -13,-6 -13,-13 0,-7 6,-13 13,-13 7,0 13,6 13,13z"/>
   <path class="fil17" d="M978 1924c0,6 -5,11 -10,11 -6,0 -10,-5 -10,-11 0,-7 4,-12 10,-12 5,0 10,5 10,12z"/>
   <path class="fil17" d="M1038 1918c0,3 -3,6 -6,6 -3,0 -6,-3 -6,-6 0,-3 3,-6 6,-6 3,0 6,3 6,6z"/>
   <path class="fil17" d="M1083 2075c0,7 -6,13 -13,13 -7,0 -13,-6 -13,-13 0,-8 6,-13 13,-13 7,0 13,5 13,13z"/>
   <path class="fil17" d="M1115 1899c0,7 -6,13 -13,13 -7,0 -13,-6 -13,-13 0,-7 6,-13 13,-13 7,0 13,6 13,13z"/>
   <path class="fil17" d="M1169 2080c7,3 10,11 8,17 -3,7 -11,11 -18,8 -6,-3 -10,-11 -7,-17 3,-7 10,-11 17,-8z"/>
   <path class="fil17" d="M626 2186c0,5 -4,9 -9,9 -5,0 -9,-4 -9,-9 0,-5 4,-9 9,-9 5,0 9,4 9,9z"/>
   <path class="fil17" d="M551 2217c0,2 -2,4 -5,4 -2,0 -4,-2 -4,-4 0,-2 2,-4 4,-4 3,0 5,2 5,4z"/>
   <path class="fil17" d="M546 2283c0,3 -2,5 -5,5 -3,0 -6,-2 -6,-5 0,-3 3,-6 6,-6 3,0 5,3 5,6z"/>
   <path class="fil17" d="M1009 2391c0,3 -3,6 -6,6 -3,0 -6,-3 -6,-6 0,-3 3,-5 6,-5 3,0 6,2 6,5z"/>
   <path class="fil17" d="M579 2432c0,4 -3,7 -6,7 -4,0 -7,-3 -7,-7 0,-4 3,-7 7,-7 3,0 6,3 6,7z"/>
   <path class="fil17" d="M1033 2156c0,4 -3,7 -6,7 -4,0 -7,-3 -7,-7 0,-3 3,-6 7,-6 3,0 6,3 6,6z"/>
   <path class="fil17" d="M578 2499c-3,3 -7,3 -9,0 -3,-3 -3,-7 0,-10 3,-2 7,-2 9,1 3,2 3,7 0,9z"/>
   <path class="fil17" d="M711 2548c0,6 -5,11 -11,11 -6,0 -11,-5 -11,-11 0,-6 5,-11 11,-11 6,0 11,5 11,11z"/>
   <path class="fil17" d="M673 2447c0,4 -3,7 -7,7 -5,0 -8,-3 -8,-7 0,-5 3,-8 8,-8 4,0 7,3 7,8z"/>
   <path class="fil17" d="M728 2375c5,5 5,12 0,17 -4,5 -12,6 -17,1 -5,-4 -5,-12 -1,-17 5,-5 13,-5 18,-1z"/>
   <path class="fil17" d="M751 2465c0,7 -6,12 -12,12 -7,0 -13,-5 -13,-12 0,-7 6,-12 13,-12 6,0 12,5 12,12z"/>
   <path class="fil17" d="M837 2518c0,4 -4,8 -9,8 -5,0 -9,-4 -9,-8 0,-5 4,-9 9,-9 5,0 9,4 9,9z"/>
   <path class="fil17" d="M1008 2521c0,3 -3,5 -6,5 -3,0 -5,-2 -5,-5 0,-3 2,-6 5,-6 3,0 6,3 6,6z"/>
   <path class="fil17" d="M1119 2397c0,4 -3,7 -7,7 -4,0 -7,-3 -7,-7 0,-4 3,-7 7,-7 4,0 7,3 7,7z"/>
   <path class="fil17" d="M1248 2254c4,-1 8,1 8,5 1,3 -1,7 -5,8 -4,0 -7,-2 -8,-6 -1,-3 2,-7 5,-7z"/>
   <path class="fil17" d="M858 2188c3,0 7,2 8,6 0,3 -2,7 -6,7 -3,1 -7,-1 -7,-5 -1,-4 1,-7 5,-8z"/>
   <path class="fil17" d="M856 2422c0,5 -5,10 -10,10 -6,0 -10,-5 -10,-10 0,-6 4,-10 10,-10 5,0 10,4 10,10z"/>
   <path class="fil17" d="M906 2346c0,4 -3,7 -6,7 -4,0 -7,-3 -7,-7 0,-4 3,-7 7,-7 3,0 6,3 6,7z"/>
   <path class="fil17" d="M878 2277c0,6 -5,11 -12,11 -6,0 -11,-5 -11,-11 0,-6 5,-11 11,-11 7,0 12,5 12,11z"/>
   <path class="fil17" d="M806 2279c0,5 -4,9 -9,9 -4,0 -8,-4 -8,-9 0,-5 4,-9 8,-9 5,0 9,4 9,9z"/>
   <path class="fil17" d="M808 2348c0,5 -4,9 -9,9 -5,0 -9,-4 -9,-9 0,-5 4,-9 9,-9 5,0 9,4 9,9z"/>
   <path class="fil17" d="M944 2173c0,6 -5,11 -11,11 -6,0 -11,-5 -11,-11 0,-6 5,-11 11,-11 6,0 11,5 11,11z"/>
   <path class="fil17" d="M988 2092c0,6 -5,11 -11,11 -6,0 -11,-5 -11,-11 0,-6 5,-11 11,-11 6,0 11,5 11,11z"/>
   <path class="fil17" d="M884 1775c0,4 -3,8 -7,8 -5,0 -8,-4 -8,-8 0,-4 3,-8 8,-8 4,0 7,4 7,8z"/>
   <path class="fil17" d="M766 1738c0,2 -1,3 -3,3 -2,0 -3,-1 -3,-3 0,-2 1,-3 3,-3 2,0 3,1 3,3z"/>
   <path class="fil17" d="M859 1923c0,5 -4,9 -9,9 -5,0 -9,-4 -9,-9 0,-5 4,-9 9,-9 5,0 9,4 9,9z"/>
   <path class="fil17" d="M695 1743c0,3 -2,5 -4,5 -3,0 -5,-2 -5,-5 0,-2 2,-4 5,-4 2,0 4,2 4,4z"/>
   <path class="fil17" d="M1140 1951c0,3 -2,5 -4,5 -3,0 -5,-2 -5,-5 0,-2 2,-4 5,-4 2,0 4,2 4,4z"/>
   <path class="fil17" d="M640 1748c0,2 -2,4 -5,4 -2,0 -4,-2 -4,-4 0,-3 2,-5 4,-5 3,0 5,2 5,5z"/>
   <path class="fil17" d="M733 1678c-4,0 -7,-4 -7,-8 0,-3 3,-7 7,-7 4,0 7,4 7,7 0,4 -3,8 -7,8z"/>
   <path class="fil17" d="M686 1699c0,3 -2,5 -4,5 -3,0 -5,-2 -5,-5 0,-2 2,-4 5,-4 2,0 4,2 4,4z"/>
   <path class="fil17" d="M893 1673c0,3 -2,6 -5,6 -4,0 -6,-3 -6,-6 0,-3 2,-5 6,-5 3,0 5,2 5,5z"/>
   <path class="fil17" d="M1048 1844c5,4 6,11 1,16 -4,5 -11,5 -15,1 -5,-4 -5,-11 -1,-16 4,-4 11,-5 15,-1z"/>
   <path class="fil17" d="M1010 1990c4,4 5,11 1,16 -4,5 -11,5 -16,1 -5,-4 -5,-11 -1,-16 4,-4 11,-5 16,-1z"/>
   <path class="fil17" d="M1191 2309c4,4 5,11 1,15 -4,5 -11,6 -16,2 -5,-5 -5,-12 -1,-16 4,-5 11,-5 16,-1z"/>
   <path class="fil17" d="M1079 2337c5,4 5,11 1,16 -4,4 -11,5 -15,1 -5,-4 -6,-11 -2,-16 5,-5 12,-5 16,-1z"/>
   <path class="fil17" d="M1143 2443c4,5 5,12 1,16 -5,5 -12,5 -16,1 -5,-4 -5,-11 -1,-15 4,-5 11,-6 16,-2z"/>
   <path class="fil17" d="M1108 2153c4,4 5,11 1,16 -4,5 -11,5 -16,1 -5,-4 -5,-11 -1,-16 4,-4 11,-5 16,-1z"/>
   <path class="fil17" d="M979 2229c4,4 5,11 1,15 -4,5 -11,5 -16,1 -5,-4 -5,-11 -1,-15 4,-5 11,-6 16,-1z"/>
   <path class="fil17" d="M1207 2376c5,4 5,11 1,16 -4,5 -11,5 -16,1 -4,-4 -5,-11 -1,-16 4,-4 11,-5 16,-1z"/>
   <path class="fil17" d="M1128 2275c4,4 5,11 1,16 -4,4 -11,5 -16,1 -4,-4 -5,-11 -1,-16 4,-5 11,-5 16,-1z"/>
   <path class="fil17" d="M1003 2468c4,4 5,11 1,15 -4,5 -11,5 -16,1 -4,-4 -5,-11 -1,-15 4,-5 11,-5 16,-1z"/>
   <path class="fil17" d="M874 2072c5,5 5,12 1,16 -4,5 -11,5 -15,1 -5,-4 -5,-11 -1,-16 4,-4 11,-5 15,-1z"/>
   <path class="fil17" d="M966 1719c0,6 -5,11 -11,11 -6,0 -11,-5 -11,-11 0,-6 5,-11 11,-11 6,0 11,5 11,11z"/>
   <path class="fil17" d="M972 1819c0,4 -3,7 -6,7 -4,0 -7,-3 -7,-7 0,-3 3,-6 7,-6 3,0 6,3 6,6z"/>
   <path class="fil17" d="M927 1847c0,5 -5,10 -10,10 -6,0 -10,-5 -10,-10 0,-6 4,-10 10,-10 5,0 10,4 10,10z"/>
   <path class="fil17" d="M993 1760c0,4 -3,8 -8,8 -4,0 -7,-4 -7,-8 0,-4 3,-8 7,-8 5,0 8,4 8,8z"/>
   <path class="fil17" d="M1062 1775c0,5 -4,9 -9,9 -4,0 -8,-4 -8,-9 0,-4 4,-8 8,-8 5,0 9,4 9,8z"/>
   <path class="fil17" d="M664 2326c0,5 -4,9 -9,9 -5,0 -9,-4 -9,-9 0,-5 4,-9 9,-9 5,0 9,4 9,9z"/>
   <path class="fil17" d="M641 2554c0,3 -3,6 -7,6 -4,0 -7,-3 -7,-6 0,-4 3,-7 7,-7 4,0 7,3 7,7z"/>
   <path class="fil17" d="M922 2554c0,4 -4,8 -8,8 -4,0 -8,-4 -8,-8 0,-4 4,-8 8,-8 4,0 8,4 8,8z"/>
   <path class="fil17" d="M1207 2058c0,3 -3,6 -6,6 -3,0 -6,-3 -6,-6 0,-3 3,-5 6,-5 3,0 6,2 6,5z"/>
   <path class="fil17" d="M1242 2165c0,4 -3,8 -8,8 -4,0 -7,-4 -7,-8 0,-5 3,-8 7,-8 5,0 8,3 8,8z"/>
   <path class="fil17" d="M640 2224c0,3 -3,6 -7,6 -4,0 -7,-3 -7,-6 0,-4 3,-7 7,-7 4,0 7,3 7,7z"/>
   <path class="fil17" d="M802 1723c0,4 -3,7 -7,7 -3,0 -6,-3 -6,-7 0,-3 3,-6 6,-6 4,0 7,3 7,6z"/>
   <path class="fil17" d="M1183 2194c0,10 -7,17 -17,17 -9,0 -17,-7 -17,-17 0,-9 8,-17 17,-17 10,0 17,8 17,17z"/>
   <path class="fil17" d="M995 2318c0,6 -5,11 -11,11 -6,0 -11,-5 -11,-11 0,-6 5,-11 11,-11 6,0 11,5 11,11z"/>
   <path class="fil17" d="M1072 2242c0,6 -5,12 -12,12 -7,0 -12,-6 -12,-12 0,-7 5,-13 12,-13 7,0 12,6 12,13z"/>
   <path class="fil17" d="M942 2443c0,8 -7,15 -15,15 -9,0 -16,-7 -16,-15 0,-9 7,-16 16,-16 8,0 15,7 15,16z"/>
   <path class="fil17" d="M879 2013c-8,-4 -11,-13 -8,-21 3,-8 13,-12 21,-8 8,3 11,12 8,20 -4,8 -13,12 -21,9z"/>
   <path class="fil17" d="M762 2593c-6,-2 -9,-9 -7,-15 3,-6 10,-9 16,-6 6,2 9,9 6,15 -2,6 -9,9 -15,6z"/>
   <path class="fil17" d="M525 2371c-5,-2 -7,-8 -5,-13 2,-5 8,-7 13,-5 5,2 8,8 5,13 -2,5 -8,8 -13,5z"/>
   <path class="fil17" d="M1051 2480c-7,-3 -10,-12 -7,-19 3,-8 12,-11 19,-8 8,4 11,12 8,20 -3,7 -12,10 -20,7z"/>
   <path class="fil5" d="M1641 2634c-6,-17 -12,-38 -15,-61 -8,-53 7,-106 39,-151 25,-34 53,-89 26,-145 -43,-91 17,-179 17,-179 0,0 21,-32 14,-67 -4,-25 -2,-51 9,-74 3,-7 24,-37 29,-44 0,0 41,51 30,102 -11,51 -4,76 18,102 22,25 28,130 14,189 -14,58 71,136 81,191 6,34 -3,81 -41,137l-221 0z"/>
   <path class="fil3" d="M1607 2634c-5,-8 -9,-17 -13,-27 -14,-37 -13,-77 3,-113 12,-27 23,-70 -6,-107 -47,-60 -19,-131 -19,-131 0,0 10,-25 -1,-49 -7,-17 -10,-36 -6,-54 1,-6 11,-30 13,-36 0,0 38,31 39,69 1,38 10,56 30,71 20,15 42,89 42,133 0,44 74,89 91,127 11,25 12,65 -13,117l-160 0z"/>
   <path class="fil18" d="M1780 2634c-1,-11 -1,-24 2,-39 5,-32 23,-61 50,-83 21,-16 47,-44 42,-81 -9,-60 42,-103 42,-103 0,0 18,-15 21,-37 2,-15 7,-30 18,-42 3,-4 21,-18 25,-22 0,0 15,36 -1,64 -15,28 -16,44 -8,62 9,18 -7,81 -26,113 -19,32 17,90 13,123 -2,13 -8,29 -21,45l-157 0z"/>
   <polygon class="fil19" points="3632,2634 3644,2633 3590,2205 3578,2206 "/>
   <path class="fil5" d="M3339 2047c3,-50 16,-99 27,-148 5,-21 9,-41 11,-62 2,-16 1,-32 -1,-48 -4,-42 -10,-83 -15,-124 -7,-53 -8,-109 4,-162 13,-61 48,-117 109,-137 18,-6 35,-9 53,-10 39,-2 81,7 116,25 2,1 4,2 5,3l0 835c-46,7 -95,5 -141,-3 -47,-9 -97,-25 -133,-58 -14,-14 -25,-30 -31,-48 -6,-20 -6,-42 -4,-63z"/>
   <path class="fil3" d="M3589 2225c30,-46 34,-166 13,-356 -17,-141 -42,-270 -42,-271l-9 1c1,5 99,514 30,621l8 5z"/>
   <path class="fil3" d="M3581 1736c44,-18 61,-79 62,-82l-9 -2c0,0 -17,59 -56,76l3 8z"/>
   <path class="fil3" d="M3609 2069l3 -9c-65,-20 -104,-57 -125,-84 -23,-29 -31,-53 -31,-54l-9 3c1,1 33,103 162,144z"/>
   <path class="fil3" d="M3605 1939c21,-4 36,-21 43,-32l0 -11 -2 -2c0,1 -18,31 -42,35l1 10z"/>
   <path class="fil20" d="M3378 2171c-23,-74 -31,-153 -12,-228 16,-62 50,-118 93,-164 41,-45 90,-80 143,-110 15,-9 31,-17 46,-25l0 332c-33,38 -70,73 -110,104 -32,25 -66,48 -101,68 -11,7 -22,13 -33,18 -5,3 -10,6 -16,8 0,0 0,0 0,0 -2,1 -5,1 -7,0 -1,-1 -3,-1 -3,-2 0,0 0,0 0,0 0,-1 0,-1 0,-1z"/>
   <path class="fil10" d="M3575 1681c14,-10 28,-19 43,-27 10,-6 20,-12 30,-17l0 97 -5 3c-3,1 -9,0 -9,-5 2,-19 4,-38 6,-57 -19,4 -38,8 -58,12 -3,1 -12,-2 -7,-6z"/>
   <path class="fil11" d="M3068 1831c6,-41 14,-82 23,-122 6,-24 12,-48 18,-72 5,-20 8,-43 23,-60 12,-13 29,-21 46,-22 1,0 1,0 1,0 17,-1 34,4 48,14 16,12 23,29 33,47 19,35 42,68 65,101 10,14 18,30 27,44 11,19 22,37 32,56 29,57 46,120 47,185 0,42 -6,85 -18,126 -4,11 -8,22 -11,33 -1,3 -2,5 -4,7 -9,10 -26,13 -39,14 -53,5 -106,12 -159,9 -25,-1 -52,-4 -74,-16 -12,-7 -17,-16 -23,-27 -9,-17 -19,-33 -26,-51 -12,-31 -17,-64 -19,-96 -3,-57 2,-114 10,-170z"/>
   <path class="fil21" d="M2949 1773c25,-64 57,-125 91,-184 25,-43 52,-85 80,-125 5,-8 11,-16 17,-23 9,-13 21,-20 36,-21 11,-1 23,0 34,4 4,1 8,3 12,4 5,1 11,1 16,1 16,-1 33,-3 48,-6 3,-1 12,4 7,5 -29,11 -57,31 -78,53 -16,17 -26,37 -28,60 -1,19 3,38 9,56 3,9 7,19 12,27 1,1 1,1 1,1 0,0 0,0 0,0 25,61 50,122 76,183 14,33 28,67 42,100 8,21 17,41 23,63 17,64 32,159 -34,201 -41,27 -97,24 -143,15 -16,-2 -31,-7 -47,-10 -23,-4 -47,-7 -70,-14 -32,-9 -63,-23 -88,-44 -44,-38 -61,-95 -60,-151 0,-67 20,-133 44,-195z"/>
   <path class="fil10" d="M3297 2015c1,-9 2,-17 4,-26 2,-10 12,-18 23,-16 9,2 11,12 11,20 0,6 -1,13 -1,19 -1,8 -1,16 -2,24 -3,42 -5,85 -7,128 -1,18 -2,36 -3,54 0,6 -1,13 -1,19 0,4 1,7 3,9 2,2 3,4 3,6 0,4 -5,6 -8,6 -7,2 -11,-11 -13,-16 -6,-16 -9,-33 -11,-50 -9,-59 -7,-119 2,-177z"/>
   <path class="fil10" d="M3144 2008c2,-9 3,-18 5,-27 2,-10 12,-17 23,-14 9,2 11,11 11,19 0,7 -1,13 -1,20 -1,7 -1,15 -2,23 -3,43 -5,85 -7,128 -1,18 -2,36 -3,54 0,6 -1,12 -1,18 0,4 1,7 3,11 1,1 3,3 3,5 0,4 -5,6 -8,6 -7,1 -11,-10 -13,-16 -6,-16 -9,-33 -11,-50 -9,-59 -7,-119 1,-177z"/>
   <path class="fil11" d="M3182 1477c6,-7 13,-10 21,-14 10,-6 19,-11 28,-19 4,-4 7,-9 11,-12 5,-4 10,-5 16,-6 12,-2 23,-5 35,-6 5,-2 12,0 13,5 1,5 -1,11 -3,14 -9,17 -27,28 -44,36 -12,6 -25,10 -32,22 -5,8 -7,18 -6,27 2,18 11,36 19,53 5,13 11,25 2,38 -3,4 -8,8 -13,9 -1,1 -8,2 -10,3 0,2 0,3 0,4 -1,3 -9,1 -10,-2 -1,-1 -1,-3 0,-4 -2,-5 -7,-13 -8,-16 -4,-8 -9,-16 -13,-24 -8,-17 -16,-35 -19,-55 -3,-19 1,-38 13,-53z"/>
   <path class="fil10" d="M3154 1454c13,-20 40,-22 60,-15 0,0 0,1 0,1 1,0 1,0 0,0 -9,12 -22,20 -38,20 -7,0 -15,-2 -21,-5 -1,0 -1,-1 -1,-1z"/>
   <path class="fil10" d="M3293 1398c0,0 0,0 0,-1 1,0 1,0 2,0 4,-1 9,0 11,5 2,4 1,10 1,14 0,3 -1,7 -3,9 -5,4 -13,1 -16,-4 -5,-8 -1,-18 5,-23z"/>
   <path class="fil11" d="M3177 1448c1,6 4,11 6,10 3,0 4,-5 3,-11 -1,-6 -4,-11 -6,-10 -3,0 -4,5 -3,11z"/>
   <path class="fil22" d="M3161 1407c5,6 10,12 14,18 1,0 1,0 1,0 0,1 -1,1 -1,1 -5,3 -9,7 -14,11 0,0 -3,1 -3,0 0,-10 0,-19 0,-29 0,0 3,-1 3,-1z"/>
   <path class="fil20" d="M3126 1383c12,17 23,35 35,53 0,0 0,0 0,0 0,0 0,0 0,0 -10,16 -20,32 -30,49 0,0 -3,1 -4,0 -1,-30 -2,-59 -4,-89 0,-4 0,-8 0,-12 -1,-1 2,-2 3,-1z"/>
   <path class="fil22" d="M3137 1411c5,7 10,14 16,21 0,0 0,0 0,0 0,0 0,0 0,0 -5,5 -9,10 -13,15 0,1 -3,1 -3,0 -2,-12 -3,-24 -4,-35 0,-2 3,-1 4,-1z"/>
   <path class="fil11" d="M3285 2024c3,-11 7,-22 11,-32 5,-10 14,-27 28,-22 12,5 11,19 12,30 1,5 2,11 2,17 1,1 -3,1 -3,0 -3,-4 -6,-8 -9,-11 -4,8 -8,17 -12,25 -1,1 -4,1 -4,0 -1,-10 -2,-21 -3,-31 -6,8 -12,16 -18,24 -1,1 -4,1 -4,0z"/>
   <path class="fil11" d="M3146 1989c1,-10 0,-22 11,-28 4,-3 10,-3 15,1 6,4 9,10 12,16 4,8 7,15 9,22 1,5 3,9 4,13 0,1 -3,1 -4,1 -6,-9 -12,-17 -18,-25 -1,11 -2,21 -3,31 0,1 -3,1 -3,1 -5,-9 -9,-17 -13,-26 -3,4 -6,8 -9,11 0,1 -3,1 -3,0 1,-5 1,-11 2,-17z"/>
   <path class="fil22" d="M3099 1355c4,-1 7,-2 10,-3 -5,-4 -11,-8 -17,-12 0,0 0,0 -1,-1 -1,3 -4,6 -7,7 -2,1 -3,1 -4,2 0,2 1,4 1,6 0,0 0,1 0,2 6,0 12,0 18,-1z"/>
   <path class="fil11" d="M3140 1375c-8,-6 -15,-12 -23,-18 -3,-2 -5,-3 -8,-5 -3,1 -6,2 -10,3 -6,1 -12,1 -18,1 1,9 2,18 4,27 0,1 0,2 1,2 1,0 3,1 5,1 16,0 34,-3 49,-11z"/>
   <path class="fil22" d="M3147 1406c6,-2 12,-5 18,-9 -9,-7 -17,-14 -25,-22 -15,8 -33,11 -49,11 -2,0 -4,-1 -5,-1 2,10 4,19 7,28 2,0 3,0 5,0 16,0 33,-1 49,-7z"/>
   <path class="fil22" d="M3194 1417c-1,1 -3,2 -5,3 -26,16 -57,28 -87,27 2,11 3,22 7,32 9,-9 23,-16 34,-23 16,-10 33,-19 50,-30 8,-5 7,-6 1,-9z"/>
   <path class="fil11" d="M3189 1420c2,-1 4,-2 5,-3 -1,0 -1,-1 -2,-1 -9,-5 -18,-11 -25,-18 -1,0 -2,-1 -2,-1 -6,4 -12,7 -18,9 -16,6 -33,7 -49,7 -2,0 -3,0 -5,0 2,7 5,15 7,22 1,4 2,8 2,12 30,1 61,-11 87,-27z"/>
   <path class="fil22" d="M3091 1339c-3,-2 -6,-6 -10,-5 -2,5 -1,9 -1,14 1,-1 2,-1 4,-2 3,-1 6,-4 7,-7z"/>
   <path class="fil11" d="M1 1682c-2,-11 -4,-22 -6,-33 -3,-15 -18,-23 -32,-23 -12,1 -17,10 -18,20 -1,9 0,18 1,27 1,10 1,19 2,29 3,54 6,107 9,161 1,23 3,46 4,69 0,8 1,15 1,23 0,4 -1,8 -3,12 -1,3 -4,5 -4,8 -1,6 7,9 11,10 5,2 10,3 14,-1 3,-5 6,-10 8,-15 7,-20 11,-42 14,-63 11,-74 9,-150 -1,-224z"/>
   <path class="fil11" d="M149 1703c-1,-11 -3,-22 -5,-33 -4,-15 -18,-25 -33,-24 -12,1 -16,11 -17,22 -1,8 0,18 1,27 1,9 1,19 2,28 3,54 6,108 9,161 1,23 3,47 4,70 0,7 1,14 1,22 0,5 -1,9 -4,13 -1,3 -3,5 -3,7 0,7 7,10 12,12 12,4 17,-9 21,-18 7,-21 11,-42 14,-64 11,-73 9,-149 -2,-223z"/>
   <path class="fil11" d="M434 1689c-2,-11 -3,-22 -6,-33 -3,-16 -17,-23 -32,-20 -12,1 -17,10 -18,21 -1,9 0,18 1,27 1,10 1,19 2,29 3,53 6,107 9,161 1,23 3,46 4,69 0,8 1,15 1,22 0,5 -1,10 -4,14 -1,2 -3,4 -3,7 -1,6 6,8 11,9 13,3 18,-9 22,-19 8,-20 12,-42 15,-63 11,-74 9,-150 -2,-224z"/>
   <path class="fil11" d="M520 1679c-2,-11 -4,-22 -6,-33 0,0 0,-1 0,-1 -3,-14 -15,-27 -30,-25 -12,1 -16,13 -17,23 0,9 1,18 2,27 0,9 1,19 1,28 4,54 7,108 10,161 1,23 2,47 3,70 1,7 2,15 2,23 -1,4 -2,8 -5,12 -2,2 -3,5 -3,7 0,7 5,12 11,14 11,5 16,-10 19,-18 8,-21 12,-43 15,-64 11,-74 9,-150 -2,-224z"/>
   <path class="fil11" d="M571 1433c-3,-63 -10,-126 -23,-188 -3,-15 -6,-30 -10,-44 -2,-9 -4,-19 -8,-27 -4,-9 -10,-17 -17,-24 -11,-12 -25,-21 -41,-25 -21,-5 -43,1 -62,10 -10,5 -18,13 -28,18 -11,7 -23,13 -35,18 -15,6 -30,11 -45,18 -17,7 -38,19 -46,37 -7,16 2,30 15,39 21,14 49,12 72,5 11,-4 21,-9 32,-13 8,-3 13,2 15,10 2,6 3,14 4,21 1,7 1,14 2,21 1,14 1,28 -4,42 -5,14 -16,26 -31,30 -12,2 -25,2 -38,0 -14,-1 -28,-4 -42,-7 -28,-7 -56,-15 -85,-22 -25,-7 -52,-12 -79,-11 -23,1 -47,7 -68,20 -6,4 -12,8 -17,13 -54,44 -97,106 -108,176 -4,24 -3,48 1,72 8,46 23,92 50,130 21,31 50,56 84,72 66,33 144,34 216,25 38,-5 76,-12 112,-24 47,-15 90,-44 122,-82 32,-39 52,-86 58,-136 6,-58 6,-117 4,-174z"/>
   <path class="fil10" d="M637 1391c-4,-6 -13,-8 -19,-11 -9,-3 -19,-6 -29,-8 -2,-1 -3,-1 -5,-2 22,-4 60,-12 52,-25 -4,-5 -14,-7 -20,-9 -10,-3 -20,-5 -30,-6 -2,-1 -5,-1 -7,-1 23,-7 66,-23 56,-36 -5,-6 -16,-7 -23,-8 -11,-2 -22,-2 -33,-3 -2,0 -5,0 -7,0 22,-10 67,-31 55,-41 -6,-4 -17,-3 -23,-3 -11,0 -22,1 -33,2 -3,1 -6,1 -9,1 20,-13 63,-43 51,-51 -6,-4 -17,-2 -23,0 -11,2 -21,5 -31,8 -2,1 -4,1 -7,2 15,-13 29,-27 41,-42 3,-4 12,-14 4,-18 -6,-2 -16,3 -22,5 -10,4 -20,9 -29,14 -2,1 -4,2 -6,4 11,-16 22,-31 31,-48 2,-4 8,-16 -2,-16 -7,0 -14,7 -19,11 -9,7 -17,14 -25,22 -5,4 -10,9 -15,14 0,0 -1,0 -1,1 0,0 0,1 0,1 0,0 0,0 0,1 13,14 20,32 25,49 7,23 12,47 17,71 7,44 12,89 15,134 0,10 1,19 1,29 0,1 1,2 3,2 17,2 35,5 52,3 4,-1 14,-3 11,-9 -3,-5 -11,-8 -16,-11 -9,-4 -18,-7 -27,-10 -1,0 -2,-1 -2,-1 21,-1 56,-4 49,-15z"/>
   <path class="fil10" d="M391 1169c-2,-1 -4,2 -6,5 0,2 -1,3 0,5 0,1 1,3 2,3 0,0 0,0 1,0 1,0 1,0 2,-1 1,-1 2,-3 3,-4 0,-2 0,-3 0,-5 0,-1 -1,-2 -2,-3z"/>
   <path class="fil10" d="M449 1197c0,-1 -1,-2 -2,-3 -2,-1 -5,2 -6,5 -1,4 -1,7 1,8 1,0 1,0 1,0 2,0 4,-2 5,-5 1,-2 1,-3 1,-5z"/>
   <path class="fil10" d="M354 1212c-1,-10 -3,-22 -11,-29 -8,-7 -20,-4 -29,0 -18,7 -38,17 -52,31 -8,8 -14,19 -10,30 5,14 18,23 31,27 14,4 29,5 43,3 7,-1 13,-2 19,-4 2,-2 5,-2 6,-5 2,-6 2,-14 2,-20 1,-11 2,-22 1,-33z"/>
   <path class="fil11" d="M286 1213c-4,0 -7,2 -9,6 -1,4 -1,8 3,8 5,-1 8,-3 10,-7 1,-3 1,-7 -4,-7z"/>
   <path class="fil11" d="M311 1235c-4,0 -7,3 -9,7 -1,3 -1,8 4,8 4,1 7,-3 9,-7 1,-3 1,-8 -4,-8z"/>
   <path class="fil10" d="M44 1363c-22,9 -44,22 -64,36 -42,30 -79,68 -104,114 -17,32 -27,66 -31,102 -1,4 11,0 11,-4 6,-59 32,-113 72,-157 27,-30 60,-56 96,-75 5,-3 10,-6 15,-8 1,0 3,-1 2,-1 -1,1 1,0 1,0 1,-1 2,-1 2,-1 2,-1 6,-3 6,-5 0,-3 -4,-2 -6,-1l0 0z"/>
   <path class="fil10" d="M-137 1620c0,-5 -1,-14 -6,-18 -3,-4 -9,-2 -13,0 -3,2 -6,5 -9,8l0 90c1,0 1,-1 2,-1 3,-3 4,-8 4,-13 2,3 4,6 6,9 3,4 9,3 11,-1 4,-8 3,-20 4,-28 1,-15 2,-30 1,-46z"/>
   <path class="fil10" d="M525 1187c-4,6 -9,12 -14,17 -9,10 -19,20 -30,28 -23,20 -53,38 -85,36 -3,0 2,11 6,11 32,2 62,-16 86,-36 11,-9 21,-19 31,-29 5,-6 10,-12 14,-18 2,-3 -6,-13 -8,-9l0 0z"/>
   <path class="fil10" d="M553 1286c-4,3 -12,6 -17,8 -11,5 -23,9 -36,12 -33,8 -69,10 -103,-1 -2,-1 -4,-1 -3,1 0,3 5,5 7,6 34,11 71,10 106,2 13,-3 26,-7 39,-12 6,-3 13,-5 17,-10 2,-2 -7,-9 -10,-6l0 0z"/>
   <path class="fil10" d="M565 1369c-39,5 -82,5 -120,-5 -15,-4 -30,-10 -42,-20 -5,-3 -15,0 -8,5 23,18 54,25 82,29 26,3 52,3 77,1 5,0 11,-1 16,-2 8,-1 1,-8 -5,-8l0 0z"/>
   <path class="fil10" d="M364 1381c13,16 30,29 45,41 27,22 57,42 90,55 18,6 37,11 56,10 2,0 8,0 9,-2 1,-2 -1,-3 -3,-3 -35,0 -68,-15 -97,-32 -26,-16 -50,-35 -72,-56 -5,-5 -11,-11 -16,-17 -2,-2 -14,1 -12,4l0 0z"/>
   <path class="fil10" d="M333 1386c8,25 17,50 28,74 20,46 45,92 81,128 19,19 42,36 68,44 1,0 7,2 8,0 1,-2 -3,-3 -4,-3 -47,-15 -81,-58 -105,-98 -23,-37 -41,-77 -55,-118 -3,-8 -6,-17 -8,-25 -1,-3 -13,-5 -13,-2l0 0z"/>
   <path class="fil10" d="M301 1384c2,32 6,64 10,95 9,58 19,118 40,173 10,25 22,50 42,69 5,5 14,-4 8,-9 -16,-16 -27,-38 -35,-58 -11,-27 -19,-55 -26,-84 -11,-51 -19,-103 -24,-155 -1,-11 -2,-22 -3,-33 -1,-8 -13,-5 -12,2l0 0z"/>
   <path class="fil10" d="M241 1368c-4,32 -7,64 -8,96 -3,56 -4,114 10,168 5,22 15,46 34,60 3,2 6,1 7,-2 2,-3 0,-7 -3,-8 -15,-11 -22,-31 -27,-48 -7,-25 -9,-52 -10,-78 -3,-50 -1,-101 4,-152 1,-11 3,-22 4,-33 1,-7 -10,-11 -11,-3l0 0z"/>
   <path class="fil10" d="M173 1350c-14,19 -24,40 -33,61 -19,46 -30,96 -26,146 2,35 12,69 28,100 2,5 15,2 12,-3 -27,-53 -34,-111 -24,-169 8,-39 22,-77 42,-111 4,-7 8,-14 12,-20 4,-6 -8,-8 -11,-4l0 0z"/>
   <path class="fil10" d="M41 1361c-11,17 -19,38 -25,57 -15,46 -20,95 -15,143 3,35 13,69 27,101 1,2 3,7 5,7 2,-1 1,-4 1,-6 -38,-87 -36,-188 4,-274 3,-6 6,-12 10,-18 1,-3 -5,-13 -7,-10l0 0z"/>
   <path class="fil10" d="M-77 1557c5,34 20,69 41,96 10,12 21,23 34,31 7,4 11,-3 4,-7 -26,-17 -44,-45 -55,-73 -5,-15 -10,-30 -12,-46 -1,-5 -12,-8 -12,-1l0 0z"/>
   <path class="fil10" d="M-47 1778c14,13 36,20 54,15 5,-2 -3,-6 -6,-5 -14,4 -30,-1 -40,-12 -2,-2 -11,-2 -8,2l0 0z"/>
   <path class="fil10" d="M-40 1855c12,10 29,12 42,3 3,-3 -1,-4 -3,-3 -11,8 -25,4 -34,-4 -2,-2 -7,2 -5,4l0 0z"/>
   <path class="fil10" d="M-38 1901c13,6 28,7 39,0 3,-2 2,-5 -1,-3 -10,6 -23,4 -33,0 -1,-1 -6,3 -5,3l0 0z"/>
   <path class="fil10" d="M105 1855c15,10 35,16 51,5 5,-3 2,-9 -3,-5 -13,8 -30,2 -41,-6 -4,-3 -11,3 -7,6l0 0z"/>
   <path class="fil10" d="M108 1900c12,10 31,7 43,0 2,-1 -4,-2 -5,-1 -10,6 -23,8 -32,0 -1,-2 -7,0 -6,1l0 0z"/>
   <path class="fil10" d="M393 1840c15,1 37,1 48,-12 3,-3 -6,-4 -9,-2 -8,9 -26,9 -37,8 -5,0 -8,5 -2,6l0 0z"/>
   <path class="fil10" d="M397 1895c13,4 30,4 39,-6 2,-2 -2,-7 -4,-5 -8,9 -23,9 -35,6 -4,-1 -2,4 0,5l0 0z"/>
   <path class="fil10" d="M478 1787c15,11 35,13 50,0 3,-3 -4,-9 -7,-6 -8,7 -17,9 -27,6 -3,-1 -6,-2 -9,-4 -1,0 -3,-2 -3,-1 -5,-4 -9,2 -4,5l0 0z"/>
   <path class="fil10" d="M483 1868c13,5 36,11 44,-4 2,-3 -3,-7 -5,-4 -6,12 -27,6 -37,3 -4,-2 -5,4 -2,5l0 0z"/>
   <path class="fil10" d="M-7 1944c-1,-4 -5,-7 -9,-9 -6,-2 -14,-3 -21,-1 0,0 0,0 0,0 -4,1 -7,3 -8,7 -2,4 -1,8 1,12 1,5 2,10 1,15 -1,3 -1,5 -2,7 -1,2 -3,3 -3,5 -2,3 -3,7 -4,11 -1,3 -2,7 -1,10 1,7 9,11 15,9 4,-1 6,-4 9,-7 3,-3 6,-7 8,-11 6,-9 11,-19 14,-29 2,-6 3,-13 0,-19z"/>
   <path class="fil10" d="M140 1959c-2,-4 -6,-7 -10,-8 -6,-2 -15,-3 -21,-1 -1,0 -1,0 -1,0 -3,2 -6,4 -8,8 -1,5 0,9 2,13 2,5 4,11 4,16 0,3 -1,5 -2,7 -1,2 -2,3 -2,5 -2,4 -3,7 -4,11 -1,4 -3,7 -2,11 2,6 10,10 16,8 3,-1 6,-4 8,-7 3,-4 6,-8 8,-12 6,-10 10,-21 13,-31 1,-7 2,-14 -1,-20z"/>
   <path class="fil10" d="M425 1944c-2,-4 -6,-6 -10,-8 -6,-2 -14,-2 -20,0 -4,1 -7,4 -8,7 -1,5 1,8 2,12 2,5 4,10 3,15 0,5 -2,7 -4,11 -1,4 -2,7 -4,11 -1,3 -2,6 -1,9 2,6 10,10 16,8 3,-1 6,-4 8,-7 3,-3 5,-7 7,-11 5,-9 10,-19 12,-29 1,-6 2,-13 -1,-18z"/>
   <path class="fil10" d="M507 1930c-5,-2 -13,-3 -19,-2 0,0 0,0 0,0 -1,0 -1,1 -1,1 -3,1 -6,2 -8,6 -2,4 -1,7 0,11 1,5 2,10 1,14 0,3 -1,5 -2,7 -1,2 -2,3 -3,5 -1,3 -2,6 -3,10 -1,3 -2,6 -2,9 1,7 8,11 14,9 7,-1 12,-9 16,-15 6,-9 11,-18 15,-28 3,-10 3,-22 -8,-27z"/>
   <path class="fil23" d="M456 1001c-5,1 -10,2 -15,3 5,-9 9,-18 14,-27 0,0 0,-1 1,-2 4,3 9,4 14,4 2,0 4,0 6,0 1,2 2,5 3,8 0,1 1,2 1,3 -8,4 -15,8 -24,11z"/>
   <path class="fil11" d="M417 1055c6,-13 11,-26 17,-39 3,-4 5,-8 7,-12 5,-1 10,-2 15,-3 9,-3 16,-7 24,-11 5,13 10,25 14,38 0,1 0,2 1,3 -3,2 -5,3 -7,4 -21,12 -46,20 -71,20z"/>
   <path class="fil13" d="M429 1100c-10,2 -20,1 -30,0 7,-15 12,-30 18,-45 25,0 50,-8 71,-20 2,-1 4,-2 7,-4 3,14 6,27 8,41 -2,1 -4,2 -6,3 -21,11 -44,23 -68,25z"/>
   <path class="fil13" d="M375 1147c3,0 5,0 8,0 46,3 94,-2 132,-25 5,16 11,31 13,47 -19,-6 -40,-5 -60,-7 -28,-1 -57,-2 -85,-4 -14,-1 -13,-4 -8,-11z"/>
   <path class="fil11" d="M383 1147c-3,0 -5,0 -8,0 1,-1 1,-2 2,-3 9,-13 15,-27 21,-40 0,-1 1,-3 1,-4 10,1 20,2 30,0 24,-2 47,-14 68,-25 2,-1 4,-2 6,-3 3,11 5,22 7,34 1,5 3,11 5,16 -38,23 -86,28 -132,25z"/>
   <path class="fil23" d="M456 975c2,-5 4,-12 10,-13 5,5 8,11 10,17 -2,0 -4,0 -6,0 -5,0 -10,-1 -14,-4z"/>
   <polygon class="fil19" points="-108,2634 -73,2188 -60,2189 -94,2634 "/>
   <path class="fil4" d="M192 2004c-7,-54 -23,-107 -38,-159 -6,-22 -12,-44 -15,-67 -3,-17 -2,-35 -1,-52 2,-45 7,-90 10,-135 5,-58 3,-119 -12,-175 -18,-66 -58,-124 -127,-144 -18,-5 -38,-7 -57,-7 -40,0 -82,10 -117,28l0 908c2,0 3,1 5,1 58,11 121,7 178,-6 50,-12 103,-33 140,-70 15,-15 27,-34 32,-54 5,-22 4,-45 2,-68z"/>
   <path class="fil3" d="M-71 2209c-35,-48 -45,-178 -31,-385 10,-153 30,-295 31,-296l9 2c0,5 -81,562 0,673l-9 6z"/>
   <path class="fil3" d="M-87 1680c-49,-18 -70,-83 -71,-86l9 -3c1,0 21,63 65,79l-3 10z"/>
   <path class="fil3" d="M-101 2042l-3 -10c69,-26 110,-67 131,-97 24,-33 31,-60 31,-60l10 2c-1,1 -30,113 -169,165z"/>
   <path class="fil3" d="M-103 1900c-32,-4 -54,-39 -55,-40l9 -6c0,1 20,32 47,36l-1 10z"/>
   <path class="fil1" d="M2127 1759c0,0 0,0 0,0 -1,-2 -5,-2 -8,-1 -1,0 -3,0 -4,1 -53,12 -106,32 -155,57 -42,21 -82,47 -116,80 -32,32 -62,73 -71,117 -2,11 -1,24 4,34 9,20 31,26 52,26 -8,21 -16,51 1,69 16,16 46,13 67,9 22,-5 40,-14 57,-29 38,-33 64,-81 86,-126 24,-48 44,-99 61,-151 10,-28 19,-56 27,-85 0,-1 0,-1 -1,-1z"/>
   <path class="fil24" d="M2822 2274c3,-94 -36,-192 -106,-255 -62,-56 -143,-77 -223,-95 -37,-8 -75,-17 -110,-33 -10,-4 -23,-10 -29,-16 -5,-5 -10,-11 -15,-17 -46,-48 -105,-90 -171,-104 -41,-8 -83,-3 -119,17 -43,24 -76,64 -102,104 -51,80 -68,175 -59,269 11,111 57,216 118,309 17,27 36,52 56,77l-19 104 57 0 12 -37 -3 37 62 0 2 -7c5,3 9,5 14,7l493 0c24,-35 46,-71 65,-109 41,-78 74,-163 77,-251z"/>
   <path class="fil1" d="M2454 2126c-11,-24 -25,-48 -40,-70 17,12 35,23 54,28 14,3 29,1 32,-15 5,-19 -1,-41 -7,-58 -16,-44 -47,-80 -80,-111 -33,-31 -69,-58 -107,-82 -20,-13 -40,-26 -62,-37 -2,-1 -5,-2 -6,1 -27,49 -51,101 -72,153 -20,47 -37,95 -50,144 -14,48 -24,98 -25,147 -1,43 5,87 27,124 21,35 59,62 99,70 81,17 95,-88 97,-145 2,-34 1,-68 -2,-103 11,35 26,70 52,95 12,12 29,21 47,20 21,-1 41,-14 53,-31 26,-38 7,-92 -10,-130z"/>
   <path class="fil24" d="M1939 1904c0,0 -127,312 -105,645l32 5c0,0 36,-311 127,-390l-54 -260z"/>
   <path class="fil11" d="M1986 1889c-1,11 -9,18 -16,17 -7,-1 -12,-10 -10,-21 2,-11 9,-18 16,-17 8,1 12,11 10,21z"/>
   <path class="fil11" d="M2096 1922c-2,14 -15,23 -29,21 -14,-2 -23,-15 -21,-29 2,-14 15,-23 29,-21 14,2 23,15 21,29z"/>
   <path class="fil1" d="M2071 1928c0,-4 -1,-5 -2,-6 -1,0 -4,-1 -6,2 -2,1 -3,3 -4,5 -3,6 -2,11 1,13 0,0 0,0 1,0 3,0 6,-3 9,-8 1,-2 1,-4 1,-6z"/>
   <path class="fil1" d="M1974 1889c-3,-2 -7,1 -10,7 -1,2 -1,5 -1,7 0,3 1,5 3,5 0,0 0,0 1,1 1,0 2,-1 4,-2 2,-2 3,-4 4,-6 3,-6 2,-11 -1,-12z"/>
   <path class="fil24" d="M2795 2176c2,38 8,76 17,113 8,35 26,106 74,99 14,-2 26,-9 35,-18 18,-15 31,-33 44,-52 2,-4 -6,-5 -8,-2 -11,16 -23,33 -37,47 -9,8 -19,17 -31,20 -19,4 -33,-11 -43,-25 -13,-21 -20,-46 -26,-70 -5,-24 -9,-48 -12,-73 -2,-13 -3,-26 -4,-40 0,-3 -9,-2 -9,1l0 0z"/>
   <path class="fil1" d="M3005 2258c-2,0 -3,1 -4,2 -2,3 -3,5 -5,8 -3,4 -6,8 -10,13 5,-9 8,-19 12,-28 0,-3 4,-12 0,-13 -2,-2 -4,0 -6,1 -4,4 -7,8 -11,13 -1,2 -3,5 -5,7 1,-1 1,-2 2,-3 0,-2 5,-17 -2,-13 -2,1 -4,4 -6,6 -3,4 -6,8 -9,13 -7,10 -13,23 -15,35 -1,8 -1,16 5,22 4,4 11,7 17,5 15,-2 23,-21 29,-33 3,-7 5,-14 8,-21 1,-3 2,-6 2,-9 1,-2 1,-5 -2,-5z"/>
   <path class="fil1" d="M2209 1722c-6,5 -13,9 -19,14 2,-8 3,-16 5,-24 0,-1 -3,-3 -4,-2 -5,6 -11,11 -16,17 -1,-4 -2,-7 -3,-10 -1,-1 -4,-3 -4,-2 -1,5 -2,10 -3,15 -2,8 -6,17 1,25 3,4 8,6 13,4 6,-1 10,-6 15,-10 4,-4 9,-10 12,-15 3,-3 5,-6 7,-10 1,-1 -3,-2 -4,-2z"/>
   <polygon class="fil24" points="2575,2634 2582,2624 2528,2634 "/>
   <path class="fil11" d="M1902 2009c17,9 56,48 91,35l-91 -35z"/>
   <path class="fil11" d="M1950 2083l-59 -28c0,0 20,30 59,28z"/>
   <path class="fil11" d="M1927 2112l-49 -14c0,0 21,22 49,14z"/>
   <path class="fil11" d="M1913 2146l-41 -6c0,0 12,14 41,6z"/>
   <path class="fil11" d="M1906 2190l-47 -7c5,1 24,16 47,7z"/>
   <path class="fil11" d="M1878 2231l-26 -7c0,0 4,13 26,7z"/>
   <path class="fil11" d="M1869 2266l-23 -4c0,0 4,10 23,4z"/>
   <path class="fil11" d="M1864 2298l-24 -3c9,1 11,7 24,3z"/>
   <path class="fil11" d="M1865 2326l-29 -5c0,0 22,13 29,5z"/>
   <path class="fil11" d="M1859 2364l-23 -4c0,0 7,11 23,4z"/>
   <path class="fil11" d="M1860 2398l-24 -4c0,0 14,11 24,4z"/>
   <path class="fil11" d="M1855 2430l-24 -4c0,0 10,11 24,4z"/>
   <path class="fil11" d="M1849 2462l-17 -5c0,0 4,12 17,5z"/>
   <path class="fil11" d="M1850 2496l-18 -3c0,0 11,11 18,3z"/>
   <path class="fil11" d="M1995 2208c0,-7 -3,-12 -9,-14 -10,-3 -18,2 -25,8 -15,16 -32,28 -51,37 -4,2 -26,11 -19,16 4,4 16,2 21,2 15,-1 30,-2 45,-8 16,-6 38,-21 38,-41z"/>
   <path class="fil11" d="M2083 1808c-1,3 27,38 91,36l-91 -36z"/>
   <path class="fil25" d="M817 2311c17,-30 42,-57 79,-57 14,0 31,3 44,11 2,1 4,2 4,4 -10,23 -40,32 -62,37 -18,5 -37,8 -55,9 -2,0 -12,-1 -10,-4z"/>
   <path class="fil10" d="M1490 2580c1,9 0,19 -1,29 -1,9 -2,17 -2,25l-48 0c2,-18 5,-36 9,-53 5,-23 38,-26 42,-1z"/>
   <path class="fil10" d="M1380 2578c2,10 0,20 -1,30 -1,9 -1,18 -2,26l-48 0c2,-18 5,-36 9,-54 5,-23 38,-27 42,-2z"/>
   <path class="fil10" d="M1094 2567c1,10 -1,20 -1,30 -1,9 -2,19 -3,28l0 9 -49 0c3,-22 6,-44 10,-66 6,-23 39,-26 43,-1z"/>
   <path class="fil10" d="M963 2559c5,-22 38,-27 42,-1 2,9 0,19 -1,29 -1,9 -1,19 -2,28 0,7 -1,13 -1,19l-50 0c3,-25 7,-50 12,-75z"/>
   <path class="fil26" d="M1138 1692c1,-11 25,-4 24,7 0,1 0,-1 0,2 0,4 0,7 0,11 1,10 2,21 6,32 10,35 34,65 66,85 -12,-23 -13,-51 -11,-75 1,-4 13,-1 12,3 -2,26 0,59 15,81 11,6 23,10 34,14 -10,-20 -10,-50 -11,-67 0,-5 13,-2 13,2 0,10 1,21 2,32 2,9 4,26 10,37 6,2 11,4 17,5 8,3 15,5 22,8 -5,-11 -6,-24 -8,-35 -3,-13 -4,-27 -5,-41 0,-2 12,0 12,3 1,14 2,27 5,41 2,11 4,26 10,38 8,4 16,8 23,12 -1,-13 4,-28 8,-39 2,-4 14,0 13,4 -5,11 -11,30 -8,43 1,1 1,1 2,2 30,21 54,51 65,86 6,18 10,38 8,56 -1,11 -26,5 -24,-6 0,-1 0,1 0,-2 0,-4 0,-7 0,-11 -1,-11 -3,-21 -6,-32 -11,-36 -36,-66 -67,-86 -25,-16 -53,-23 -81,-32 -26,-8 -51,-19 -74,-35 -30,-21 -53,-51 -65,-86 -6,-18 -9,-38 -7,-57z"/>
   <path class="fil26" d="M1548 1943c4,-4 9,-7 13,-10 4,-14 -2,-32 -6,-44 -1,-4 11,-2 12,2 3,9 7,22 8,34 7,-4 15,-8 22,-11 8,-12 10,-30 12,-42 3,-13 4,-26 5,-38 1,-5 13,-2 13,3 -2,15 -4,29 -7,44 -1,8 -3,18 -6,27 12,-5 24,-8 36,-11 7,-11 9,-26 11,-36 2,-12 4,-23 4,-35 0,-3 12,-1 12,3 0,14 -2,28 -5,41 -1,7 -3,15 -6,22 11,-4 22,-8 33,-13 16,-22 19,-55 17,-81 0,-5 12,-2 12,1 2,22 0,47 -8,68 26,-18 48,-42 60,-73 7,-17 12,-36 10,-55 -1,-12 24,-8 25,2 4,51 -26,101 -64,131 -20,15 -42,27 -65,35 -30,10 -61,15 -89,30 -35,18 -64,46 -79,83 -6,17 -11,37 -10,56 1,12 -24,8 -25,-3 -4,-50 26,-100 65,-130z"/>
   <path class="fil27" d="M819 2431c5,-23 11,-46 22,-68 11,-23 29,-41 48,-59 22,-21 48,-39 76,-51 27,-10 55,-15 83,-16 34,-2 70,-3 104,3 35,7 69,18 102,31 32,12 63,25 96,34 17,4 43,10 55,-7 14,-19 17,-47 20,-69 2,-24 3,-48 4,-72 0,-6 0,-13 0,-20 2,-10 -1,-17 -12,-21 -9,-4 -20,-5 -30,-8 -16,-6 -30,-12 -45,-19 -22,-11 -46,-23 -65,-40 -13,-12 -12,-34 8,-38 27,-6 57,-7 85,-10 38,-5 79,-14 117,-5 13,4 27,9 37,18 11,13 19,31 25,47 10,23 18,48 26,72 14,43 26,86 38,129 26,99 43,207 6,306 -9,24 -21,46 -35,66l-714 0c-1,0 -1,0 -2,-1 -17,-13 -29,-32 -37,-52 -19,-46 -20,-101 -12,-150z"/>
   <path class="fil28" d="M1421 1926c1,-2 6,-1 7,0 13,4 26,11 36,20 22,21 22,50 11,76 -1,3 -8,1 -11,-1 -35,-17 -48,-58 -43,-95z"/>
   <path class="fil28" d="M1499 2026c24,-48 82,-63 132,-54 1,0 8,2 7,4 -6,18 -18,36 -32,48 -30,24 -69,21 -102,6 -3,-1 -6,-2 -5,-4z"/>
   <path class="fil10" d="M1298 1997c10,0 17,7 17,17 0,9 -8,16 -17,16 -9,0 -17,-7 -17,-17 1,-9 8,-16 17,-16z"/>
   <path class="fil11" d="M1454 2051c-3,7 -4,13 -1,14 2,1 7,-3 10,-9 4,-7 4,-13 2,-14 -2,-1 -7,3 -11,9z"/>
   <path class="fil11" d="M1111 2481c13,3 14,16 11,27 -3,9 -10,18 -21,16 -13,-2 -14,-15 -11,-26 3,-10 10,-19 21,-17z"/>
   <path class="fil11" d="M1070 2426c9,3 11,12 8,20 -2,7 -8,14 -16,12 -10,-2 -11,-12 -9,-20 3,-7 8,-14 17,-12z"/>
   <path class="fil11" d="M923 2408c2,-8 7,-13 16,-11 9,2 11,10 9,18 -2,7 -8,12 -16,11 -9,-2 -12,-10 -9,-18z"/>
   <path class="fil11" d="M1011 2447c7,2 10,10 7,17 -2,7 -7,12 -15,10 -8,-2 -10,-9 -8,-17 3,-6 8,-12 16,-10z"/>
   <path class="fil11" d="M1117 2463c-8,-2 -10,-10 -8,-17 3,-7 8,-12 16,-10 7,2 9,10 7,17 -2,6 -7,12 -15,10z"/>
   <path class="fil11" d="M1039 2469c8,2 11,9 9,16 -2,7 -7,11 -14,10 -9,-1 -11,-8 -9,-16 2,-7 7,-12 14,-10z"/>
   <path class="fil11" d="M1011 2392c8,2 10,10 8,17 -2,7 -8,13 -15,11 -8,-2 -10,-10 -8,-17 2,-7 8,-13 15,-11z"/>
   <path class="fil11" d="M1167 2465c8,2 10,12 8,20 -3,7 -9,14 -17,12 -9,-2 -11,-12 -8,-20 2,-7 8,-14 17,-12z"/>
   <path class="fil11" d="M1203 2492c8,2 11,9 9,16 -2,7 -7,11 -14,9 -8,-1 -11,-8 -9,-16 2,-6 7,-10 14,-9z"/>
   <path class="fil25" d="M1403 2061c0,9 8,17 17,17 9,0 17,-7 17,-17 0,-9 -7,-17 -17,-17 -9,0 -17,8 -17,17z"/>
   <path class="fil11" d="M1473 1909c9,-11 18,-23 27,-34 4,-4 7,-8 10,-11 6,1 11,1 16,1 10,0 19,-2 27,-5 2,14 4,28 4,43 0,1 0,2 0,3 -3,1 -5,1 -8,2 -24,7 -51,8 -76,1z"/>
   <path class="fil23" d="M1472 1958c-10,-2 -20,-4 -30,-8 11,-13 21,-27 31,-41 25,7 52,6 76,-1 3,-1 5,-1 8,-2 0,14 -1,29 -2,44 -2,0 -5,1 -7,1 -25,5 -50,11 -76,7z"/>
   <path class="fil23" d="M1405 1990c3,1 6,2 8,3 46,15 96,23 140,10 1,17 3,35 0,51 -17,-11 -39,-16 -58,-23 -28,-9 -56,-18 -85,-28 -13,-4 -12,-7 -5,-13z"/>
   <path class="fil11" d="M1413 1993c-2,-1 -5,-2 -8,-3 1,-1 2,-1 3,-2 12,-11 23,-23 32,-35 1,-1 2,-2 2,-3 10,4 20,6 30,8 26,4 51,-2 76,-7 2,0 5,-1 7,-1 -1,11 -2,23 -2,35 -1,6 -1,12 0,18 -44,13 -94,5 -140,-10z"/>
   <path class="fil23" d="M1531 1841c1,-1 1,-1 2,-2 3,-4 8,-11 14,-11 4,6 5,13 6,20 0,3 0,6 0,9 0,1 0,2 0,3 -8,3 -17,5 -27,5 -5,0 -10,0 -16,-1 7,-8 15,-16 21,-23z"/>
   <path class="fil29" d="M2819 1351c0,0 -36,-48 -13,-72 23,-25 28,20 25,39 -3,19 -3,30 -3,30l-9 3z"/>
   <path class="fil30" d="M2827 1349c-1,-2 -2,-3 -3,-4l-5 -35c-1,-5 -1,-10 0,-14 0,-1 -5,-1 -5,0 0,8 0,16 1,24 1,10 1,22 8,30 1,0 4,-1 4,-1z"/>
   <path class="fil30" d="M2984 1374c-1,-6 -6,-13 -12,-16 -6,-3 -14,-1 -21,1 -18,6 -31,21 -49,30 0,0 0,0 0,1 0,3 1,6 1,9 1,3 4,6 5,7 0,1 1,1 1,1 1,1 2,2 4,2 12,2 25,2 37,-1 16,-3 37,-14 34,-34z"/>
   <path class="fil30" d="M2776 2388c5,-13 4,-25 -3,-27 -6,-1 -37,1 -48,30 -13,33 -52,153 -83,243l32 0c33,-64 70,-150 102,-246z"/>
   <path class="fil30" d="M2795 2475c3,-11 -4,-18 -8,-24 -5,-7 -16,-20 -23,25 -3,24 -32,94 -60,158l28 0c22,-45 44,-99 63,-159z"/>
   <path class="fil30" d="M3523 2358c-5,-25 -14,-51 -31,-72 -2,-3 -5,-6 -8,-9 0,0 0,0 -1,-1 0,0 0,0 0,0 0,0 0,0 0,0 0,0 0,0 0,0 0,0 -1,0 -2,0 0,0 0,0 0,0 -2,0 -5,1 -5,2 -4,16 -8,31 -11,47 -2,6 -5,15 -4,22 1,3 1,3 4,5 4,3 9,6 13,10 31,30 32,82 30,122 -1,11 -2,23 -5,34 0,4 8,3 9,0 13,-51 21,-107 11,-160z"/>
   <path class="fil29" d="M3519 2474c0,0 -1,0 -1,0 0,0 0,0 -1,0 -5,0 -8,1 -9,6 -2,8 -2,16 -3,24 -1,6 -2,12 -3,17 0,2 -1,6 -1,7 1,2 8,1 9,-1 3,-9 4,-19 6,-29 1,-4 8,-21 3,-24z"/>
   <path class="fil31" d="M3375 2634l-271 0c-24,-6 -49,-12 -74,-14 -27,-2 -55,-2 -82,-4 -23,-2 -46,-3 -68,-11 -22,-9 -43,-22 -60,-38 -16,-16 -30,-33 -42,-52 -11,-16 -19,-36 -33,-50 -1,-1 -3,-2 -5,-3 -2,1 -3,3 -4,5 -1,2 -1,3 -2,5 -1,3 -2,6 -3,9 -4,13 -8,26 -13,39 -11,32 -22,64 -35,95 -2,6 -5,14 -8,19l-28 0c-2,-2 -2,-4 -2,-6 0,-1 0,-1 0,-1 15,-38 29,-77 41,-116 27,-91 48,-184 66,-277 19,-95 34,-192 47,-288 11,-84 21,-167 29,-251 5,-55 10,-109 14,-164 1,-11 2,-22 3,-34 0,-8 1,-16 -2,-24 -1,-3 -2,-7 -5,-9 -1,0 -1,0 0,0 -1,0 -1,0 -2,0 -1,1 -3,2 -4,3 -25,16 -53,31 -83,37 -14,4 -32,6 -45,-2 -19,-11 -19,-31 -3,-45 34,-29 63,-64 96,-95 16,-14 36,-21 57,-16 12,3 22,9 32,16 6,5 12,10 18,15 5,4 11,8 14,14 10,24 -22,42 -23,64 -1,10 0,21 0,31 -1,38 -1,75 -2,112 -1,105 -3,209 -3,314 0,25 0,50 -1,75 0,15 -1,32 2,47 5,22 19,35 38,46 9,5 18,11 28,14 6,2 15,5 23,7 22,6 44,9 66,12 51,7 102,12 154,16 53,5 106,11 157,30 63,24 119,66 146,130 17,40 23,87 12,130 -5,18 -14,35 -21,52 -13,30 -29,58 -47,85 -19,30 -43,57 -72,78z"/>
   <path class="fil30" d="M3267 2549c-8,-8 -18,-5 -25,-4 -9,1 -25,5 11,32 11,8 31,30 54,57l35 0c-23,-27 -48,-56 -75,-85z"/>
   <path class="fil30" d="M3353 2542c-7,-8 -18,-5 -25,-5 -8,1 -25,5 12,32 12,9 34,34 59,65l35 0c-24,-29 -51,-61 -81,-92z"/>
   <path class="fil29" d="M2796 1484c-19,-19 -39,-37 -59,-56 0,-1 -1,-1 -1,-1 -3,-2 -5,-3 -8,-1 -13,8 -27,19 -35,33 -10,18 -3,40 17,48 27,11 59,-5 85,-15 4,-1 4,-5 1,-8z"/>
   <path class="fil10" d="M2811 1389c-1,-1 -2,-1 -4,0 -1,0 -3,1 -4,3 -2,3 -3,6 -1,8 1,0 1,0 2,0 2,1 4,-1 6,-3 1,-2 2,-3 2,-4 1,-3 0,-4 -1,-4z"/>
   <path class="fil10" d="M2853 1416c0,-1 -2,-1 -4,0 -1,0 -2,2 -3,3 -3,3 -3,7 -1,8 0,0 0,1 1,1 2,0 4,-1 6,-4 1,-1 2,-3 2,-4 1,-3 0,-4 -1,-4z"/>
   <path class="fil29" d="M2892 1556c1,-27 1,-54 2,-82 0,-7 1,-15 -2,-22 -2,-4 -5,-12 -8,-7 -4,6 -4,16 -6,22 -2,12 -4,24 -6,35 -2,12 -4,24 -6,36 -1,9 -4,20 -3,29 1,8 7,22 17,22 16,0 12,-23 12,-33z"/>
   <path class="fil29" d="M2853 1748c2,-13 7,-26 9,-39 2,-11 -4,-21 -16,-23 -11,-2 -20,4 -21,14 -2,14 -3,27 -5,41 -1,14 -4,28 -4,42 -1,22 34,28 38,5 3,-13 -3,-27 -1,-40z"/>
   <path class="fil29" d="M2889 1965c0,-26 0,-52 0,-79 1,-9 3,-24 -10,-26 -9,-2 -14,10 -17,17 -7,13 -12,27 -16,41 -1,5 -2,10 -3,15 0,8 -3,15 -7,23 -6,13 -17,27 -17,42 -1,15 14,23 27,25 20,4 35,-9 41,-28 3,-9 2,-20 2,-30z"/>
   <path class="fil29" d="M2865 2189c-8,-27 -10,-60 -39,-72 -25,-10 -55,3 -60,30 -7,34 -13,68 -20,102 -3,17 -6,35 -10,53 -2,10 -6,19 -7,29 -2,14 1,28 16,33 8,3 18,0 26,-3 19,-6 36,-17 52,-28 24,-17 48,-40 53,-70 4,-25 -4,-50 -11,-74z"/>
   <path class="fil29" d="M3121 2331c3,-38 -15,-74 -51,-89 -28,-11 -76,-8 -90,24 -7,17 -2,37 4,54 6,17 14,33 23,47 13,22 36,51 64,47 13,-2 23,-10 30,-21 11,-18 18,-41 20,-62z"/>
   <path class="fil29" d="M3492 2303c1,-18 1,-41 -12,-56 -13,-16 -28,-31 -43,-45 -15,-13 -33,-31 -54,-31 -2,0 -6,1 -8,2 -25,7 -57,26 -43,56 8,17 24,31 39,42 11,9 15,23 19,37 6,20 11,46 32,55 15,6 32,1 44,-8 16,-12 24,-32 26,-52z"/>
   <path class="fil29" d="M2849 2546c-3,-8 -12,-13 -17,-18 -6,-6 -12,-12 -15,-21 -3,-10 2,-21 1,-31 -1,-17 -11,-35 -22,-47 -7,-7 -18,-13 -28,-10 -8,2 -12,12 -15,19 -3,9 -6,18 -9,27 -2,9 3,20 8,28 6,12 15,22 24,31 8,8 16,15 23,23 7,7 14,15 24,18 12,3 30,-3 26,-19z"/>
   <path class="fil29" d="M3029 2479c1,-19 -30,-29 -45,-32 0,0 0,0 0,0 0,0 -1,0 -1,0 -9,-2 -22,-2 -30,4 -7,5 -8,13 -7,21 1,16 8,33 17,46 5,7 11,14 20,14 7,0 12,-3 15,-10 2,-4 2,-10 4,-15 2,-6 7,-9 13,-12 7,-4 14,-7 14,-16z"/>
   <path class="fil29" d="M3097 2123c-4,-6 -12,-6 -19,-7 -10,-2 -20,-3 -31,-5 -20,-3 -40,-6 -60,-9 -1,0 -1,0 -2,0 -1,0 -2,0 -3,0 -20,4 -8,32 2,41 12,9 28,12 42,14 17,2 36,4 53,-1 14,-4 29,-18 18,-33z"/>
   <path class="fil29" d="M3252 2134c-11,-5 -25,-5 -38,-7 0,0 0,0 0,0 -16,0 -30,12 -40,23 -13,15 -21,33 -20,53 0,19 8,40 20,55 5,5 15,13 22,11 8,-2 11,-14 14,-20 4,-11 7,-23 12,-34 5,-10 10,-21 20,-26 5,-3 12,-2 17,-5 7,-3 12,-8 14,-15 4,-16 -7,-29 -21,-35z"/>
   <path class="fil29" d="M3300 2386c0,-1 -1,-1 -1,-2 -1,0 -1,0 -1,0 -13,-9 -29,-18 -45,-19 -34,-2 -18,38 -23,58 -3,10 -11,18 -13,29 -3,12 6,23 14,32 19,19 47,9 63,-8 24,-26 28,-63 6,-90z"/>
   <path class="fil29" d="M3505 2437c-2,-9 -8,-19 -18,-22 -21,-6 -34,25 -40,41 -8,23 -10,47 -17,70 0,1 0,1 0,2 -1,9 5,15 15,16 9,1 13,-9 18,-15 16,-20 29,-42 38,-66 3,-8 6,-17 4,-26z"/>
   <path class="fil29" d="M3163 2617c-17,-23 -40,-43 -66,-55 -20,-9 -42,-9 -56,9 -7,8 -12,18 -15,28 -3,13 9,22 21,25 0,0 1,0 2,0 15,2 29,6 44,10l80 0c-1,-6 -6,-12 -10,-17z"/>
   <path class="fil29" d="M3369 2629c0,-7 -2,-14 -4,-20 -2,-9 -5,-19 -8,-28 -5,-16 -12,-35 -24,-48 -13,-15 -36,-7 -48,7 -6,7 -2,18 -1,26 4,14 8,27 8,41 0,9 -2,17 -6,25 -1,1 -1,2 -2,2l84 0c1,-1 1,-3 1,-5z"/>
   <path class="fil32" d="M2931 1258c3,3 6,5 9,8 0,-8 1,-15 1,-23 0,0 1,-1 1,-1 -4,0 -8,-1 -11,-4 -2,0 -3,-1 -4,-2 -2,1 -3,3 -5,4 0,0 -1,1 -2,1 3,6 7,12 11,17z"/>
   <path class="fil11" d="M2935 1308c2,-10 3,-21 4,-32 0,-3 1,-7 1,-10 -3,-3 -6,-5 -9,-8 -4,-5 -8,-11 -11,-17 -8,7 -16,12 -24,20 0,0 -1,1 -1,1 0,2 1,4 2,6 9,16 22,30 38,40z"/>
   <path class="fil32" d="M2910 1333c5,4 12,8 18,11 2,-12 5,-24 7,-36 -16,-10 -29,-24 -38,-40 -1,-2 -2,-4 -2,-6 -8,8 -15,15 -22,23 1,2 2,3 2,4 10,16 20,32 35,44z"/>
   <path class="fil32" d="M2926 1384c-2,-1 -4,-2 -6,-3 -30,-16 -59,-39 -74,-68 -10,8 -20,15 -27,25 14,3 28,12 41,19 19,10 37,21 56,31 10,4 10,2 10,-4z"/>
   <path class="fil11" d="M2920 1381c2,1 4,2 6,3 0,-1 0,-2 0,-3 -1,-12 0,-23 2,-34 0,-1 0,-2 0,-3 -6,-3 -13,-7 -18,-11 -15,-12 -25,-28 -35,-44 0,-1 -1,-2 -2,-4 -6,6 -12,13 -18,19 -3,3 -6,6 -9,9 15,29 44,52 74,68z"/>
   <path class="fil32" d="M2942 1242c0,-4 2,-10 -1,-13 -6,1 -10,4 -14,7 1,1 2,2 4,2 3,3 7,4 11,4z"/>
   <path class="fil33" d="M460 2191c-11,-12 -23,-23 -35,-33 -48,-40 -105,-71 -167,-83 -39,-8 -80,-7 -119,2 -23,5 -45,12 -66,22 -18,9 -38,18 -54,31 -6,4 -11,10 -16,15 -12,12 -24,24 -36,37 -34,38 -66,79 -93,124 -15,25 -28,51 -39,78l0 212c7,13 15,26 24,38l492 0c7,-15 12,-31 16,-47l-3 47 36 0c3,-36 4,-74 5,-111 3,-58 4,-117 8,-175 0,-9 1,-17 2,-25 0,-3 0,-6 1,-8 0,-1 1,-3 1,-4 1,0 1,0 2,-1 1,0 1,0 2,0 0,0 2,2 2,3 1,3 2,5 2,8 2,11 3,22 4,33 1,24 -1,48 -2,71 -2,35 -5,70 -7,105 -3,34 -5,68 -7,103l0 1 36 0c1,-5 1,-11 2,-16 1,-8 0,-15 1,-23 0,-21 1,-42 1,-63 2,-62 4,-124 6,-185 1,-47 2,-94 4,-141 0,-6 1,-10 -3,-15z"/>
   <path class="fil34" d="M536 2065c-1,-51 -15,-103 -35,-150 -15,-33 -37,-66 -71,-81 -27,-10 -56,-9 -84,-5 -25,4 -54,13 -79,5 -39,-11 -70,-41 -105,-61 -32,-17 -72,-24 -104,0 -8,7 -14,15 -22,22 -6,6 -13,11 -20,15 -16,10 -34,18 -51,25 -34,13 -70,23 -103,40 -9,6 -19,12 -27,20l0 357c6,2 12,5 19,6 23,6 48,8 72,7 10,-1 24,-4 32,-3 15,1 31,10 44,16 18,10 36,20 54,30 15,8 31,15 48,19 18,5 38,6 58,4 42,-3 81,-20 122,-32 57,-18 118,-34 168,-68 25,-17 47,-38 62,-64 17,-31 23,-67 22,-102z"/>
   <path class="fil34" d="M704 2634c-12,-10 -26,-16 -42,-18 -17,-2 -35,2 -52,6 -12,4 -24,8 -36,12l130 0zm-667 0c-4,-6 -11,-9 -18,-10 -13,-1 -23,3 -31,10l49 0z"/>
   <path class="fil33" d="M504 2064c-4,-28 -14,-55 -29,-79 -13,-19 -32,-38 -55,-43 -5,-1 -10,-2 -16,-2 -37,-9 -83,-8 -116,12 -28,17 -41,46 -44,78 -3,34 -2,70 12,102 12,27 34,48 62,58 17,6 34,9 52,9 21,0 42,-1 62,-6 27,-7 49,-24 61,-49 13,-25 14,-54 11,-80z"/>
   <path class="fil11" d="M386 2099c-7,-5 -16,-5 -22,0 -6,-5 -13,-5 -21,-1 -9,5 -16,16 -15,26 0,10 9,21 19,20 8,-1 13,-7 15,-14 2,7 6,13 13,14 9,1 20,-8 22,-17 3,-10 -3,-22 -11,-28z"/>
   <path class="fil14" d="M321 2046c0,-2 -1,-4 -2,-5 -1,-3 -3,-3 -4,-2 -2,0 -3,5 -2,9 0,2 1,4 2,5 1,2 2,3 3,3 0,0 1,0 1,0 1,0 2,-1 2,-4 1,-1 1,-4 0,-6z"/>
   <path class="fil14" d="M424 2044c0,0 -2,0 -3,2 -1,2 -1,4 -1,6 0,2 0,4 0,6 1,3 3,3 4,3 0,0 0,0 0,0 1,0 2,0 3,-3 1,-1 1,-3 1,-5 0,-5 -1,-9 -4,-9z"/>
   <path class="fil11" d="M399 1942c-9,-2 -19,-4 -28,-5 -7,-1 -14,-2 -20,-2 -4,1 -9,1 -13,3 0,0 0,0 0,0 0,0 0,0 0,0 0,0 0,0 0,0 1,24 2,48 3,71 1,19 3,38 4,56 1,14 2,28 5,41 0,3 0,8 3,9 4,0 8,0 11,0 4,0 7,0 11,0 0,0 1,-1 1,-1 3,-19 5,-39 8,-58 4,-31 8,-62 13,-93 0,-7 1,-14 2,-21 0,0 0,0 0,0z"/>
   <path class="fil14" d="M382 2078c-11,0 -22,0 -34,0 -1,0 -2,0 -2,1 1,5 1,9 2,14 0,6 1,13 3,20 0,1 0,1 2,2 2,0 5,0 7,0 6,0 11,0 17,0 0,0 1,-1 1,-1 2,-12 4,-24 6,-36 0,0 -1,0 -2,0z"/>
   <path class="fil10" d="M393 2145c-5,2 -10,4 -16,1 -4,-3 -7,-7 -8,-11 -3,-6 -5,-12 -5,-18 0,-2 -6,-2 -6,0 -1,10 -5,28 -17,30 -4,1 -9,-1 -12,-2 -1,-1 -6,0 -5,1 6,3 13,4 19,3 10,-2 15,-10 18,-19 1,3 2,7 4,10 7,12 21,12 33,6 2,-1 -3,-2 -5,-1z"/>
   <path class="fil10" d="M351 2118c-1,0 -1,0 -1,1 0,1 0,2 1,2 1,0 2,-1 2,-2 0,-1 -1,-1 -2,-1z"/>
   <path class="fil10" d="M382 2110c0,-1 -1,-2 -2,-2 -1,0 -2,1 -2,2 0,1 1,2 2,2 1,0 2,-1 2,-2z"/>
   <path class="fil10" d="M373 2118c-1,0 -2,0 -2,1 0,1 1,2 2,2 1,0 2,-1 2,-2 0,-1 -1,-1 -2,-1z"/>
   <path class="fil10" d="M381 2117c0,1 0,2 1,2 1,0 2,-1 2,-2 0,-1 -1,-2 -2,-2 -1,0 -1,1 -1,2z"/>
   <path class="fil10" d="M382 2122c-1,0 -1,1 -1,2 0,1 0,2 1,2 1,0 2,-1 2,-2 0,-1 -1,-2 -2,-2z"/>
   <path class="fil10" d="M347 2108c-1,0 -2,1 -2,2 0,1 1,2 2,2 1,0 1,-1 1,-2 0,-1 0,-2 -1,-2z"/>
   <path class="fil10" d="M340 2115c-1,0 -2,1 -2,2 0,1 1,2 2,2 1,0 1,-1 1,-2 0,-1 0,-2 -1,-2z"/>
   <path class="fil10" d="M344 2122c-1,0 -1,1 -1,2 0,1 0,2 1,2 1,0 2,-1 2,-2 0,-1 -1,-2 -2,-2z"/>
   <path class="fil33" d="M310 1911c-2,-6 -5,-11 -8,-17 -3,-6 -7,-15 -14,-17 -9,-3 -14,5 -17,12 -4,10 -7,21 -7,31 0,0 0,1 0,1 0,1 1,1 2,1 1,0 2,0 3,-1 12,-2 24,-4 36,-6 1,-1 6,-2 5,-4z"/>
   <path class="fil33" d="M462 1930c0,0 0,0 0,0 -1,-10 -3,-19 -7,-28 -3,-8 -6,-18 -17,-13 -12,6 -18,24 -22,36 -1,1 0,1 1,2 13,2 26,4 38,7 3,0 7,-1 7,-3 0,0 0,-1 0,-1z"/>
   <path class="fil35" d="M301 2074c-12,0 -21,1 -21,3 0,2 9,4 21,4 12,0 21,-2 21,-4 0,-2 -9,-3 -21,-3z"/>
   <path class="fil35" d="M441 2078c-12,0 -21,2 -21,4 0,2 9,4 21,4 12,0 21,-2 21,-4 0,-2 -9,-4 -21,-4z"/>
   <path class="fil36" d="M296 1917c-3,-6 -5,-13 -8,-19 -1,-2 -4,-4 -6,-1 -2,3 -2,9 -3,13 0,3 0,7 -1,10 0,1 2,1 2,0 5,0 10,-1 15,-2 0,0 1,-1 1,-1z"/>
   <path class="fil36" d="M448 1915c-1,-3 -3,-7 -7,-5 -3,1 -5,7 -6,10 -2,3 -3,6 -3,9 -1,1 0,1 0,1 0,0 0,0 0,0 5,2 11,3 16,5 1,0 2,0 2,-1 1,-6 0,-13 -2,-19z"/>
   <path class="fil37" d="M336 1780c-10,-15 -19,-30 -30,-45 -3,-5 -7,-10 -11,-15 -6,1 -12,1 -18,0 -11,-2 -22,-5 -32,-9 -2,17 -6,33 -7,50 0,1 0,3 0,4 3,1 6,3 9,4 28,11 60,16 89,11z"/>
   <path class="fil22" d="M334 1838c11,0 23,-2 35,-5 -12,-18 -22,-35 -33,-53 -29,5 -61,0 -89,-11 -3,-1 -6,-3 -9,-4 0,18 0,35 0,53 3,1 5,2 8,2 28,10 58,20 88,18z"/>
   <path class="fil22" d="M409 1886c-3,0 -6,1 -9,2 -54,12 -113,15 -163,-6 -2,21 -6,41 -4,61 21,-11 46,-15 69,-20 33,-7 67,-14 100,-22 16,-4 15,-7 7,-15z"/>
   <path class="fil37" d="M400 1888c3,-1 6,-2 9,-2 -1,-1 -2,-3 -3,-4 -14,-14 -25,-30 -35,-46 -1,-1 -2,-2 -2,-3 -12,3 -24,5 -35,5 -30,2 -60,-8 -88,-18 -3,0 -5,-1 -8,-2 0,14 0,28 0,43 0,7 0,14 -1,21 50,21 109,18 163,6z"/>
   <path class="fil22" d="M272 1690c0,0 -1,-1 -1,-2 -4,-6 -9,-15 -16,-15 -5,7 -6,15 -8,23 0,4 -1,8 -1,11 0,1 0,3 -1,4 10,4 21,7 32,9 6,1 12,1 18,0 -7,-10 -15,-20 -23,-30z"/>
   <path class="fil5" d="M1355 -67c3,7 5,14 8,21 19,53 15,111 -9,164 -19,41 -36,104 4,157 64,85 21,190 21,190 0,0 -15,37 -1,72 10,25 13,52 6,79 -2,8 -17,43 -20,52 0,0 -53,-44 -53,-100 0,-55 -13,-80 -41,-102 -28,-21 -56,-129 -54,-193 2,-64 -103,-127 -125,-182 -14,-35 -15,-88 16,-158l248 0z"/>
   <path class="fil38" d="M-158 358c0,0 0,-163 117,-166 0,0 15,125 -117,166z"/>
   <path class="fil38" d="M-165 15c55,25 123,77 113,181 0,0 -61,-2 -113,-56l0 -125z"/>
   <path class="fil38" d="M-82 8c0,0 142,-134 268,-20 0,0 -92,117 -268,20z"/>
   <path class="fil5" d="M488 -67c-7,47 -19,93 -34,135 -38,102 -78,205 -143,294 -31,44 -65,84 -94,130 -13,20 -38,35 -56,49 -10,7 -21,22 -32,26 -12,5 -13,-6 -15,-18 -5,-28 -11,-56 -16,-85 -8,-41 -3,-84 -3,-126 1,-94 15,-196 30,-289 6,-40 15,-78 28,-116l335 0z"/>
   <path class="fil6" d="M215 -67c-15,17 -28,34 -39,53 -1,2 0,4 1,5 2,0 3,0 4,-2 12,-20 27,-38 42,-56l-8 0zm103 0c-10,30 -20,60 -29,89 -12,5 -99,46 -140,112 -1,2 0,4 1,4 2,1 4,1 4,-1 36,-58 110,-96 132,-107 -19,57 -36,113 -52,164 -8,4 -53,28 -95,93 0,1 0,3 1,4 2,1 4,0 5,-1 34,-54 71,-79 86,-87 -46,150 -78,262 -78,265 -1,1 0,3 2,3 1,1 3,0 4,-2 0,-2 32,-114 78,-265 44,70 28,154 28,155 -1,1 0,3 2,3 2,1 3,0 4,-2 0,-1 18,-91 -31,-164 16,-52 33,-107 52,-165 60,83 58,196 58,198 0,1 1,3 3,3 1,0 3,-1 3,-3 0,-1 3,-120 -62,-205 10,-30 20,-60 31,-91l-7 0zm82 0c10,31 19,66 28,99 1,2 2,3 4,3 2,-1 3,-3 2,-4 0,-1 -12,-48 -27,-98l-7 0z"/>
   <path class="fil3" d="M486 2634c9,-60 33,-123 65,-174 40,-66 82,-132 139,-185 28,-26 57,-49 84,-77 12,-12 31,-19 46,-26 7,-4 17,-12 25,-14 10,-1 8,6 8,15 0,20 1,40 0,61 -1,30 -10,59 -16,88 -13,66 -37,134 -61,197 -12,34 -27,66 -47,97 -5,6 -9,12 -13,18l-230 0z"/>
   <path class="fil4" d="M616 2634c33,-14 82,-40 116,-79 1,-1 1,-2 0,-3 -1,-1 -2,-1 -3,0 -37,42 -93,69 -124,82l11 0zm-26 0c23,-39 47,-79 69,-119 9,-2 75,-19 113,-59 0,-1 0,-2 -1,-3 0,-1 -2,-1 -3,0 -33,36 -89,52 -106,57 21,-38 41,-74 59,-107 6,-2 41,-12 78,-51 1,-1 1,-3 0,-3 -1,-1 -2,-1 -3,0 -31,32 -61,44 -72,48 53,-98 90,-171 91,-173 1,-1 0,-2 -1,-3 -1,-1 -2,0 -3,1 0,2 -38,75 -91,174 -21,-55 2,-111 2,-112 1,-1 0,-2 -1,-3 -1,0 -2,0 -3,1 0,1 -25,61 -1,119 -18,33 -38,70 -59,107 -31,-66 -13,-144 -13,-145 1,-1 0,-3 -1,-3 -2,0 -3,1 -3,2 0,1 -19,83 14,151 -23,40 -46,82 -70,121l5 0zm-10 0c-6,-22 -13,-86 -17,-146 0,-1 -1,-2 -2,-2 -1,0 -2,1 -2,3 0,0 2,39 6,77 4,38 7,58 10,68l5 0z"/>
   <path class="fil5" d="M2397 -67c17,31 31,63 43,94 38,102 74,207 83,316 5,54 6,107 13,160 4,24 -5,51 -10,74 -3,12 -2,30 -8,40 -6,12 -13,4 -22,-3 -23,-18 -46,-36 -68,-54 -33,-27 -57,-62 -84,-94 -61,-72 -117,-159 -166,-239 -27,-44 -49,-89 -66,-137 -17,-52 -37,-102 -37,-157l322 0z"/>
   <path class="fil6" d="M2193 -67c-13,47 -31,134 -17,213 0,2 2,3 3,3 2,-1 3,-2 3,-4 -14,-79 5,-166 17,-212l-6 0zm25 0c21,56 44,112 67,167 -6,11 -45,99 -33,176 0,2 2,3 3,3 2,-1 3,-2 3,-4 -11,-68 20,-145 30,-167 23,55 46,109 67,158 -4,9 -22,56 -11,132 0,2 1,3 3,3 2,-1 3,-2 3,-4 -9,-63 3,-107 9,-122 62,144 112,249 113,252 0,1 2,2 4,1 1,-1 2,-2 1,-4 -1,-2 -50,-108 -113,-253 79,25 121,99 122,100 0,2 2,2 4,1 1,0 2,-2 1,-4 0,-1 -46,-80 -130,-104 -22,-50 -45,-104 -68,-159 100,23 172,111 172,112 2,1 4,2 5,1 1,-2 1,-3 0,-5 0,-1 -75,-93 -180,-115 -22,-54 -44,-110 -66,-165l-6 0zm51 0c36,22 83,53 128,84 2,1 4,1 5,-1 1,-1 0,-3 -1,-4 -1,-1 -46,-31 -91,-61 -11,-6 -21,-12 -29,-18l-12 0z"/>
   <path class="fil5" d="M258 2634c-9,-22 -16,-45 -21,-68 -7,-38 -12,-75 -22,-111 -5,-16 0,-37 2,-55 1,-8 -1,-20 3,-29 4,-10 11,-5 19,-2 19,9 39,17 58,26 29,13 51,33 75,51 55,40 106,90 152,138 15,16 29,33 42,50l-308 0z"/>
   <path class="fil6" d="M463 2634c4,-22 5,-48 -2,-71 -1,-1 -2,-2 -3,-1 -2,0 -3,2 -2,3 6,22 6,47 2,69l5 0zm-54 0c-10,-15 -21,-31 -31,-45 3,-7 14,-44 -1,-95 0,-1 -1,-2 -3,-1 -1,0 -2,1 -1,3 12,43 5,75 2,88 -62,-91 -109,-156 -110,-158 -1,-1 -3,-1 -4,0 -1,1 -1,2 -1,3 1,2 49,67 111,158 -65,-3 -105,-48 -106,-48 0,-1 -2,-1 -3,0 -1,1 -2,2 -1,3 1,0 43,49 113,50 9,13 19,28 29,42l6 0z"/>
   <path class="fil4" d="M2141 -67c20,19 31,43 36,69 12,64 2,134 -22,189 -28,65 -59,130 -110,181 -27,28 -50,64 -83,86 -14,10 -55,40 -73,27 -12,-9 -18,-58 -22,-73 -8,-29 -6,-58 -7,-86 -4,-65 4,-133 13,-195 5,-33 14,-65 28,-95 17,-34 31,-69 65,-93 5,-4 10,-7 15,-10l160 0z"/>
   <path class="fil3" d="M2063 6l0 0 -1 0c-1,0 -102,30 -148,90 0,1 0,2 1,3 2,1 3,1 4,0 41,-53 125,-82 142,-88 -17,41 -34,84 -49,125 -10,2 -82,18 -115,57 0,1 0,3 1,4 2,0 3,0 4,-1 28,-34 90,-50 108,-55 -14,37 -26,73 -38,105 -7,2 -44,12 -77,50 0,1 0,3 1,4 2,0 3,0 4,-1 27,-32 58,-43 70,-47 -33,96 -56,169 -56,170 0,1 1,3 2,3 1,1 3,0 3,-1 1,-1 23,-74 57,-170 40,54 29,109 29,110 0,1 1,2 2,2 2,1 3,0 3,-1 1,0 12,-59 -33,-116 12,-34 25,-69 38,-106 55,65 58,143 58,143 0,2 1,3 2,3 2,0 3,0 3,-2 0,0 -2,-81 -61,-149 16,-41 32,-84 49,-125 13,16 42,85 66,150 0,1 2,2 3,2 1,0 2,-1 2,-2 0,-1 -14,-39 -30,-77 -23,-54 -33,-71 -39,-77 11,-26 23,-52 34,-76l-6 0c-11,23 -22,48 -32,73 -1,0 -1,0 -1,0z"/>
   <path class="fil5" d="M3339 2634c-16,-13 -31,-28 -45,-42 -65,-69 -129,-141 -173,-225 -22,-42 -41,-84 -65,-124 -11,-18 -13,-43 -17,-63 -2,-10 -8,-24 -7,-34 1,-12 9,-8 19,-5 24,7 49,13 73,20 35,10 66,30 99,47 73,37 147,87 214,135 36,26 69,55 98,88 35,39 70,75 88,124 5,14 8,27 13,40 4,10 3,21 7,31 1,3 1,6 2,8l-306 0z"/>
   <path class="fil6" d="M3526 2615l1 -1 0 -1c0,-1 -7,-122 -62,-206 0,-1 -2,-1 -3,-1 -2,1 -2,3 -1,4 48,74 58,178 60,200 -41,-44 -85,-87 -127,-129 0,-11 2,-95 -33,-152 -1,-1 -3,-2 -4,-1 -1,1 -2,2 -1,4 32,50 33,122 33,144 -38,-37 -74,-72 -108,-105 0,-7 -1,-52 -35,-109 -1,-1 -3,-1 -4,-1 -1,1 -2,3 -1,4 29,48 34,86 35,101 -100,-94 -175,-162 -176,-164 -1,-1 -3,-1 -4,1 -1,1 -1,2 0,3 2,2 77,70 176,164 -71,8 -130,-38 -131,-38 -1,-1 -3,-1 -4,0 -1,1 0,3 1,4 0,0 64,49 139,39 34,33 71,68 109,105 -89,15 -176,-31 -177,-32 -1,0 -3,0 -3,1 -1,2 0,3 1,4 1,1 92,49 183,32 43,42 86,85 127,128 -21,3 -106,-11 -185,-27 -2,-1 -3,0 -3,2 -1,1 0,3 2,3 0,0 47,10 93,18 67,11 90,11 98,9 5,5 10,11 15,16l8 0c-6,-6 -13,-13 -19,-19 0,0 0,0 0,0z"/>
   <path class="fil4" d="M3626 2566c-54,15 -91,-10 -113,-43 -31,-47 -47,-107 -46,-159 1,-61 3,-123 27,-182 12,-32 19,-68 37,-97 8,-13 31,-51 50,-46 13,3 34,40 42,50 11,15 19,31 25,46l0 423c-7,3 -15,6 -22,8z"/>
   <path class="fil3" d="M3603 2482l1 0 0 -1c1,0 22,-18 44,-45l0 -7c-19,24 -39,42 -45,48 0,-39 -1,-79 -3,-117 5,-3 29,-20 48,-43l0 -7c-17,21 -39,39 -48,45 -1,-34 -3,-67 -5,-97 5,-4 31,-24 44,-66 1,-1 0,-2 -1,-2 -2,0 -3,0 -3,1 -11,35 -32,55 -41,62 -5,-89 -12,-154 -12,-156 0,-1 -1,-1 -3,-1 -1,0 -2,1 -2,2 0,1 7,67 13,155 -51,-29 -61,-77 -61,-78 -1,-1 -2,-1 -3,-1 -1,0 -2,1 -2,2 0,0 11,51 66,82 2,30 4,63 5,97 -66,-33 -94,-95 -94,-95 -1,-1 -2,-2 -3,-1 -2,0 -2,1 -2,2 0,0 30,65 99,99 2,38 3,78 3,117 -15,-9 -62,-54 -103,-98 -1,-1 -2,-1 -3,-1 -1,1 -2,2 -1,3 0,0 25,26 50,51 36,36 51,46 57,49 0,30 -1,59 -2,86 0,1 1,2 2,2 2,0 3,0 3,-1 1,-28 2,-57 2,-86 0,0 0,0 0,0z"/>
   <path class="fil39" d="M648 861c-17,-1 -37,9 -50,20 -4,3 -6,8 -10,10 -3,4 -9,6 -14,7 -24,9 -65,13 -66,-23 0,-31 1,-63 -4,-94 -4,-25 -11,-61 -38,-71 -17,-7 -36,0 -52,5 -16,6 -31,14 -46,22 -10,6 -16,2 -23,-5 -7,-8 -13,-16 -15,-26 -2,-9 0,-18 0,-26 1,-15 0,-29 -2,-43 -2,-10 -4,-21 -7,-31 -2,-6 -4,-12 -6,-18 -2,-8 -5,-16 -8,-23 -2,-3 -4,-5 -5,-9 -3,-10 1,-18 10,-23 10,-5 21,-8 32,-11 14,-4 28,-8 41,-14 30,-12 59,-31 76,-60 9,-17 13,-36 14,-56 1,-25 3,-51 6,-76 5,-28 12,-76 47,-83 9,-2 18,0 28,-1 9,-1 19,-4 28,-8 11,-7 23,-17 25,-30 2,-11 -2,-21 -13,-22 -9,-1 -19,1 -27,4 -12,3 -24,7 -36,11 -14,4 -27,7 -41,9 -9,1 -19,3 -28,5 -15,4 -27,12 -35,25 -8,13 -11,29 -13,44 -2,18 -4,35 -6,53 -2,19 -5,38 -11,57 -4,13 -11,31 -25,38 -10,6 -23,9 -35,14 -12,4 -24,8 -36,13 -13,4 -25,9 -38,13 -9,-27 -27,-56 -52,-70 -43,-25 -96,5 -123,41 -6,8 -12,17 -16,27 -25,-10 -39,-39 -41,-64 -1,-13 0,-25 -2,-37 -1,-8 -3,-16 -6,-23 -5,-13 -12,-26 -13,-40 -2,-24 9,-48 19,-69 8,-17 8,-37 6,-56 0,-6 -2,-12 -3,-18 -2,-8 -7,-14 -8,-22 -4,-11 0,-23 9,-30 7,-7 18,-10 28,-8 5,2 9,6 14,9 5,3 10,6 16,8 12,4 26,-3 22,-18 -5,-17 -22,-32 -39,-39 -18,-6 -40,-1 -57,6 -19,7 -34,21 -40,41 -3,11 -4,24 -5,37 -2,14 -4,28 -6,42 -3,29 -9,59 -17,88 -5,16 -11,32 -13,50 -2,16 -1,34 2,50 7,46 27,90 50,130 12,21 28,41 36,64 5,13 6,26 1,38 -4,11 -13,20 -21,28 -10,9 -20,19 -28,29 -26,32 -32,72 -25,112 3,14 7,27 13,40 5,12 11,23 17,35 5,12 9,24 11,36 1,11 0,19 -4,29 -5,11 -7,25 -8,37 -2,19 -3,37 -4,56 -1,38 -1,77 -5,115 0,7 -1,13 -2,19 -2,6 -3,12 -1,18 5,12 21,12 32,12 15,0 30,-2 45,0 8,1 12,5 19,7 7,3 15,1 21,-4 5,-4 8,-9 7,-16 -1,-7 -8,-9 -15,-11 -9,-2 -19,-2 -29,-5 -4,-2 -10,-4 -11,-9 -2,-9 -1,-20 0,-29 2,-15 4,-31 8,-46 4,-17 8,-34 15,-50 5,-13 12,-27 23,-37 14,-14 38,-8 55,-6 26,4 52,8 78,6 32,-2 62,-13 88,-31 16,-12 30,-26 43,-42 8,-9 15,-19 22,-30 3,-5 6,-10 9,-15 3,-7 8,-13 10,-20 1,-2 1,-3 1,-3 0,0 1,0 1,-1 1,-1 4,-2 5,-3 7,-4 15,-7 22,-5 18,4 23,28 29,43 7,18 14,36 23,54 8,15 17,31 32,40 17,10 36,6 53,0 22,-8 42,-21 62,-33 9,-5 18,-10 27,-13 9,-2 17,-1 24,-8 13,-13 -7,-32 -21,-33z"/>
   <path class="fil39" d="M-165 756l0 -57c5,5 10,11 14,18 29,42 43,94 73,136 2,3 7,9 11,13 4,4 8,8 12,11 9,7 18,12 31,16 4,1 10,2 17,3 8,1 12,1 19,1 20,-1 35,-4 54,-10 5,-1 15,-1 16,7 0,8 -9,13 -16,15 -10,3 -21,6 -32,8 -32,5 -68,6 -97,-10 -24,-13 -42,-34 -55,-57 -18,-30 -30,-63 -47,-94z"/>
   <path class="fil40" d="M230 497c-1,-1 -2,-2 -3,-4 0,-1 0,-2 -1,-3 0,0 0,-1 0,-2 -2,0 -2,0 0,0 2,-2 5,-3 8,-4 3,-3 5,-6 8,-9 5,-8 8,-17 7,-25 -4,-23 -33,-41 -54,-30 -10,4 -17,13 -22,22 -1,-2 -3,-4 -5,-5 0,0 0,-1 0,-1 -1,0 -1,0 -1,0 -17,-12 -39,-11 -54,4 -17,16 -22,43 2,54 13,6 26,6 40,5 5,0 6,0 4,5 -2,3 -4,5 -5,8 -8,15 -15,34 -10,51 6,21 32,32 52,29 22,-2 40,-19 45,-40 3,-12 2,-24 -2,-36 -2,-6 -5,-13 -9,-19z"/>
   <path class="fil11" d="M167 474c0,10 -8,18 -18,18 -10,0 -19,-8 -19,-18 0,-11 9,-19 19,-19 10,0 18,8 18,19z"/>
   <path class="fil1" d="M194 527c1,2 3,3 3,2 1,0 1,-2 0,-4 -1,-1 -3,-2 -3,-2 -1,1 -1,2 0,4z"/>
   <path class="fil1" d="M203 526c-1,2 -1,3 0,3 1,1 2,0 3,-2 0,-2 0,-4 -1,-4 -1,0 -2,1 -2,3z"/>
   <path class="fil11" d="M235 461c0,10 -8,18 -19,18 -10,0 -18,-8 -18,-18 0,-11 8,-19 18,-19 11,0 19,8 19,19z"/>
   <path class="fil1" d="M153 479c-1,1 -1,4 1,7 2,3 5,4 6,3 1,0 1,-3 -1,-6 -2,-3 -5,-5 -6,-4z"/>
   <path class="fil1" d="M154 481c0,0 0,2 2,4 1,2 2,3 3,3 0,-1 0,-2 -2,-4 -1,-2 -2,-3 -3,-3zm5 10c-1,0 -2,0 -3,-1 -1,0 -2,-2 -3,-3 -3,-4 -3,-8 -1,-9l0 0c2,-2 6,0 8,4 3,4 3,7 1,9 -1,0 -1,0 -2,0z"/>
   <path class="fil1" d="M222 470c-1,-3 -4,-5 -5,-4 -1,0 -1,3 0,6 2,4 4,5 5,5 2,-1 2,-4 0,-7z"/>
   <path class="fil1" d="M218 467c0,1 0,2 1,5 1,2 2,3 3,3 0,0 0,-2 -1,-4 -1,-2 -3,-4 -3,-4zm4 12c-1,0 -2,-1 -3,-2 -1,-1 -2,-2 -3,-4 -1,-2 -2,-3 -2,-5 0,-2 2,-3 2,-4 1,0 3,0 5,1 1,1 2,3 3,4 2,4 1,8 -1,9 0,0 -1,1 -1,1z"/>
   <path class="fil11" d="M187 572c5,4 11,4 18,-6 6,-8 0,-19 -10,-18l0 0c-12,1 -17,16 -8,24z"/>
   <path class="fil40" d="M264 456l-4 26c0,0 22,24 35,0 13,-24 -9,-48 -31,-26z"/>
   <path class="fil40" d="M261 482c2,2 11,11 20,10 5,-1 9,-4 13,-10 7,-13 3,-25 -4,-30 -8,-7 -18,-2 -25,5l-4 25zm19 12c-11,0 -21,-10 -21,-11l0 0 4 -27 0 -1c12,-11 22,-10 29,-5 7,6 11,19 4,33 -4,7 -9,10 -14,11 -1,0 -2,0 -2,0z"/>
   <path class="fil40" d="M81 461l4 26c0,0 -22,24 -35,0 -13,-24 9,-48 31,-26z"/>
   <path class="fil40" d="M63 453c-2,0 -5,1 -8,3 -7,5 -11,17 -4,30 4,6 8,10 13,10 9,1 18,-8 20,-10l-4 -25c-5,-4 -11,-8 -17,-8zm2 45c0,0 -1,0 -2,0 -5,0 -10,-4 -14,-11 -7,-14 -3,-27 5,-33 6,-4 16,-5 28,6l0 0 4 27 0 0c0,1 -10,11 -21,11z"/>
   <path class="fil1" d="M75 474c-4,-2 -10,-3 -15,-1 0,-4 0,-8 2,-11 1,-2 -2,-2 -3,0 -2,4 -3,8 -2,13 0,0 0,0 0,0 0,5 2,9 4,13 1,1 4,0 3,-1 -2,-4 -4,-8 -4,-13 3,-2 9,0 12,1 1,1 4,-1 3,-1z"/>
   <path class="fil1" d="M286 465c1,-4 0,-8 -2,-12 0,-1 -3,0 -3,0 2,4 2,7 2,11 -4,-2 -10,0 -14,1 -2,1 0,2 1,2 4,-2 10,-3 13,-1 0,5 -2,9 -4,13 -1,1 2,1 3,0 2,-4 4,-8 4,-13 1,0 1,0 0,-1z"/>
   <path class="fil32" d="M166 359c8,-9 14,-19 21,-30 -9,-15 -18,-29 -28,-44 -19,31 -43,59 -72,81 0,2 0,4 0,5 0,20 -4,40 -4,59 27,-24 60,-43 83,-71z"/>
   <path class="fil32" d="M115 226c-4,-4 -8,-15 -15,-15 -6,9 -6,20 -7,29 -2,16 -6,31 -7,47 0,4 0,9 0,14 16,-18 31,-37 43,-57 -5,-6 -10,-12 -14,-18z"/>
   <path class="fil11" d="M159 285c-5,-7 -10,-14 -15,-21 -5,-7 -10,-14 -15,-20 -12,20 -27,39 -43,57 0,22 1,43 1,65 29,-22 53,-50 72,-81z"/>
   <path class="fil11" d="M187 329c-7,11 -13,21 -21,30 -23,28 -56,47 -83,71 0,4 0,8 0,12 18,-9 40,-13 59,-18 10,-2 20,-4 30,-7 17,-12 32,-27 44,-44 -5,-8 -11,-16 -16,-23 -4,-7 -9,-14 -13,-21z"/>
   <path class="fil32" d="M172 417c19,-4 37,-8 55,-12 16,-4 12,-7 3,-16 -5,-5 -9,-11 -14,-16 -12,17 -27,32 -44,44z"/>
   <path class="fil38" d="M229 -66c0,1 -1,1 -2,2 -6,4 -13,8 -19,14 -12,12 -20,27 -29,41 -1,3 -3,6 -5,9 -11,17 -19,30 -34,40 -13,10 -20,21 -28,32 -3,4 -6,9 -10,13 -23,30 -57,47 -91,63 -4,3 -9,5 -14,7 -15,8 -30,18 -44,28 -21,14 -43,29 -66,35 -10,3 -19,7 -28,11l-3 1c-5,2 -10,5 -15,7 -2,1 -4,2 -6,3l0 21c1,-1 1,-1 2,-1 4,-2 8,-4 12,-6 5,-2 9,-5 14,-7l3 -1c8,-3 18,-7 27,-10 25,-7 48,-23 70,-38 15,-10 28,-19 43,-26 4,-2 9,-5 14,-7 35,-17 71,-35 97,-68 4,-5 7,-10 10,-14 7,-11 14,-20 24,-28 18,-12 28,-27 39,-46 2,-3 4,-6 5,-9 8,-13 16,-26 26,-37 5,-4 10,-8 16,-11 7,-5 14,-10 21,-18l-29 0z"/>
   <path class="fil38" d="M2481 -67c-52,51 -79,105 -66,110 24,10 29,28 90,-34 25,-25 52,-52 79,-76l-103 0zm159 0c-14,7 -28,16 -44,29 -65,54 -123,153 -106,152 17,-2 22,19 85,-50 62,-68 96,-105 173,-113 77,-8 56,-18 56,-18 0,0 18,42 -103,104 -122,62 -148,94 -162,120 -14,26 -78,97 -55,113 23,16 84,-72 84,-72 0,0 48,-63 90,-81 42,-18 134,-104 134,-104 0,0 -47,155 -83,178 -37,22 -151,67 -169,85 -19,18 -175,179 -124,239 0,0 35,9 59,-53 24,-63 71,-135 92,-149 21,-14 132,-86 135,-98 3,-12 -30,133 -95,185 -65,51 -177,211 -154,273 0,0 24,27 46,-17 22,-43 49,-128 68,-149 19,-21 72,-102 75,-111 2,-9 -7,84 -28,111 -21,27 -22,129 0,125 0,0 30,-1 39,-68 8,-67 15,-227 40,-279 24,-53 44,-100 44,-100 0,0 27,50 16,100 -10,50 -11,66 9,68 0,0 28,-15 25,-65 -3,-50 -33,-128 -33,-128l8 -27c0,0 35,69 35,105 0,0 18,21 18,-18 1,-39 -36,-112 -36,-112l23 -70c0,0 38,70 34,122 -5,51 -8,87 15,80 22,-7 21,-152 -31,-233l15 -74 -195 0zm201 0c3,32 12,93 39,127 38,47 11,204 11,204 0,0 -3,22 22,6 25,-16 48,-125 -15,-225 -33,-52 -40,-88 -40,-112l-17 0zm52 0c26,34 61,87 59,124 -3,58 4,120 19,114 15,-6 15,-6 16,-22 1,-16 5,-104 -22,-138 -16,-19 -40,-51 -57,-78l-15 0zm62 0c15,16 28,32 35,46 22,42 41,73 52,57 12,-17 21,-40 -10,-62 -9,-7 -28,-22 -51,-41l-26 0z"/>
   <path class="fil41" d="M1670 -67c-2,4 -4,7 -7,11 -1,1 -3,-1 -4,-2l-4 -9 15 0z"/>
   <path class="fil1" d="M1482 289c1,15 2,31 3,46 0,3 -4,3 -4,1 -1,-16 -2,-32 -3,-47 -1,-3 4,-3 4,0l0 0z"/>
   <path class="fil1" d="M1488 282c8,17 16,34 24,51 1,2 -3,4 -4,1 -8,-17 -16,-34 -24,-51 -1,-2 3,-4 4,-1l0 0z"/>
   <path class="fil1" d="M1496 279c9,14 17,27 26,41 1,2 -2,5 -3,2 -9,-13 -18,-27 -26,-40 -2,-3 2,-5 3,-3l0 0z"/>
   <path class="fil42" d="M1559 261c-1,-4 0,-9 -1,-13 -1,-7 -3,-14 -6,-21 -5,-12 -13,-23 -22,-33 -5,-5 -10,-9 -14,-14 -2,-2 -3,-5 -3,-8 -1,-7 4,-11 10,-12 5,0 9,-1 14,-2 3,-1 6,-2 9,-2 7,0 13,4 18,10 0,0 0,0 0,0 0,0 0,0 0,1 5,14 9,30 13,45 2,11 4,22 5,33 1,6 2,16 -3,21 -7,8 -18,5 -20,-5z"/>
   <path class="fil41" d="M1585 160c-20,5 -40,10 -60,16 -6,1 -13,3 -17,4 -5,2 -6,2 -10,4 -7,5 -11,13 -6,21 3,6 8,10 12,16 6,9 10,20 13,30 4,14 8,36 -6,46 -8,6 -19,8 -29,8 -32,1 -71,1 -97,-21 -30,-26 -20,-70 -5,-101 1,-2 2,-5 4,-7 12,-32 22,-67 18,-102 -2,-22 -10,-43 -12,-66 -1,-25 2,-50 8,-75l287 0c12,16 22,32 29,50 14,32 17,69 -1,100 -25,45 -81,63 -128,77z"/>
   <path class="fil11" d="M1481 214c0,0 -72,-13 -52,-29 18,-15 41,-192 89,-252l157 0c4,3 7,7 9,9 13,20 79,141 -57,197 -36,15 -78,11 -106,22 -26,9 -31,46 -40,53z"/>
   <path class="fil43" d="M1523 275c0,0 -1,0 -1,0 -17,-6 -36,-9 -54,-5 -16,5 -34,-2 -48,-12 -14,-10 -25,-27 -16,-44 7,-15 18,-33 31,-43 20,-15 42,-6 59,7 2,2 5,5 4,8 -1,7 2,12 7,17 6,5 11,12 14,20 8,15 15,35 6,51 0,0 0,1 0,1 0,0 -1,0 -2,0z"/>
   <path class="fil41" d="M1363 266c-7,4 -15,6 -23,6 -1,0 -4,-1 -3,-2 5,-26 27,-45 52,-50 1,0 1,0 1,0 1,0 3,1 3,2 -4,18 -13,36 -30,44z"/>
   <path class="fil1" d="M1517 290c0,0 0,0 0,0 0,0 0,0 0,0 -5,3 -13,-1 -17,-4 -3,-2 -7,-6 -6,-10 0,-2 3,-4 5,-5 4,-2 9,-3 14,-3 2,0 4,0 6,0 -2,-9 -7,-21 -18,-16 -1,0 -5,-2 -4,-2 4,-2 8,-2 12,0 9,3 13,12 14,20 0,0 0,0 0,1 1,0 1,1 2,3 1,5 -5,12 -8,16z"/>
   <path class="fil1" d="M1409 218c-18,-9 -36,-18 -54,-27 -2,-1 0,-5 2,-4 18,9 36,18 54,27 2,2 0,5 -2,4l0 0z"/>
   <path class="fil1" d="M1421 204c-18,-12 -36,-24 -54,-35 -2,-2 -5,-4 -8,-5 -2,-2 1,-5 3,-4 18,12 36,24 54,35 2,2 5,4 7,5 3,2 0,5 -2,4l0 0z"/>
   <path class="fil1" d="M1428 194c-10,-18 -21,-36 -31,-54 -1,-2 2,-4 4,-2 10,18 20,36 30,54 2,2 -2,5 -3,2l0 0z"/>
   <path class="fil10" d="M1430 227c2,-2 2,-5 2,-5 -1,-1 -3,1 -5,3 -2,3 -3,5 -2,6 1,0 3,-1 5,-4z"/>
   <path class="fil10" d="M1433 220c0,0 0,0 0,0 -1,-1 -3,-1 -5,1 -1,0 -2,2 -3,3 -2,3 -3,7 -1,9 3,1 6,-2 8,-5l0 0c0,-1 2,-4 2,-6 0,-1 -1,-2 -1,-2z"/>
   <path class="fil41" d="M1509 138c-3,-4 -5,-8 -8,-12 -3,-4 -6,-8 -10,-11 -7,-7 -15,-13 -24,-18 -13,-7 -27,-13 -41,-17 -2,0 -5,0 -6,-2 -3,-3 -5,-7 -6,-10 -2,-7 3,-11 9,-14 7,-3 15,-6 21,-13 2,-3 3,-7 5,-9 2,-3 6,-1 8,1 3,1 6,3 9,5 0,0 0,1 1,1 13,14 26,29 38,45 8,11 16,22 22,34 2,4 5,8 5,13 1,5 -1,9 -4,12 -6,8 -15,3 -19,-5z"/>
   <path class="fil32" d="M1365 301c-10,0 -19,1 -29,2 -4,13 -8,26 -12,39 28,-4 56,-3 84,2 1,0 2,-1 3,-2 11,-10 25,-17 36,-26 -27,-5 -54,-15 -82,-15z"/>
   <path class="fil32" d="M1311 397c-1,5 -5,12 -2,16 9,-1 15,-5 21,-10 10,-6 21,-11 31,-19 2,-2 5,-4 8,-7 -18,-1 -37,0 -55,3 -1,6 -2,12 -3,17z"/>
   <path class="fil11" d="M1324 342c-2,6 -4,13 -5,19 -2,7 -3,13 -5,19 18,-3 37,-4 55,-3 13,-10 26,-22 39,-33 -28,-5 -56,-6 -84,-2z"/>
   <path class="fil11" d="M1336 303c10,-1 19,-2 29,-2 28,0 55,10 82,15 3,-2 5,-4 7,-7 -14,-5 -27,-17 -39,-26 -6,-5 -13,-9 -19,-14 -16,-4 -32,-6 -49,-4 -1,7 -3,14 -5,21 -2,6 -4,12 -6,17z"/>
   <path class="fil32" d="M1396 269c-12,-9 -23,-18 -35,-26 -10,-8 -10,-4 -11,6 0,5 -1,10 -3,16 17,-2 33,0 49,4z"/>
   <path class="fil41" d="M1388 303c-2,2 -3,4 -5,5 -1,1 -3,-1 -3,-2 -5,-20 0,-44 12,-60 1,-1 2,0 3,1 9,7 13,18 9,30 -3,10 -9,19 -16,26z"/>
   <path class="fil43" d="M1394 289c-1,1 -3,-1 -3,-2 -4,-6 -2,-15 0,-23 1,-5 3,-10 5,-15 0,-1 3,1 3,2 7,12 4,28 -5,38z"/>
   <path class="fil44" d="M976 -29c3,-13 6,-26 11,-38l453 0c3,16 2,34 -5,48 -17,40 -71,39 -108,39 -30,0 -59,-3 -88,-3 -16,1 -30,5 -43,13 -31,17 -53,48 -73,77 -26,37 -50,76 -79,112 -16,20 -33,39 -52,57 -16,16 -34,31 -54,43 -29,17 -63,24 -96,22 -31,-3 -61,-14 -89,-29 -41,-21 -78,-51 -110,-85 -2,-2 -4,-4 -5,-6 -7,-6 -14,-13 -17,-22 -2,-4 -3,-10 0,-14 2,-2 5,-2 7,-2 13,-2 25,-3 38,-4 48,-6 97,-15 143,-30 17,-5 34,-10 50,-18 36,-17 69,-43 90,-78 14,-26 21,-54 27,-82z"/>
   <path class="fil5" d="M1735 9c0,0 -17,163 99,176 0,0 28,-122 -99,-176z"/>
   <path class="fil5" d="M1548 194c0,0 195,-14 196,-184 0,0 -148,-11 -196,184z"/>
   <path class="fil5" d="M1709 361c0,0 9,163 -108,171 0,0 -22,-123 108,-171z"/>
   <path class="fil5" d="M1886 555c0,0 -193,-24 -186,-193 0,0 149,-4 186,193z"/>
   <path class="fil5" d="M1842 356c0,0 27,-140 -122,-187 0,0 -46,148 122,187z"/>
   <path class="fil5" d="M1560 374c0,0 167,-19 168,-203 0,0 -182,1 -168,203z"/>
   <path class="fil5" d="M1712 384l-11 0c0,-2 -6,-179 49,-451l12 0c-56,272 -50,449 -50,451z"/>
   <path class="fil38" d="M644 -67c15,32 73,137 166,101 0,0 -19,-74 -94,-101l-72 0z"/>
   <path class="fil38" d="M561 175c0,0 157,-98 93,-242l-25 0c-36,26 -105,95 -68,242z"/>
   <path class="fil38" d="M781 248c0,0 84,140 -16,202 0,0 -76,-99 16,-202z"/>
   <path class="fil38" d="M1028 337c0,0 -182,69 -254,-84 0,0 129,-73 254,84z"/>
   <path class="fil38" d="M897 182c0,0 -42,-137 -195,-109 0,0 28,152 195,109z"/>
   <path class="fil38" d="M656 329c0,0 138,-95 53,-257 0,0 -160,85 -53,257z"/>
   <path class="fil38" d="M795 266l-10 6c-1,-2 -71,-123 -141,-339l12 0c69,212 138,332 139,333z"/>
   <path class="fil18" d="M1172 -67c0,3 1,6 1,9 1,34 -12,68 -35,96 -19,22 -40,57 -26,94 22,60 -22,115 -22,115 0,0 -16,21 -14,43 2,17 -2,33 -10,48 -3,5 -18,23 -22,28 0,0 -22,-34 -12,-67 10,-32 7,-49 -5,-66 -13,-17 -10,-85 3,-123 13,-37 -36,-90 -39,-125 -1,-14 2,-32 12,-52l169 0z"/>
   <path class="fil32" d="M831 1542c4,4 9,7 14,10 -1,-11 -2,-23 -2,-34 0,-1 0,-2 0,-3 -5,1 -11,1 -17,-2 -2,-1 -3,-2 -5,-3 -2,2 -4,5 -6,7 -1,1 -2,2 -3,3 6,8 12,16 19,22z"/>
   <path class="fil11" d="M845 1617c1,-16 1,-32 1,-49 -1,-5 -1,-11 -1,-16 -5,-3 -10,-6 -14,-10 -7,-6 -13,-14 -19,-22 -10,11 -21,21 -30,34 -1,1 -2,2 -2,3 1,2 3,5 4,7 16,22 37,42 61,53z"/>
   <path class="fil32" d="M814 1660c9,6 19,10 29,13 0,-18 2,-37 2,-56 -24,-11 -45,-31 -61,-53 -1,-2 -3,-5 -4,-7 -10,13 -19,26 -27,39 1,2 3,4 4,6 17,22 34,44 57,58z"/>
   <path class="fil32" d="M847 1733c-3,-1 -6,-2 -9,-3 -46,-17 -92,-45 -119,-86 -12,14 -25,27 -33,43 21,3 42,13 61,20 29,12 58,24 87,34 14,5 14,3 13,-8z"/>
   <path class="fil11" d="M838 1730c3,1 6,2 9,3 -1,-1 -1,-2 -1,-4 -3,-17 -3,-35 -3,-52 0,-1 0,-2 0,-4 -10,-3 -20,-7 -29,-13 -23,-14 -40,-36 -57,-58 -1,-2 -3,-4 -4,-6 -7,11 -14,22 -22,32 -3,6 -7,11 -12,16 27,41 73,69 119,86z"/>
   <path class="fil32" d="M843 1515c0,-6 1,-15 -4,-18 -7,2 -13,7 -18,13 2,1 3,2 5,3 6,3 12,3 17,2z"/>
   <path class="fil45" d="M3385 325c3,3 7,5 11,7 -1,-9 -3,-17 -4,-25 0,-1 0,-2 0,-2 -4,1 -8,1 -13,-1 -2,-1 -3,-1 -4,-2 -2,2 -4,4 -5,6 -1,0 -1,1 -2,2 5,5 11,11 17,15z"/>
   <path class="fil11" d="M3401 380c-1,-12 -2,-24 -3,-36 -1,-4 -1,-8 -2,-12 -4,-2 -8,-4 -11,-7 -6,-4 -12,-10 -17,-15 -7,9 -15,17 -21,27 -1,1 -1,1 -2,2 1,2 3,4 4,5 14,16 32,29 52,36z"/>
   <path class="fil45" d="M3379 413c8,4 16,7 24,9 -1,-14 -1,-28 -2,-42 -20,-7 -38,-20 -52,-36 -1,-1 -3,-3 -4,-5 -6,10 -13,20 -19,31 2,1 3,3 4,4 15,15 30,30 49,39z"/>
   <path class="fil45" d="M3410 466c-2,-1 -5,-1 -7,-2 -38,-10 -76,-28 -100,-57 -8,11 -17,22 -23,35 16,0 34,6 50,11 23,6 47,13 70,20 12,3 12,0 10,-7z"/>
   <path class="fil11" d="M3403 464c2,1 5,1 7,2 0,-1 -1,-2 -1,-3 -3,-13 -5,-26 -6,-38 0,-1 0,-2 0,-3 -8,-2 -16,-5 -24,-9 -19,-9 -34,-24 -49,-39 -1,-1 -2,-3 -4,-4 -4,8 -9,17 -14,25 -3,4 -6,8 -9,12 24,29 62,47 100,57z"/>
   <path class="fil45" d="M3392 305c0,-5 0,-12 -4,-14 -6,2 -10,6 -13,11 1,1 2,1 4,2 5,2 9,2 13,1z"/>
   <path class="fil11" d="M2239 1624c-2,-12 -4,-24 -6,-36 -14,10 -30,15 -46,20 -8,2 -16,4 -24,6 -12,18 -24,36 -36,55 39,-6 77,-17 113,-31 0,-5 -1,-9 -1,-14z"/>
   <path class="fil22" d="M2233 1588c-1,-4 -2,-9 -2,-13 -1,-6 0,-17 -7,-21 -12,4 -18,13 -26,21 -11,13 -24,25 -34,38 0,1 0,1 -1,1 8,-2 16,-4 24,-6 16,-5 32,-10 46,-20z"/>
   <path class="fil22" d="M2240 1638c-36,14 -74,25 -113,31 -4,7 -9,14 -13,20 -7,11 -16,20 -25,29 53,-10 104,-24 154,-41 -1,-13 -1,-26 -3,-39z"/>
   <path class="fil22" d="M2246 1733c-38,12 -78,22 -118,30 20,2 39,6 58,10 23,6 51,22 73,22 0,-4 0,-8 -1,-13 -2,-16 -9,-33 -12,-49z"/>
   <path class="fil11" d="M2246 1726c-2,-16 -2,-33 -3,-49 -50,17 -101,31 -154,41 -5,6 -10,12 -14,18 -19,30 1,23 28,25 8,0 17,1 25,2 40,-8 80,-18 118,-30 0,-2 0,-4 0,-7z"/>
  </g>
 </g>
</svg>
